<?xml version="1.0" encoding="utf-8" ?>
<svg xmlns="http://www.w3.org/2000/svg" xmlns:xlink="http://www.w3.org/1999/xlink" width="196" height="196">
	<path fill="#af8666" d="M50.6131 52.8316C50.8845 52.9008 51.0073 53.0696 51.1855 53.2694C51.5314 56.0624 51.76 59.024 52.4174 61.7597C52.8807 63.6877 55.976 71.9906 55.6767 73.0601C55.1688 72.5991 54.7353 72.1191 54.3607 71.5447C51.0257 66.4319 49.3541 58.8227 50.6131 52.8316Z"/>
	<path fill="#af8666" d="M145.322 51.1883C145.591 51.4182 145.785 51.6345 145.893 51.9779C147.898 58.3551 144.288 67.0639 141.242 72.6142C140.912 72.6924 140.931 72.6745 140.635 72.5007C140.845 70.4686 142.534 67.2304 143.074 64.8384C144.131 60.1664 144.384 55.6316 145.322 51.1883Z"/>
	<path fill="#af8666" d="M90.51 109.978C96.9428 111.132 103.704 110.587 110.149 109.793C109.664 110.595 109.084 111.345 108.534 112.104C107.93 112.608 107.203 113.03 106.551 113.475C102.073 113.469 97.5291 114.056 93.0856 113.35Q92.8325 113.134 92.5825 112.915C91.6876 112.129 90.5925 111.252 90.51 109.978Z"/>
	<path fill="#af8666" d="M94.8477 114.979C97.9797 115.707 100.974 114.85 104.047 115.292C104.775 115.396 105.496 115.604 105.941 116.225C106.315 116.748 106.376 117.339 106.262 117.967C106.036 119.215 105.318 119.716 104.334 120.382C102.692 120.871 100.942 121.007 99.2364 120.974C97.473 120.939 94.8393 120.535 93.5988 119.168C93.2917 118.829 93.1041 118.303 93.1396 117.849C93.2185 116.841 94.1049 115.613 94.8477 114.979Z"/>
	<path fill="#af8666" d="M127.614 89.9928L128.343 90.1183L128.633 90.6077C128.584 91.5593 127.896 92.5133 127.442 93.3331C122.932 96.0733 116.99 96.6958 111.823 97.1774C96.9208 98.5667 85.7886 97.7849 71.0902 94.7926C70.6773 94.6008 70.3274 94.3669 69.9998 94.0508C69.3187 93.3935 69.2229 92.6632 69.206 91.7559C70.107 90.4882 72.8771 91.1467 74.2362 91.3711C77.9389 91.9827 81.6846 92.8292 85.4135 93.2172C97.0162 94.4245 116.682 93.9396 127.614 89.9928Z"/>
	<path fill="#af8666" d="M120.993 97.0656L121.415 97.327L121.5 97.8338C121.035 98.9839 120.247 99.9631 119.432 100.886C115.06 105.832 111.182 108.075 104.515 108.475C99.6139 108.769 91.3295 109.477 86.8429 107.421C84.9875 106.571 83.4424 105.17 81.9293 103.831C79.9994 101.958 78.2468 100.033 76.743 97.7969C87.4105 99.9418 110.677 100.103 120.993 97.0656Z"/>
	<path fill="#af8666" d="M94.233 122.719C97.5936 123.063 100.806 123.058 104.172 122.788C104.366 125.674 104.059 128.581 104.36 131.474C104.976 137.393 107.957 143.273 110.235 148.738C107.943 149.741 105.75 150.432 103.311 150.957C102.358 151.075 101.384 151.133 100.425 151.189C97.6167 151.353 90.7269 151.317 88.4604 149.304C88.1797 148.51 88.6697 147.556 88.9926 146.797C91.6549 140.534 93.5533 136.498 94.0373 129.532C94.1825 127.443 93.7086 124.631 94.233 122.719Z"/>
	<path fill="#af8666" d="M111.184 150.242C111.42 150.291 111.653 150.347 111.884 150.417C113.689 150.963 117.642 152.781 118.51 154.546C118.675 154.883 118.739 155.34 118.602 155.689C117.276 159.078 106.852 159.745 103.767 161.147C104.394 161.43 105.254 161.303 105.941 161.286C111.456 161.144 116.249 159.092 121.361 157.316L121.492 157.368C123.819 158.294 128.978 160.659 129.982 162.998C129.851 163.66 129.64 163.946 129.111 164.379C127.615 165.603 125.565 166.426 123.779 167.168C113.847 171.292 102.566 172.262 91.9394 171.184C85.03 170.544 72.3707 167.68 67.5786 162.615C70.0968 159.729 73.1886 157.784 76.8124 156.577C79.2496 157.802 83.9544 160.5 86.6895 160.676C87.1706 160.707 87.3908 160.741 87.7659 160.414C87.1091 159.651 85.2467 159.293 84.2972 158.927C82.2025 158.12 80.3673 157.069 78.5301 155.788C80.414 153.892 82.7396 152.165 85.167 151.063C94.2968 153.71 102.303 153.941 111.184 150.242Z"/>
	<path fill="#af8666" d="M92.0528 26.6114C106.882 26.2074 118.389 26.8071 132.949 29.3844C136.675 30.0439 148.983 31.7915 151.045 34.9353C151.845 36.1552 151.566 38.834 151.256 40.2172C150.758 42.4372 149.413 43.6827 147.576 44.8277C144.854 43.3586 142.129 41.8934 139.207 40.8544C128.199 36.9412 113.643 35.7413 101.938 35.7483C89.4004 35.5889 74.6039 35.8571 62.6026 39.6855C59.702 40.6108 56.6295 41.6561 53.9233 43.0528C52.5229 43.7755 50.5916 45.472 49.0222 45.6029C48.6061 45.6376 48.0552 45.38 47.7446 45.1121C46.3177 43.8811 43.946 40.2739 43.8339 38.3518C43.7905 37.6082 44.2755 36.8842 44.7685 36.3594C50.54 30.215 71.1601 27.7156 79.348 27.0809C83.5683 26.7537 87.8222 26.7576 92.0528 26.6114Z"/>
	<path fill="#af8666" d="M91.9305 38.3632C103.687 37.8237 132.482 39.189 142.64 44.5837C142.758 45.2812 142.825 45.9959 142.877 46.701C143.573 56.0851 139.243 76.743 133.152 83.793C131.974 85.1569 130.638 86.4636 129.023 87.2979C123.582 90.1087 111.689 90.7067 105.313 91.1894Q104.944 91.2247 104.575 91.2559C97.6023 91.8439 77.5243 91.1695 71.2661 88.9191C69.2204 88.1835 67.1435 86.6195 65.5029 85.2258C64.1455 84.0727 62.8373 82.7364 61.9017 81.2115C58.0237 74.8908 54.0903 59.3703 53.4789 51.8613C53.3364 50.1102 52.9978 47.0489 54.2688 45.6339C57.8729 41.6214 85.5879 38.6047 91.9305 38.3632ZM98.4823 42.0722C93.7948 42.9583 90.1924 44.6832 87.421 48.718C83.8344 53.9399 83.6253 61.0234 84.7783 67.075C85.1708 69.1352 85.8459 72.4762 87.0799 74.1916L87.4133 74.1829L87.1381 74.2993L87.3782 74.269C87.4823 72.4922 86.2235 70.4968 85.8388 68.7324C84.2407 61.4023 84.8782 51.9046 90.8251 46.6603C93.0984 44.6556 96.1848 43.4645 99.2309 43.6629C102.702 43.8891 106.088 45.7789 108.352 48.3775C109.72 49.9477 110.65 51.731 111.334 53.6886C113.47 61.2206 112.874 70.3701 109.008 77.3103C106.218 82.3181 102.592 81.8756 101.281 83.6036C101.924 83.9911 103.257 83.7075 103.969 83.5299C107.676 82.6058 110.456 80.4288 112.402 77.1609C116.108 70.9373 117.134 62.9133 115.338 55.9241C114.173 51.3913 111.276 46.6933 107.16 44.3016C104.783 42.9205 101.254 41.7971 98.4823 42.0722Z"/>
</svg>
