<?xml version="1.0" encoding="utf-8" ?>
<svg xmlns="http://www.w3.org/2000/svg" xmlns:xlink="http://www.w3.org/1999/xlink" width="196" height="196">
	<path fill="#AF8666" d="M131.609 73.1869C131.856 73.2962 132.11 73.4088 132.339 73.5535C132.989 73.9643 133.232 74.3907 133.38 75.1089C132.794 76.6123 130.39 77.3369 128.988 77.9528C128.471 78.1619 128.213 78.3527 127.659 78.2415C127.615 77.1381 130.823 74.28 131.609 73.1869Z"/>
	<path fill="#AF8666" d="M133.969 60.5378C134.738 60.8725 135.381 61.364 136.041 61.8741C139.957 64.904 147.988 74.2298 148.563 79.3762C148.623 79.9197 148.511 79.9831 148.173 80.4039C145.992 79.2744 141.783 78.3057 140.131 76.8463C139.025 75.8701 133.274 67.9592 133.197 66.8623C133.056 64.8437 133.297 62.4538 133.969 60.5378Z"/>
	<path fill="#AF8666" d="M142.611 139.176C142.709 139.267 142.768 139.33 142.834 139.447C143.536 140.692 140.706 148.005 140.248 149.642C139.499 152.317 139.365 154.915 139.771 157.662C140.981 165.835 146.561 167.833 150.191 174.286C147.165 173.407 144.464 172.05 141.77 170.448Q139.447 169.065 137.526 167.163C134.579 164.29 127.78 155.353 127.832 151.26C127.84 150.577 128.042 150.127 128.553 149.67C130.573 147.866 133.467 146.595 135.748 145.068C138.273 143.378 140.397 141.238 142.611 139.176Z"/>
	<path fill="#AF8666" d="M130.14 113.808Q130.727 113.72 131.319 113.685C132.501 113.624 135.094 114.333 135.951 115.164C136.238 115.442 136.404 115.727 136.414 116.129C136.474 118.381 131.432 122.824 129.902 124.34C120.403 133.756 111.742 137.27 98.3996 137.219C96.8011 137.134 93.8523 137.31 92.5348 136.381C92.2826 136.203 92.0159 135.849 91.9736 135.543C91.8049 134.322 92.8935 132.572 93.5693 131.593C99.6639 122.768 109.984 119.536 119.696 116.658C123.132 115.639 126.608 114.445 130.14 113.808Z"/>
	<path fill="#AF8666" d="M142.567 114.796C143.036 114.719 143.646 114.645 144.11 114.755C145.113 114.992 146.378 116.603 146.893 117.501C147.434 118.444 147.847 119.713 147.517 120.796C146.785 123.202 144.616 125.408 143.02 127.305C136.741 134.768 130.792 140.689 121.992 145.166C119.585 146.391 117.096 147.57 114.487 148.291C105.781 150.694 94.6673 149.66 86.1466 146.885C84.4133 146.195 81.8982 145.393 80.8001 143.793C80.4293 143.253 80.3075 142.642 80.4501 142.003C80.8981 139.996 83.7377 138.182 85.3703 137.165C86.8425 138.484 88.2932 139.18 90.2579 139.44C93.2161 139.831 96.5044 139.587 99.4892 139.589C114.653 139.599 123.108 136.391 133.567 125.151C136.585 121.907 139.107 117.473 142.567 114.796Z"/>
	<path fill="#AF8666" d="M94.9149 27.3549C97.3045 27.1532 99.838 27.1179 102.225 27.3419C108.929 27.9708 115.673 31.8247 119.957 37.0354C122.47 40.0925 123.379 43.33 122.991 47.2337C124.887 49.0115 126.908 50.8799 127.903 53.3404C129.385 57.0076 128.072 60.9533 126.588 64.3974C124.588 69.0374 120.449 76.6117 115.512 78.4948C114.407 78.9161 113.26 78.9552 112.175 78.4537C107.762 76.4145 107.36 68.5087 106.026 64.4562C105.43 62.6463 104.324 61.0245 103.695 59.2254C102.647 56.2283 103.513 53.1194 104.852 50.3697C105.492 49.6058 106.152 48.8209 106.936 48.2006C108.239 47.1686 111.027 46.125 111.714 44.6889C111.653 44.6195 111.638 44.598 111.561 44.5329C110.642 43.761 107.728 44.1893 106.53 44.2663C103.648 42.0123 101.11 40.4086 97.3891 39.9315C87.3328 38.6422 76.2232 44.144 68.3129 50.0431C66.1286 51.6721 64.223 53.5992 62.0753 55.2677C64.2103 49.5895 67.698 42.0275 71.6129 37.3903C77.4508 30.4752 86.2467 28.0705 94.9149 27.3549ZM124.608 58.432C123.106 59.6299 121.543 61.3694 121.305 63.362C121.227 64.0159 121.228 65.0192 121.688 65.551C121.949 65.8529 122.284 66.111 122.598 66.3564C123.989 65.7717 124.69 64.886 125.254 63.5015C125.736 62.3172 126.181 60.6102 125.679 59.3799C125.564 59.0981 125.388 58.8394 125.213 58.5921L124.608 58.432ZM107.179 58.9531C106.521 59.5405 106.158 59.7982 105.86 60.6484C106.064 62.6618 108.24 64.3702 109.582 65.7644C110.337 64.9358 110.765 64.3996 110.695 63.245C110.604 61.7626 110.048 60.473 108.92 59.4894C108.391 59.0283 107.995 58.8745 107.283 58.9414C107.248 58.9446 107.214 58.9492 107.179 58.9531Z"/>
	<path fill="#AF8666" d="M94.6716 49.1025C95.383 49.0351 96.0972 48.9667 96.8114 48.939C97.4865 48.9128 98.1133 49.0803 98.6079 49.5612C99.4108 50.3419 99.719 51.4387 99.7056 52.5319C99.6894 53.8522 99.1579 55.5314 97.9316 56.2143C96.6347 56.9365 94.3411 56.7713 92.8562 56.9635C86.2109 57.8233 79.2377 61.0786 74.4479 65.7041C72.9317 67.1683 69.6312 70.3145 69.59 72.5406C69.778 72.8314 69.8342 73.0493 70.1815 73.1486C70.9304 73.3628 71.9366 73.0451 72.5572 72.6115C75.1707 70.7853 76.731 67.2201 80.2499 65.1232C84.4884 62.5976 91.5687 61.5091 96.3971 62.7575C103.795 64.6702 102.463 74.8531 105.602 80.1881C107.661 83.687 110.581 84.6053 114.296 85.552C109.304 89.4831 100.884 93.5601 95.1931 96.7346C90.4139 99.4004 85.7396 102.461 80.78 104.773C79.9748 105.148 79.2053 105.458 78.3043 105.496C74.9479 105.8 70.7219 106.648 67.4372 106.069C66.0125 105.818 64.7945 105.203 63.975 103.976C61.9194 100.9 63.3388 89.6349 64.3906 85.8429C64.9314 83.8931 66.17 81.9999 66.4796 80.0121C66.5966 79.2611 66.4544 78.9083 66.0333 78.3208C65.5827 78.1358 65.2359 78.1018 64.7764 78.2523C63.1806 78.7751 62.651 80.7984 62.1272 82.2121Q61.4778 83.9261 60.9834 85.691Q60.489 87.4559 60.1534 89.2578Q59.8178 91.0597 59.6437 92.8843Q59.4696 94.7089 59.4584 96.5417C59.457 98.5078 60.1689 105.642 59.4506 106.982C59.2851 107.29 59.0282 107.298 58.7131 107.408C57.0683 107.23 55.4765 106.21 54.2161 105.181C52.4507 103.739 51.5216 101.941 51.3 99.6735C50.1355 87.7501 56.5543 73.7018 63.9264 64.6727C71.6304 55.2371 82.7617 50.3083 94.6716 49.1025Z"/>
	<path fill="#AF8666" d="M134.394 82.3443C136.058 82.2367 137.753 82.1374 139.415 82.3243C145.114 82.9656 150.304 86.7923 153.769 91.1978C158.464 97.1656 160.358 103.455 159.437 110.99C159.099 113.76 158.38 117.749 156.033 119.583C155.213 119.484 155.316 118.889 155.295 118.194C155.166 113.948 153.297 109.354 150.48 106.185C147.527 102.862 141.747 98.3153 137.259 97.8015C126.453 96.5645 108.732 109.059 99.5053 114.258C94.2551 117.216 88.7833 119.741 83.5468 122.753C78.5545 125.624 73.2731 129.428 67.7538 131.116C64.3056 132.17 60.7457 132.101 57.1884 131.888C55.712 131.809 54.2279 131.741 52.755 131.611C48.2942 131.22 43.5861 128.283 40.7532 124.884C36.393 119.653 34.6768 111.251 35.2845 104.594C35.7328 99.683 38.3261 93.8895 42.188 90.7148C42.9892 90.0561 43.5241 89.7998 44.5455 89.9022C45.6794 90.6976 46.2235 92.747 46.6695 93.9983C46.0594 96.4877 44.2703 99.2035 44.5106 101.82C44.7611 104.548 48.6523 109.368 50.7754 111.09C52.9618 112.864 55.5959 113.397 58.3262 113.716C60.5553 113.976 62.8092 114.146 65.0433 113.846C71.5393 112.974 77.5887 110.085 83.4294 107.285C87.6539 105.259 91.9785 103.444 96.0724 101.159C100.816 98.5112 105.297 95.4396 109.988 92.7059C113.558 90.6254 117.284 88.8511 121.013 87.0797C125.363 85.0133 129.541 82.8711 134.394 82.3443Z"/>
</svg>
