<svg xmlns="http://www.w3.org/2000/svg" width="196" height="196" viewBox="0 0 196 196">
<g>
<path d="M 51.22,155.98 L 50.08,155.88 L 47.96,155.66 L 46.94,155.55 L 45.21,155.32 L 44.41,155.21 L 43.26,155.00 L 42.40,154.73 L 42.28,154.61 L 42.63,154.00 L 42.89,153.64 L 43.90,152.65 L 44.48,152.11 L 46.02,150.83 L 46.84,150.16 L 48.76,148.70 L 50.75,147.22 L 55.27,144.17 L 56.40,143.43 L 58.62,142.07 L 61.74,140.31 L 62.80,139.75 L 64.70,138.78 L 65.64,138.31 L 67.46,137.45 L 68.39,137.02 L 70.38,136.18 L 71.42,135.75 L 73.82,134.85 L 75.09,134.38 L 78.14,133.31 L 79.76,132.75 L 83.70,131.44 L 84.75,131.09 L 87.06,130.34 L 88.25,129.95 L 90.87,129.10 L 92.22,128.67 L 95.17,127.72 L 100.00,126.16 L 101.94,125.54 L 105.44,124.42 L 107.12,123.87 L 110.14,122.90 L 111.60,122.44 L 114.18,121.61 L 115.42,121.21 L 117.61,120.53 L 118.65,120.20 L 120.47,119.64 L 121.34,119.38 L 122.83,118.94 L 123.53,118.74 L 124.73,118.41 L 125.30,118.26 L 126.24,118.05 L 127.12,117.85 L 128.28,117.75 L 128.79,117.74 L 129.40,117.96 L 130.59,119.50 L 130.90,119.97 L 131.61,121.33 L 131.98,122.07 L 132.76,123.84 L 133.55,125.68 L 135.10,129.85 L 135.47,130.88 L 136.11,132.84 L 136.41,133.78 L 136.88,135.45 L 137.09,136.24 L 137.32,137.45 L 137.34,138.55 L 137.26,138.75 L 136.92,139.15 L 136.70,139.36 L 135.94,139.79 L 135.49,140.01 L 134.12,140.53 L 133.35,140.81 L 131.18,141.47 L 130.58,141.65 L 129.20,142.04 L 128.48,142.24 L 126.83,142.69 L 125.97,142.92 L 124.04,143.43 L 123.03,143.69 L 120.79,144.27 L 119.63,144.57 L 117.05,145.22 L 115.71,145.56 L 112.77,146.29 L 111.26,146.67 L 107.94,147.50 L 102.50,148.85 L 99.20,149.67 L 92.55,151.21 L 89.27,151.96 L 83.20,153.25 L 81.75,153.55 L 79.08,154.08 L 77.79,154.33 L 75.50,154.75 L 74.41,154.94 L 72.60,155.22 L 70.50,155.48 L 69.40,155.57 L 67.28,155.76 L 66.24,155.86 L 64.41,156.04 L 63.55,156.12 L 62.21,156.27 L 61.00,156.42 L 60.79,156.46 L 59.76,156.47 L 59.16,156.47 L 57.51,156.40 L 56.62,156.36 L 54.55,156.23 L 53.49,156.16 M 96.31,139.60 L 98.56,138.96 L 102.91,137.70 L 105.05,137.09 L 109.09,135.91 L 111.07,135.33 L 114.72,134.26 L 116.49,133.74 L 119.66,132.80 L 121.17,132.34 L 123.76,131.56 L 124.98,131.19 L 126.90,130.59 L 127.77,130.31 L 128.93,129.92 L 129.72,129.61 L 130.03,129.31 L 130.27,128.88 L 130.32,128.69 L 129.89,128.54 L 129.57,128.51 L 128.24,128.69 L 127.85,128.76 L 126.84,128.97 L 126.31,129.09 L 125.00,129.40 L 124.31,129.57 L 122.68,129.99 L 121.82,130.22 L 119.84,130.75 L 118.80,131.04 L 116.43,131.70 L 115.20,132.04 L 112.42,132.83 L 110.98,133.25 L 107.76,134.17 L 106.10,134.65 L 102.42,135.72 L 100.52,136.27 L 96.34,137.49 L 89.50,139.49 L 87.54,140.06 L 83.76,141.21 L 81.90,141.78 L 78.40,142.89 L 76.69,143.44 L 73.57,144.47 L 72.07,144.98 L 69.44,145.90 L 68.19,146.35 L 66.15,147.13 L 65.22,147.49 L 63.88,148.08 L 63.31,148.35 L 62.78,148.71 L 63.00,148.96 L 63.03,148.96 L 63.77,148.77 L 64.24,148.65 L 65.78,148.23 L 66.65,147.99 L 68.90,147.37 L 70.11,147.03 L 72.99,146.22 L 74.50,145.80 L 77.91,144.83 L 79.68,144.34 L 83.53,143.24 L 85.50,142.68 L 89.71,141.49 L 91.84,140.88 M 137.49,146.98 L 137.40,146.84 L 137.41,146.32 L 137.44,146.03 L 137.65,145.28 L 138.93,142.61 L 139.60,141.53 L 140.42,139.74 L 140.74,138.86 L 140.85,137.06 L 140.83,136.58 L 140.66,135.53 L 140.55,134.98 L 140.19,133.73 L 139.99,133.07 L 139.44,131.56 L 138.42,128.92 L 137.87,127.56 L 136.86,125.14 L 136.37,123.98 L 135.47,121.95 L 135.03,120.98 L 134.22,119.30 L 133.82,118.51 L 133.08,117.17 L 132.72,116.53 L 132.04,115.50 L 131.71,115.02 L 131.07,114.26 L 129.27,112.91 L 128.74,112.71 L 127.98,112.24 L 127.65,112.00 L 127.25,111.47 L 127.10,111.20 L 127.04,110.64 L 127.06,110.36 L 127.33,109.80 L 127.50,109.52 L 128.07,108.99 L 128.39,108.74 L 129.24,108.28 L 129.70,108.06 L 130.81,107.70 L 132.75,107.31 L 136.79,106.76 L 140.81,115.22 L 141.40,116.46 L 142.61,119.25 L 143.21,120.68 L 144.41,123.70 L 145.58,126.76 L 147.65,132.83 L 148.12,134.29 L 148.92,136.98 L 149.29,138.27 L 149.85,140.50 L 150.09,141.53 L 150.35,143.12 L 150.33,144.58 L 150.18,144.98 L 149.40,145.91 L 147.95,147.03 L 147.35,147.35 L 145.42,147.74 L 144.39,147.90 L 142.12,147.97 L 141.01,147.97 L 139.12,147.72 L 138.71,147.63 L 138.07,147.41 L 137.79,147.29 M 20.49,144.99 L 20.01,144.46 L 19.48,143.54 L 19.29,143.11 L 19.29,142.50 L 19.36,142.25 L 19.86,142.10 L 21.13,142.58 L 21.41,142.75 L 22.21,143.00 L 22.65,143.10 L 23.85,143.21 L 24.51,143.25 L 26.20,143.24 L 29.39,143.09 L 29.77,143.07 L 31.06,142.42 L 33.14,140.95 L 35.50,138.90 L 32.08,140.56 L 31.28,140.95 L 28.94,141.45 L 27.72,141.66 L 25.07,141.77 L 23.77,141.78 L 21.50,141.50 L 21.00,141.41 L 20.17,141.15 L 19.32,140.65 L 19.18,140.52 L 19.14,140.10 L 19.14,139.87 L 19.34,139.30 L 19.59,138.69 L 20.63,137.27 L 21.20,136.55 L 22.63,135.24 L 24.79,133.89 L 25.54,133.60 L 27.08,133.33 L 27.86,133.24 L 29.38,133.33 L 30.13,133.41 L 31.56,133.81 L 32.25,134.04 L 33.50,134.70 L 34.09,135.05 L 35.09,135.92 L 35.54,136.38 L 36.20,137.42 L 36.48,137.95 L 36.72,139.11 L 36.52,140.92 L 36.30,141.63 L 35.48,142.90 L 35.01,143.50 L 33.80,144.54 L 33.16,145.03 L 31.67,145.81 L 30.91,146.17 L 29.27,146.67 L 28.44,146.88 L 26.77,147.06 L 25.95,147.10 L 24.36,146.94 L 23.59,146.81 L 22.21,146.26 L 21.55,145.94 M 43.14,135.92 L 42.33,135.17 L 41.43,133.57 L 41.09,132.77 L 41.03,131.17 L 41.09,130.38 L 41.75,128.88 L 42.15,128.15 L 43.39,126.87 L 44.07,126.26 L 45.77,125.30 L 46.66,124.87 L 48.69,124.35 L 49.74,124.16 L 51.98,124.19 L 55.43,124.98 L 56.29,125.30 L 57.32,125.96 L 57.72,126.30 L 57.85,127.02 L 57.80,127.40 L 57.02,128.21 L 54.82,129.59 L 53.67,130.19 L 51.23,130.72 L 50.58,130.81 L 49.14,130.83 L 46.68,130.65 L 46.08,130.58 L 45.09,130.46 L 44.63,130.41 L 43.90,130.35 L 43.25,130.30 L 42.64,130.39 L 42.45,130.47 L 42.63,130.86 L 43.61,131.88 L 44.13,132.39 L 45.09,132.95 L 46.00,132.94 L 46.09,132.81 L 46.48,132.61 L 46.71,132.52 L 47.31,132.40 L 47.96,132.31 L 49.56,132.35 L 50.36,132.41 L 51.84,132.74 L 53.23,133.49 L 53.47,133.82 L 53.78,133.95 L 53.98,133.37 L 53.99,133.21 L 54.19,132.80 L 54.32,132.58 L 54.73,132.08 L 56.50,130.59 L 57.11,130.19 L 57.92,129.71 L 58.27,129.53 L 58.67,129.51 L 58.83,129.57 L 58.95,130.08 L 59.00,131.49 L 59.00,132.18 L 58.51,133.44 L 58.19,134.05 L 57.16,135.11 L 56.60,135.61 L 55.18,136.43 L 54.44,136.81 L 52.78,137.36 L 51.93,137.60 L 50.16,137.84 L 49.28,137.91 L 47.54,137.79 L 46.69,137.68 L 45.13,137.17 L 44.39,136.86 M 61.00,129.88 L 61.00,129.45 L 61.09,128.85 L 61.16,128.59 L 61.44,128.31 L 61.60,128.20 L 62.12,128.19 L 63.25,128.45 L 63.56,128.54 L 64.46,128.76 L 64.94,128.87 L 66.09,129.09 L 69.75,129.69 L 70.56,129.80 L 71.81,130.04 L 72.38,130.16 L 73.16,130.42 L 73.49,130.55 L 73.81,130.80 L 73.92,130.93 L 73.80,131.17 L 73.68,131.29 L 73.14,131.50 L 72.81,131.60 L 71.85,131.76 L 71.32,131.84 L 69.96,131.94 L 67.50,132.00 L 66.76,132.00 L 65.51,131.99 L 64.93,131.98 L 63.97,131.94 L 63.08,131.89 L 62.02,131.67 L 61.58,131.53 L 61.18,131.03 L 61.03,130.74 M 173.50,128.99 L 173.84,127.92 L 174.15,125.08 L 174.24,123.59 L 174.08,120.36 L 173.95,118.75 L 173.39,115.72 L 173.23,115.00 L 172.83,113.70 L 172.14,112.04 L 171.85,111.49 L 171.40,110.55 L 171.19,110.11 L 170.92,109.38 L 170.80,109.04 L 170.72,108.49 L 170.71,108.24 L 170.83,107.86 L 171.00,107.50 L 172.02,107.16 L 174.64,107.00 L 175.32,107.00 L 176.37,107.13 L 176.86,107.23 L 177.64,107.62 L 178.01,107.86 L 178.66,108.62 L 179.66,110.25 L 180.10,111.10 L 180.75,113.52 L 181.03,114.82 L 181.33,117.76 L 181.44,119.25 L 181.36,122.20 L 180.76,126.08 L 180.56,126.79 L 179.50,128.24 L 177.48,129.83 L 176.56,130.25 L 175.20,130.73 L 174.60,130.91 L 173.84,130.90 L 173.52,130.83 L 173.30,130.33 L 173.25,130.01 M 148.51,125.39 L 148.04,124.16 L 147.46,121.85 L 147.35,121.33 L 147.26,120.47 L 147.32,119.60 L 147.37,119.47 L 148.21,118.97 L 148.73,118.70 L 150.31,117.97 L 151.17,117.59 L 153.26,116.74 L 154.34,116.30 L 156.67,115.41 L 157.85,114.97 L 160.18,114.13 L 161.32,113.73 L 163.40,113.04 L 164.38,112.73 L 165.96,112.28 L 167.48,112.00 L 167.59,112.00 L 167.88,112.31 L 168.04,112.51 L 168.40,113.16 L 168.77,113.87 L 169.57,115.88 L 169.95,116.92 L 170.57,119.04 L 170.70,119.54 L 170.88,120.43 L 171.00,121.51 L 171.00,122.11 L 170.29,123.25 L 169.83,123.80 L 168.20,124.83 L 167.28,125.34 L 164.76,126.26 L 160.00,127.50 L 159.04,127.70 L 157.25,128.19 L 156.84,128.30 L 156.19,128.53 L 155.54,128.80 L 155.28,128.96 L 154.22,129.28 L 152.40,129.61 L 151.96,129.65 L 151.24,129.53 L 150.90,129.42 L 150.31,128.90 L 150.02,128.59 L 149.45,127.58 L 149.15,127.00 M 63.25,126.51 L 62.55,126.20 L 61.55,125.65 L 61.12,125.36 L 60.57,124.70 L 60.34,124.34 L 60.11,123.40 L 60.00,121.44 L 60.00,120.71 L 60.07,119.66 L 60.12,119.20 L 60.32,118.64 L 60.44,118.41 L 60.80,118.25 L 61.58,118.39 L 62.02,118.56 L 62.82,118.82 L 63.58,119.00 L 63.64,119.00 L 63.75,119.22 L 63.81,119.36 L 63.92,119.81 L 64.14,121.75 L 64.16,122.32 L 64.22,123.05 L 64.25,123.35 L 64.33,123.56 L 64.37,123.60 L 64.48,123.30 L 64.70,122.31 L 64.79,121.83 L 65.09,121.16 L 65.27,120.87 L 65.90,120.50 L 66.27,120.35 L 67.44,120.21 L 70.01,120.15 L 71.19,120.16 L 72.77,120.24 L 73.45,120.30 L 74.27,120.62 L 74.61,120.83 L 74.96,121.57 L 75.28,123.35 L 75.68,126.50 L 75.84,123.22 L 75.89,122.14 L 76.40,120.63 L 76.56,120.31 L 76.98,119.84 L 77.75,119.39 L 78.23,119.24 L 79.79,118.57 L 82.25,117.37 L 82.93,117.00 L 83.83,116.57 L 84.21,116.41 L 84.64,116.46 L 84.82,116.56 L 84.95,117.18 L 85.00,118.86 L 85.00,119.95 L 84.81,121.66 L 84.68,122.46 L 84.15,123.71 L 83.84,124.30 L 82.90,125.26 L 80.93,126.54 L 80.48,126.77 L 79.32,127.14 L 78.70,127.31 L 77.26,127.57 L 75.77,127.80 L 72.35,127.91 L 70.63,127.91 L 67.31,127.56 L 66.52,127.44 L 65.09,127.12 L 64.41,126.94 M 41.40,123.60 L 41.08,122.77 L 41.03,121.18 L 41.09,120.39 L 41.69,118.93 L 42.05,118.23 L 43.17,116.98 L 43.78,116.39 L 45.27,115.44 L 46.05,115.01 L 47.79,114.42 L 48.68,114.18 L 50.53,114.03 L 51.45,114.02 L 53.27,114.38 L 55.83,115.60 L 56.26,115.89 L 56.89,116.50 L 57.17,116.82 L 57.54,117.52 L 57.69,117.89 L 57.83,118.74 L 57.81,120.26 L 57.73,121.02 L 57.53,122.02 L 57.38,122.45 L 56.76,122.95 L 56.36,123.16 L 54.94,123.34 L 54.52,123.38 L 53.46,123.43 L 51.50,123.48 L 49.85,123.52 L 46.75,123.82 L 46.05,123.91 L 44.91,124.10 L 43.76,124.42 L 43.16,124.69 L 42.29,124.63 L 41.90,124.49 M 87.00,123.50 L 87.00,123.08 L 87.06,122.53 L 87.12,122.30 L 87.37,122.10 L 87.53,122.04 L 88.10,122.15 L 89.42,122.61 L 89.98,122.82 L 90.63,123.34 L 90.88,123.61 L 90.94,124.13 L 90.90,124.37 L 90.39,124.75 L 89.00,125.00 L 88.44,125.00 L 87.58,124.56 L 87.22,124.29 M 89.75,121.48 L 89.23,121.19 L 88.45,120.59 L 88.09,120.29 L 87.60,119.60 L 87.38,119.24 L 87.14,118.40 L 87.00,116.86 L 87.00,116.23 L 87.07,115.34 L 87.12,114.95 L 87.33,114.51 L 87.46,114.34 L 87.87,114.27 L 88.75,114.51 L 89.82,114.96 L 91.84,115.68 L 92.83,116.02 L 94.71,116.53 L 96.56,116.98 L 99.96,117.22 L 101.63,117.23 L 104.84,116.60 L 109.70,114.67 L 110.67,114.16 L 112.01,113.52 L 112.59,113.26 L 113.30,113.10 L 113.60,113.08 L 113.87,113.39 L 114.00,114.35 L 114.00,114.57 L 113.44,115.18 L 113.07,115.51 L 111.90,116.29 L 111.26,116.70 L 109.65,117.58 L 108.81,118.03 L 106.93,118.93 L 105.01,119.82 L 101.04,121.34 L 100.09,121.67 L 98.37,122.18 L 96.20,122.62 L 95.10,122.74 L 92.76,122.49 L 91.63,122.29 M 63.51,117.26 L 62.15,116.78 L 60.08,115.62 L 59.16,115.00 L 57.95,113.52 L 57.45,112.74 L 57.06,110.91 L 57.36,107.69 L 57.52,107.06 L 57.80,106.25 L 57.95,105.91 L 58.38,105.64 L 58.65,105.57 L 59.49,105.78 L 61.47,106.55 L 62.32,106.91 L 64.20,107.43 L 65.16,107.66 L 67.22,107.93 L 69.29,108.15 L 73.61,107.91 L 74.68,107.79 L 76.75,107.40 L 77.76,107.17 L 79.67,106.58 L 80.59,106.25 L 82.25,105.46 L 84.37,104.06 L 84.80,103.70 L 85.37,103.26 L 85.62,103.09 L 85.89,103.03 L 85.99,103.06 L 86.02,103.40 L 85.87,104.39 L 85.82,104.65 L 85.50,105.30 L 85.31,105.63 L 84.78,106.35 L 82.67,108.39 L 82.22,108.73 L 80.95,109.30 L 80.27,109.56 L 78.64,109.96 L 76.95,110.33 L 72.96,110.57 L 70.95,110.61 L 67.03,110.20 L 66.10,110.05 L 64.41,109.63 L 62.25,108.81 L 61.36,108.35 L 59.95,107.91 L 59.66,107.84 L 59.26,107.85 L 59.00,108.08 L 59.00,108.33 L 59.29,108.73 L 60.00,109.00 L 60.14,109.00 L 60.40,109.26 L 60.53,109.42 L 60.75,109.95 L 61.14,112.25 L 61.16,112.86 L 61.22,113.67 L 61.26,114.01 L 61.34,114.29 L 61.38,114.36 L 61.50,114.12 L 61.71,113.20 L 61.81,112.67 L 62.07,111.96 L 62.23,111.66 L 62.80,111.35 L 63.14,111.25 L 64.26,111.27 L 66.83,111.59 L 68.11,111.78 L 70.34,112.40 L 70.83,112.56 L 71.58,112.90 L 72.23,113.39 L 72.49,113.78 L 72.80,113.94 L 72.98,113.25 L 72.99,112.91 L 73.58,112.37 L 75.00,112.00 L 75.55,112.00 L 76.42,112.37 L 77.03,113.25 L 77.04,113.60 L 77.35,113.62 L 78.08,112.75 L 78.36,112.27 L 79.31,111.51 L 80.85,111.00 L 81.33,111.00 L 82.46,110.63 L 83.88,109.75 L 84.13,109.50 L 84.50,109.26 L 84.66,109.18 L 84.84,109.33 L 84.91,109.46 L 84.93,110.04 L 84.83,111.45 L 84.74,112.21 L 84.10,113.57 L 83.71,114.23 L 82.53,115.37 L 81.88,115.92 L 80.26,116.82 L 79.40,117.23 L 77.43,117.86 L 76.41,118.14 L 74.19,118.47 L 73.06,118.60 L 70.70,118.60 L 69.50,118.56 L 67.09,118.21 L 65.88,117.99 M 92.00,114.25 L 91.30,113.90 L 90.25,113.24 L 89.78,112.90 L 89.13,112.18 L 88.84,111.79 L 88.49,110.87 L 88.18,109.11 L 88.10,108.33 L 88.06,107.29 L 88.07,106.84 L 88.26,106.35 L 88.40,106.17 L 88.92,106.12 L 90.18,106.40 L 91.50,106.78 L 94.46,107.29 L 95.97,107.49 L 99.08,107.64 L 100.64,107.66 L 103.66,107.44 L 107.80,106.70 L 113.11,105.27 L 112.80,108.38 L 112.73,109.16 L 112.05,110.57 L 111.64,111.25 L 110.38,112.45 L 109.69,113.02 L 107.98,113.97 L 107.09,114.41 L 105.06,115.07 L 104.02,115.37 L 101.80,115.71 L 100.68,115.84 L 98.41,115.82 L 97.28,115.77 L 95.08,115.35 L 94.00,115.09 M 116.75,111.31 L 116.18,111.16 L 115.44,110.25 L 115.00,108.02 L 115.00,107.33 L 115.08,106.43 L 115.16,106.05 L 115.58,105.65 L 115.85,105.50 L 116.85,105.48 L 119.25,105.73 L 120.05,105.83 L 121.38,106.03 L 122.01,106.13 L 123.02,106.34 L 123.48,106.45 L 124.18,106.68 L 124.50,106.81 L 124.91,107.09 L 125.08,107.24 L 125.22,107.58 L 125.26,107.76 L 125.15,108.18 L 123.97,109.80 L 123.48,110.33 L 122.52,111.07 L 122.03,111.39 L 120.98,111.71 L 120.43,111.83 L 119.14,111.78 L 118.45,111.71 M 122.00,109.00 L 122.00,108.72 L 121.71,108.29 L 121.00,108.00 L 120.72,108.00 L 120.29,108.29 L 120.00,109.00 L 120.00,109.27 L 120.29,109.71 L 121.00,110.00 L 121.27,110.00 L 121.71,109.71 L 121.89,109.52 M 62.23,105.57 L 61.25,105.12 L 59.83,104.17 L 59.22,103.68 L 58.52,102.58 L 58.26,102.00 L 58.24,100.65 L 58.91,98.23 L 59.18,97.56 L 59.72,96.67 L 60.03,96.29 L 61.09,95.85 L 61.42,95.77 L 62.28,95.65 L 62.76,95.60 L 63.97,95.54 L 64.62,95.52 L 66.26,95.50 L 69.27,95.49 L 71.00,95.48 L 73.79,95.39 L 75.10,95.33 L 77.19,95.09 L 78.17,94.95 L 79.75,94.54 L 81.76,93.71 L 82.43,93.34 L 83.35,92.76 L 83.74,92.49 L 84.15,92.01 L 84.30,91.78 L 84.26,91.33 L 83.76,90.57 L 83.50,90.28 L 83.10,89.93 L 82.92,89.79 L 82.67,89.75 L 82.55,89.78 L 82.37,90.06 L 82.13,90.85 L 82.03,91.30 L 81.65,92.07 L 81.44,92.44 L 80.88,93.01 L 80.29,93.53 L 78.87,93.96 L 78.15,94.06 L 76.88,93.57 L 76.59,93.39 L 76.14,92.85 L 75.71,91.75 L 75.61,91.27 L 75.48,90.68 L 75.41,90.45 L 75.33,90.39 L 75.28,90.43 L 75.22,90.91 L 75.14,92.25 L 75.11,92.84 L 74.96,93.67 L 74.86,94.04 L 74.50,94.50 L 74.28,94.70 L 73.59,94.90 L 72.07,95.00 L 71.10,95.00 L 69.77,94.56 L 68.69,93.25 L 68.58,92.83 L 68.43,92.31 L 68.37,92.10 L 68.28,92.00 L 68.24,92.00 L 68.19,92.31 L 68.12,93.25 L 68.10,93.56 L 67.90,94.05 L 67.77,94.27 L 67.33,94.59 L 67.08,94.73 L 66.38,94.90 L 65.00,95.00 L 64.40,95.00 L 63.51,94.90 L 63.11,94.83 L 62.57,94.55 L 62.34,94.38 L 62.07,93.86 L 61.88,92.75 L 61.86,92.30 L 61.81,91.73 L 61.78,91.49 L 61.70,91.32 L 61.65,91.29 L 61.53,91.52 L 61.30,92.31 L 61.13,92.97 L 60.42,93.63 L 60.03,93.86 L 59.13,93.74 L 58.68,93.59 L 57.90,92.80 L 57.20,90.96 L 57.14,90.37 L 57.14,89.57 L 57.19,89.22 L 57.58,88.84 L 57.84,88.69 L 58.83,88.60 L 61.20,88.67 L 61.71,88.69 L 62.51,88.73 L 62.87,88.74 L 63.39,88.74 L 63.61,88.73 L 63.83,88.69 L 63.90,88.66 L 63.82,88.58 L 63.74,88.53 L 63.36,88.41 L 63.13,88.34 L 62.43,88.16 L 62.04,88.06 L 61.03,87.83 L 59.13,87.41 L 58.54,87.28 L 57.76,87.04 L 57.43,86.91 L 57.16,86.68 L 57.09,86.57 L 57.31,86.36 L 57.48,86.25 L 58.17,86.07 L 58.57,85.98 L 59.69,85.83 L 60.30,85.76 L 61.83,85.65 L 62.65,85.60 L 64.56,85.53 L 67.84,85.49 L 69.17,85.48 L 71.83,85.42 L 73.13,85.37 L 75.54,85.24 L 76.69,85.17 L 78.57,84.99 L 80.50,84.68 L 83.50,83.89 L 81.00,85.41 L 80.60,85.65 L 80.04,86.04 L 79.79,86.23 L 79.50,86.51 L 79.39,86.63 L 79.36,86.79 L 79.37,86.86 L 79.55,86.90 L 79.79,86.91 L 80.83,86.57 L 83.00,85.50 L 83.69,85.11 L 84.38,84.48 L 84.49,84.35 L 84.50,84.16 L 84.19,84.04 L 83.83,84.03 L 83.46,83.70 L 83.53,82.95 L 83.75,82.60 L 84.38,82.46 L 85.65,83.13 L 85.99,83.41 L 86.48,84.74 L 86.68,85.48 L 86.86,87.34 L 86.92,88.29 L 86.77,90.16 L 86.16,92.41 L 86.10,92.53 L 85.97,93.12 L 85.91,93.45 L 85.80,94.38 L 85.59,97.84 L 85.57,98.85 L 85.44,100.32 L 85.35,100.98 L 84.96,101.95 L 84.72,102.40 L 83.94,103.15 L 82.17,104.33 L 81.62,104.65 L 80.23,105.21 L 79.49,105.47 L 77.82,105.90 L 76.10,106.29 L 72.23,106.68 L 70.29,106.80 L 66.62,106.59 L 65.75,106.50 L 64.20,106.20 L 63.46,106.03 M 71.65,98.67 L 73.43,98.50 L 76.73,97.97 L 78.31,97.68 L 80.99,96.98 L 81.60,96.79 L 82.65,96.41 L 83.14,96.22 L 83.91,95.83 L 84.26,95.64 L 84.72,95.25 L 85.00,94.69 L 85.00,94.44 L 84.49,94.27 L 83.25,94.53 L 81.86,95.13 L 78.90,96.08 L 77.40,96.52 L 74.33,97.14 L 72.80,97.41 L 69.79,97.67 L 65.50,97.62 L 64.46,97.53 L 62.94,97.45 L 62.27,97.42 L 61.48,97.46 L 61.18,97.49 L 61.09,97.65 L 61.75,98.03 L 62.50,98.33 L 63.48,99.40 L 64.15,101.72 L 64.30,104.50 L 64.70,101.89 L 64.80,101.28 L 65.09,100.44 L 65.28,100.07 L 66.03,99.58 L 66.50,99.37 L 68.05,99.07 L 68.50,99.00 L 69.62,98.87 L 70.22,98.80 M 92.00,104.75 L 91.20,104.46 L 90.10,103.95 L 89.61,103.68 L 89.00,103.00 L 88.74,102.62 L 88.45,101.52 L 88.19,99.12 L 88.12,98.15 L 88.08,96.82 L 88.08,96.24 L 88.23,95.59 L 88.33,95.33 L 88.73,95.20 L 89.69,95.44 L 91.65,96.19 L 95.41,97.15 L 97.26,97.53 L 100.85,97.73 L 102.62,97.74 L 106.09,97.20 L 111.25,95.54 L 111.62,95.38 L 112.15,95.29 L 112.38,95.28 L 112.68,95.58 L 112.81,95.78 L 112.93,96.56 L 113.00,98.37 L 113.00,99.06 L 112.87,100.18 L 112.79,100.71 L 112.44,101.57 L 112.24,101.97 L 111.63,102.68 L 110.35,103.69 L 109.94,103.96 L 108.81,104.43 L 108.20,104.65 L 106.76,105.01 L 105.26,105.34 L 101.73,105.67 L 99.94,105.77 L 96.42,105.60 L 95.58,105.53 L 94.03,105.28 L 93.28,105.14 M 97.00,101.44 L 97.00,101.04 L 96.71,100.42 L 96.00,100.00 L 95.72,100.00 L 95.29,100.60 L 95.00,102.06 L 95.00,102.63 L 95.29,103.33 L 96.00,103.50 L 96.27,103.33 L 96.71,102.64 L 96.89,102.27 M 118.00,104.11 L 117.50,103.97 L 116.76,103.61 L 116.42,103.41 L 115.94,102.83 L 115.73,102.51 L 115.46,101.62 L 115.20,99.82 L 114.89,96.22 L 122.70,96.34 L 124.84,96.37 L 129.31,96.20 L 130.36,96.14 L 132.18,95.98 L 134.25,95.69 L 135.08,95.51 L 136.24,95.34 L 136.75,95.28 L 137.37,95.37 L 137.63,95.45 L 137.88,95.86 L 138.00,96.87 L 138.00,97.53 L 137.85,98.68 L 137.75,99.22 L 137.43,100.13 L 137.26,100.56 L 136.84,101.20 L 136.62,101.49 L 136.13,101.84 L 135.89,101.97 L 135.39,102.00 L 135.15,101.97 L 134.69,101.65 L 134.48,101.45 L 134.11,100.75 L 133.72,99.25 L 133.61,98.57 L 133.47,97.72 L 133.41,97.39 L 133.33,97.25 L 133.30,97.26 L 133.24,97.85 L 133.15,99.55 L 133.12,100.17 L 132.94,101.12 L 132.82,101.56 L 132.38,102.24 L 132.13,102.55 L 131.35,103.07 L 129.68,103.80 L 128.78,104.12 L 126.90,104.55 L 125.95,104.72 L 123.98,104.85 L 123.00,104.88 L 121.00,104.71 L 119.99,104.58 M 92.00,94.25 L 90.91,93.71 L 89.35,92.37 L 89.02,92.02 L 88.56,91.31 L 88.18,90.25 L 88.11,89.78 L 88.21,89.07 L 88.29,88.75 L 88.62,88.33 L 88.81,88.15 L 89.30,87.99 L 89.57,87.94 L 90.17,88.03 L 90.77,88.18 L 91.99,89.16 L 93.27,91.50 L 93.38,91.95 L 93.54,92.51 L 93.61,92.74 L 93.71,92.82 L 93.75,92.80 L 93.81,92.41 L 93.88,91.25 L 93.92,90.49 L 94.45,89.56 L 95.93,89.00 L 96.53,89.00 L 97.46,89.60 L 98.29,91.25 L 98.73,93.50 L 98.86,91.25 L 98.89,90.90 L 99.12,90.31 L 99.26,90.03 L 99.69,89.60 L 100.15,89.21 L 101.38,88.92 L 102.01,88.86 L 103.18,89.28 L 103.45,89.43 L 103.88,89.87 L 104.31,90.75 L 104.40,91.08 L 104.53,91.47 L 104.60,91.61 L 104.69,91.63 L 104.74,91.59 L 104.81,91.23 L 104.88,90.25 L 104.92,89.57 L 105.54,88.65 L 105.91,88.26 L 106.89,87.98 L 107.39,87.93 L 108.35,88.33 L 109.31,89.75 L 109.40,90.11 L 109.55,90.55 L 109.61,90.72 L 109.70,90.77 L 109.74,90.75 L 109.81,90.41 L 109.88,89.45 L 109.92,88.89 L 110.33,87.61 L 111.25,86.05 L 111.51,85.78 L 111.80,85.41 L 111.90,85.25 L 111.88,85.11 L 111.82,85.06 L 111.46,85.13 L 110.50,85.45 L 108.27,86.29 L 103.51,87.25 L 102.33,87.44 L 100.02,87.63 L 98.89,87.70 L 96.76,87.68 L 95.73,87.64 L 93.88,87.40 L 93.00,87.25 L 91.55,86.79 L 90.88,86.54 L 89.92,85.87 L 89.17,84.63 L 89.09,84.23 L 89.06,83.72 L 89.07,83.51 L 89.27,83.35 L 89.41,83.31 L 89.93,83.48 L 91.16,84.08 L 91.59,84.31 L 92.84,84.68 L 93.52,84.84 L 95.17,85.08 L 96.89,85.29 L 100.88,85.34 L 102.87,85.30 L 106.51,84.88 L 107.34,84.75 L 108.73,84.40 L 110.27,83.75 L 112.69,82.16 L 112.86,87.12 L 112.89,87.73 L 112.91,88.75 L 112.92,89.23 L 112.89,90.00 L 112.85,90.73 L 112.47,91.69 L 112.21,92.13 L 111.22,92.82 L 108.77,94.02 L 107.44,94.62 L 104.54,95.40 L 103.08,95.71 L 100.10,95.90 L 98.62,95.92 L 95.80,95.52 L 94.43,95.24 M 115.14,94.11 L 114.77,93.87 L 114.43,92.90 L 114.33,92.36 L 114.48,91.06 L 114.61,90.40 L 115.16,89.16 L 116.38,87.77 L 116.59,87.63 L 117.31,87.42 L 117.72,87.33 L 118.78,87.19 L 119.91,87.07 L 122.78,87.05 L 124.25,87.08 L 127.26,87.33 L 131.10,88.01 L 132.09,88.29 L 134.17,89.30 L 134.65,89.56 L 135.51,90.14 L 136.48,90.98 L 136.91,91.46 L 137.43,92.11 L 137.63,92.41 L 137.65,92.82 L 137.59,93.01 L 137.05,93.36 L 135.57,93.97 L 135.16,94.13 L 133.83,94.39 L 133.10,94.50 L 131.27,94.69 L 129.35,94.85 L 124.85,94.96 L 123.73,94.97 L 121.58,94.92 L 120.54,94.89 L 118.68,94.77 L 117.80,94.70 L 116.43,94.50 L 115.83,94.39 M 63.86,81.25 L 63.83,80.64 L 63.78,79.86 L 63.75,79.54 L 63.68,79.34 L 63.64,79.31 L 63.53,79.67 L 63.29,80.81 L 63.21,81.23 L 62.97,81.87 L 62.83,82.16 L 62.46,82.53 L 62.25,82.69 L 61.71,82.83 L 60.67,82.81 L 60.21,82.74 L 59.54,82.46 L 59.24,82.28 L 58.83,81.63 L 58.66,81.24 L 58.43,80.01 L 58.20,77.31 L 58.14,76.24 L 58.13,74.65 L 58.14,73.93 L 58.32,72.91 L 58.45,72.45 L 58.87,71.82 L 59.84,71.08 L 60.21,70.89 L 61.22,70.53 L 61.77,70.36 L 63.08,70.06 L 64.46,69.77 L 67.77,69.38 L 69.46,69.23 L 72.90,69.15 L 77.48,69.45 L 78.97,69.67 L 81.33,70.43 L 82.40,70.87 L 83.97,72.10 L 84.67,72.77 L 85.50,74.51 L 85.96,77.75 L 85.93,81.50 L 84.50,79.00 L 83.07,76.50 L 83.04,79.27 L 83.03,80.06 L 82.48,81.34 L 82.12,81.93 L 80.87,82.82 L 80.16,83.21 L 78.21,83.70 L 74.50,84.00 L 73.83,84.00 L 72.82,83.90 L 72.37,83.83 L 71.72,83.55 L 71.44,83.38 L 71.07,82.86 L 70.71,81.75 L 70.27,79.50 L 70.14,81.75 L 70.11,82.20 L 69.94,82.86 L 69.83,83.16 L 69.43,83.55 L 69.19,83.72 L 68.49,83.90 L 67.00,84.00 L 66.36,84.00 L 65.44,83.90 L 65.04,83.83 L 64.51,83.51 L 64.29,83.31 L 64.04,82.67 L 63.94,82.31 M 82.09,75.96 L 82.68,75.72 L 83.55,75.31 L 83.94,75.11 L 84.41,74.81 L 84.60,74.68 L 84.71,74.49 L 84.72,74.41 L 84.48,74.34 L 84.31,74.32 L 83.76,74.37 L 83.44,74.41 L 82.59,74.58 L 82.13,74.68 L 81.01,74.98 L 79.06,75.58 L 77.22,76.18 L 73.77,76.73 L 68.20,76.64 L 67.10,76.52 L 65.55,76.39 L 64.87,76.35 L 64.10,76.38 L 63.80,76.42 L 63.74,76.62 L 64.35,77.12 L 64.61,77.27 L 65.53,77.53 L 66.06,77.66 L 67.39,77.87 L 72.10,78.13 L 72.78,78.12 L 73.91,78.12 L 74.44,78.12 L 75.31,78.14 L 76.12,78.18 L 77.10,78.41 L 77.51,78.55 L 77.91,79.06 L 78.15,80.27 L 78.18,80.74 L 78.24,81.30 L 78.27,81.52 L 78.35,81.58 L 78.39,81.55 L 78.49,81.10 L 78.71,79.85 L 78.84,78.95 L 79.75,77.54 L 80.30,76.90 M 92.00,82.75 L 91.20,82.47 L 90.10,81.95 L 89.61,81.68 L 89.00,81.01 L 88.74,80.62 L 88.45,79.52 L 88.19,77.12 L 88.12,76.14 L 88.08,74.81 L 88.08,74.24 L 88.23,73.59 L 88.33,73.34 L 88.73,73.22 L 89.69,73.48 L 91.31,74.14 L 94.89,75.04 L 96.71,75.41 L 100.42,75.73 L 102.26,75.81 L 105.76,75.52 L 110.41,74.39 L 110.73,74.27 L 111.19,74.25 L 111.40,74.28 L 111.68,74.61 L 111.80,74.82 L 111.93,75.57 L 112.00,77.23 L 112.00,77.92 L 111.88,78.98 L 111.80,79.47 L 111.47,80.22 L 111.28,80.57 L 110.68,81.13 L 109.40,81.87 L 108.90,82.09 L 107.66,82.49 L 107.01,82.67 L 105.55,82.97 L 104.04,83.25 L 100.68,83.52 L 99.00,83.61 L 95.82,83.47 L 95.07,83.41 L 93.72,83.20 L 93.07,83.08 M 89.50,71.96 L 88.95,71.68 L 88.10,71.23 L 87.73,71.03 L 87.26,70.74 L 87.08,70.61 L 87.04,70.51 L 87.50,70.59 L 88.41,70.88 L 90.02,71.35 L 90.79,71.58 L 92.20,71.95 L 93.56,72.29 L 95.95,72.67 L 97.14,72.83 L 99.60,72.89 L 103.96,72.68 L 105.14,72.59 L 107.02,72.51 L 107.88,72.48 L 109.08,72.51 L 109.59,72.54 L 110.08,72.69 L 109.96,73.05 L 109.61,73.27 L 108.45,73.60 L 107.81,73.74 L 106.19,73.92 L 105.33,74.00 L 103.40,74.05 L 102.40,74.05 L 100.30,73.97 L 98.19,73.86 L 94.13,73.28 L 93.17,73.11 L 91.50,72.69 L 90.72,72.47 M 94.50,71.33 L 93.55,71.12 L 91.73,70.56 L 90.85,70.27 L 89.33,69.61 L 88.63,69.29 L 87.64,68.65 L 87.00,67.82 L 87.00,67.56 L 86.72,67.33 L 86.04,67.48 L 85.83,67.61 L 85.34,67.62 L 85.09,67.60 L 84.55,67.34 L 84.00,67.03 L 82.90,65.81 L 82.37,65.13 L 81.55,63.49 L 81.00,61.00 L 81.00,60.12 L 81.14,58.97 L 81.25,58.50 L 81.67,58.16 L 81.93,58.09 L 82.75,58.53 L 84.52,60.02 L 84.90,60.38 L 85.96,61.11 L 86.52,61.47 L 87.88,62.17 L 89.30,62.87 L 92.71,64.10 L 94.46,64.66 L 98.05,65.47 L 102.98,66.00 L 103.93,66.00 L 105.36,66.07 L 106.01,66.13 L 106.91,66.32 L 107.30,66.44 L 107.75,66.79 L 108.00,67.50 L 108.00,67.91 L 108.31,68.56 L 109.04,69.00 L 109.33,69.00 L 109.69,68.53 L 109.79,67.38 L 109.71,66.92 L 110.22,65.99 L 111.75,64.92 L 112.24,64.73 L 112.92,64.56 L 113.23,64.50 L 113.61,64.64 L 113.77,64.75 L 113.92,65.26 L 114.00,66.50 L 114.00,67.18 L 113.64,68.28 L 113.39,68.79 L 112.43,69.61 L 111.87,69.99 L 110.20,70.61 L 106.75,71.41 L 105.92,71.56 L 104.76,71.71 L 104.25,71.75 L 103.63,71.64 L 103.37,71.54 L 103.12,71.11 L 103.00,70.05 L 103.00,69.48 L 102.71,68.60 L 102.00,68.00 L 101.72,68.00 L 101.29,68.59 L 101.00,70.00 L 101.00,70.51 L 100.65,71.21 L 100.42,71.51 L 99.54,71.82 L 99.02,71.92 L 97.53,71.85 L 96.69,71.76 M 98.34,63.94 L 96.98,63.77 L 94.51,63.27 L 93.32,63.00 L 91.17,62.31 L 90.14,61.95 L 88.33,61.08 L 87.47,60.63 L 86.00,59.60 L 85.31,59.06 L 84.20,57.87 L 83.70,57.26 L 82.96,55.92 L 82.64,55.23 L 82.28,53.74 L 82.18,51.37 L 82.25,50.59 L 82.47,49.38 L 82.60,48.83 L 83.02,47.97 L 83.27,47.58 L 83.99,46.92 L 85.50,46.01 L 85.97,45.78 L 87.30,45.39 L 88.02,45.22 L 89.75,44.96 L 91.56,44.73 L 95.84,44.62 L 98.01,44.63 L 102.26,45.01 L 103.27,45.13 L 105.12,45.47 L 107.50,46.11 L 108.48,46.45 L 109.78,47.00 L 110.34,47.28 L 111.00,48.00 L 111.28,48.42 L 111.55,49.70 L 111.61,50.07 L 111.69,50.99 L 111.80,52.66 L 111.84,53.29 L 111.89,54.33 L 111.91,54.82 L 111.91,55.61 L 111.89,56.35 L 111.62,57.26 L 111.43,57.66 L 110.67,58.15 L 108.80,58.82 L 107.32,59.27 L 104.62,59.91 L 103.30,60.19 L 100.80,60.48 L 99.56,60.58 L 97.08,60.54 L 93.19,60.13 L 92.38,60.00 L 91.07,59.84 L 90.46,59.78 L 89.58,59.76 L 89.19,59.77 L 88.80,59.88 L 88.80,60.20 L 88.99,60.39 L 89.76,60.74 L 90.20,60.90 L 91.36,61.17 L 91.99,61.30 L 93.46,61.49 L 94.22,61.58 L 95.89,61.69 L 97.59,61.78 L 101.17,61.68 L 106.01,61.09 L 107.12,60.85 L 108.78,60.57 L 109.53,60.46 L 110.63,60.43 L 111.13,60.45 L 111.87,60.70 L 112.82,61.39 L 113.13,61.70 L 113.44,62.18 L 113.54,62.40 L 113.34,62.77 L 113.17,62.95 L 112.37,63.30 L 110.38,63.91 L 109.31,64.21 L 107.35,64.64 L 106.90,64.72 L 106.19,64.83 L 105.50,64.87 L 105.36,64.85 L 104.63,64.76 L 104.19,64.70 L 102.98,64.55 L 101.68,64.38 Z" fill="#af8666"/>
</g>
</svg>