<svg xmlns="http://www.w3.org/2000/svg" width="196" height="196" viewBox="0 0 196 196">
<g>
<path d="M 87.50,153.65 L 86.71,153.46 L 84.97,152.90 L 84.07,152.59 L 82.16,151.85 L 80.21,151.07 L 76.08,149.08 L 74.01,148.04 L 70.00,145.73 L 64.68,142.15 L 63.75,141.45 L 61.79,139.76 L 60.80,138.87 L 58.76,136.87 L 56.71,134.80 L 52.63,130.05 L 50.63,127.62 L 47.04,122.62 L 46.20,121.38 L 44.69,118.96 L 42.77,115.50 L 42.49,114.95 L 41.85,113.59 L 41.53,112.88 L 40.81,111.23 L 40.08,109.53 L 38.49,105.53 L 37.69,103.47 L 36.09,99.14 L 33.91,92.80 L 33.52,91.60 L 32.80,89.41 L 32.45,88.35 L 31.80,86.42 L 31.18,84.55 L 30.11,81.52 L 29.60,80.10 L 28.70,77.87 L 28.26,76.83 L 27.46,75.25 L 27.06,74.52 L 26.27,73.45 L 25.86,72.96 L 25.00,72.24 L 24.55,71.92 L 23.54,71.42 L 21.77,70.75 L 17.50,69.32 L 21.50,67.29 L 22.05,67.01 L 23.57,66.45 L 24.37,66.18 L 26.23,65.66 L 32.00,64.58 L 33.24,64.45 L 35.36,64.08 L 36.37,63.88 L 38.20,63.32 L 39.10,63.01 L 40.84,62.17 L 43.60,60.54 L 45.39,59.36 L 48.80,57.28 L 50.48,56.28 L 53.70,54.57 L 55.29,53.75 L 58.38,52.38 L 59.92,51.73 L 62.95,50.67 L 64.47,50.18 L 67.51,49.42 L 69.03,49.08 L 72.13,48.60 L 73.70,48.40 L 76.93,48.18 L 82.00,48.11 L 83.06,48.13 L 84.87,48.15 L 85.73,48.16 L 87.22,48.14 L 88.64,48.10 L 90.83,47.84 L 91.88,47.67 L 93.78,47.06 L 97.00,45.66 L 98.51,44.94 L 101.40,43.79 L 102.06,43.55 L 103.14,43.22 L 104.25,43.01 L 104.73,43.01 L 105.40,43.25 L 105.68,43.41 L 105.94,43.88 L 106.02,44.13 L 105.83,44.69 L 105.00,45.50 L 104.82,45.61 L 104.53,46.12 L 104.41,46.42 L 104.22,47.26 L 104.07,48.17 L 104.05,50.69 L 104.09,52.03 L 104.46,55.04 L 105.42,59.53 L 105.62,60.22 L 106.26,62.29 L 106.62,63.41 L 107.50,66.11 L 110.49,74.95 L 111.43,77.65 L 113.05,82.95 L 113.82,85.57 L 115.09,90.67 L 115.68,93.19 L 116.60,98.04 L 117.02,100.43 L 117.57,104.99 L 117.81,107.22 L 118.00,111.43 L 118.05,113.49 L 117.87,117.30 L 117.73,119.15 L 117.18,122.52 L 115.91,127.00 L 115.54,127.99 L 114.64,130.14 L 114.17,131.24 L 113.12,133.53 L 112.04,135.84 L 109.65,140.46 L 109.06,141.58 L 107.87,143.71 L 107.28,144.74 L 106.15,146.61 L 105.60,147.50 L 104.59,149.01 L 103.25,150.78 L 102.42,151.74 L 100.44,153.11 L 99.39,153.71 L 96.93,154.36 L 95.63,154.60 L 92.64,154.54 L 91.07,154.42 M 94.80,138.60 L 95.70,138.13 L 97.38,136.92 L 98.20,136.26 L 99.74,134.64 L 100.51,133.77 L 101.97,131.69 L 104.12,128.00 L 104.61,127.07 L 105.31,125.34 L 105.63,124.45 L 106.06,122.50 L 106.24,121.45 L 106.46,118.84 L 106.50,118.13 L 106.57,116.51 L 106.64,113.72 L 106.66,112.56 L 106.70,110.64 L 106.73,109.73 L 106.79,108.24 L 106.83,107.55 L 106.94,106.43 L 107.00,105.90 L 107.16,105.07 L 107.34,104.29 L 107.96,103.26 L 109.40,101.90 L 110.08,101.36 L 111.03,100.07 L 111.43,99.40 L 111.86,97.92 L 112.01,97.17 L 111.97,95.62 L 111.89,94.85 L 111.42,93.34 L 111.14,92.61 L 110.29,91.27 L 109.82,90.63 L 108.64,89.57 L 108.01,89.09 L 106.54,88.42 L 104.05,88.00 L 103.20,88.00 L 101.71,88.36 L 101.00,88.59 L 99.80,89.35 L 99.24,89.77 L 98.36,90.85 L 97.96,91.42 L 97.42,92.74 L 97.20,93.43 L 97.02,94.91 L 96.99,95.66 L 97.21,97.22 L 97.38,98.01 L 98.02,99.57 L 99.50,101.81 L 101.99,104.78 L 99.21,110.14 L 98.55,111.41 L 97.02,113.66 L 96.22,114.74 L 94.43,116.59 L 93.51,117.47 L 91.52,118.92 L 90.50,119.58 L 88.34,120.60 L 87.24,121.05 L 84.96,121.62 L 83.81,121.85 L 81.44,121.96 L 80.25,121.95 L 77.84,121.58 L 74.23,120.45 L 72.79,119.85 L 70.53,118.58 L 69.50,117.92 L 68.04,116.54 L 67.41,115.83 L 66.76,114.33 L 66.66,111.94 L 66.77,111.40 L 66.81,110.47 L 66.79,110.02 L 66.56,109.18 L 66.40,108.77 L 65.86,107.93 L 64.66,106.57 L 63.87,105.78 L 62.22,104.77 L 61.38,104.36 L 59.68,104.11 L 58.83,104.08 L 57.12,104.61 L 54.59,106.25 L 53.84,106.92 L 52.74,108.31 L 52.25,109.01 L 51.66,110.41 L 51.42,111.10 L 51.31,112.45 L 51.31,113.11 L 51.66,114.33 L 51.89,114.92 L 52.67,115.97 L 53.11,116.46 L 54.31,117.27 L 54.95,117.63 L 56.53,118.12 L 59.31,118.45 L 60.43,118.46 L 62.01,118.60 L 62.73,118.73 L 63.93,119.42 L 64.23,119.65 L 64.86,120.28 L 65.19,120.63 L 65.93,121.55 L 66.32,122.05 L 67.23,123.30 L 68.88,125.63 L 69.88,127.06 L 72.00,129.63 L 73.07,130.86 L 75.29,133.01 L 76.41,134.03 L 78.69,135.75 L 79.83,136.56 L 82.12,137.82 L 83.27,138.39 L 85.52,139.17 L 86.64,139.50 L 88.81,139.77 L 89.88,139.84 L 91.93,139.59 L 92.93,139.40 M 57.08,89.98 L 58.30,89.65 L 61.43,89.35 L 65.88,89.50 L 66.50,89.60 L 67.52,89.73 L 67.99,89.79 L 68.68,89.82 L 68.99,89.82 L 69.36,89.70 L 69.50,89.61 L 69.54,89.30 L 69.52,89.12 L 69.22,88.58 L 69.03,88.28 L 68.39,87.47 L 68.03,87.02 L 67.04,85.89 L 65.17,83.81 L 64.43,82.99 L 63.53,81.33 L 63.37,80.93 L 63.20,80.18 L 63.24,79.20 L 63.40,78.60 L 63.34,77.37 L 63.25,76.77 L 62.79,75.70 L 62.53,75.20 L 61.77,74.47 L 60.43,74.00 L 60.02,74.00 L 59.05,74.75 L 57.80,76.54 L 57.45,77.31 L 56.58,78.24 L 55.24,78.54 L 52.49,78.00 L 52.11,78.00 L 51.35,77.44 L 50.53,76.09 L 50.32,75.43 L 49.59,74.46 L 49.18,74.04 L 48.19,73.59 L 47.68,73.44 L 46.61,73.57 L 45.11,74.46 L 44.76,74.81 L 44.34,75.38 L 44.17,75.66 L 44.11,76.25 L 44.13,76.56 L 44.45,77.37 L 45.37,79.05 L 45.72,79.64 L 46.18,80.59 L 46.38,81.03 L 46.55,81.75 L 46.60,82.09 L 46.48,82.68 L 46.00,83.50 L 45.55,84.04 L 44.70,84.37 L 44.47,84.40 L 43.96,84.26 L 43.05,83.80 L 42.47,83.44 L 41.44,83.09 L 40.95,82.97 L 40.10,83.05 L 39.70,83.13 L 39.08,83.54 L 38.79,83.78 L 38.42,84.45 L 38.27,84.81 L 38.18,85.66 L 38.18,86.09 L 38.42,87.03 L 38.58,87.51 L 39.17,88.46 L 40.50,89.82 L 41.24,90.41 L 42.31,91.94 L 43.00,94.31 L 43.00,95.02 L 43.05,96.18 L 43.09,96.72 L 43.22,97.55 L 43.31,97.93 L 43.55,98.42 L 43.69,98.63 L 44.06,98.80 L 44.26,98.85 L 44.77,98.70 L 45.05,98.58 L 45.73,98.12 L 46.10,97.85 L 46.97,97.07 L 48.50,95.55 L 49.91,94.10 L 52.79,91.96 L 53.51,91.49 L 54.95,90.76 L 55.66,90.43 M 91.44,81.10 L 92.15,80.44 L 94.10,79.35 L 95.13,78.86 L 97.44,78.17 L 98.60,77.88 L 100.92,77.68 L 104.02,78.01 L 104.87,78.25 L 106.03,78.33 L 106.52,78.30 L 106.95,77.82 L 107.07,77.51 L 106.77,76.48 L 105.50,74.30 L 105.08,73.71 L 104.51,72.10 L 104.25,69.83 L 104.30,69.30 L 104.27,68.59 L 104.22,68.28 L 103.86,67.91 L 103.62,67.77 L 102.78,67.67 L 100.81,67.71 L 99.94,67.76 L 98.76,67.75 L 98.25,67.72 L 97.62,67.42 L 97.35,67.22 L 97.07,66.49 L 96.81,64.71 L 96.75,64.10 L 96.56,63.18 L 96.45,62.76 L 96.14,62.19 L 95.96,61.94 L 95.47,61.66 L 94.50,61.50 L 94.13,61.50 L 93.54,61.66 L 93.28,61.76 L 92.87,62.17 L 92.69,62.40 L 92.43,63.09 L 92.17,64.50 L 92.07,65.45 L 91.70,66.91 L 91.48,67.56 L 90.93,68.37 L 90.63,68.70 L 89.94,68.83 L 88.80,68.20 L 88.43,67.83 L 87.47,67.36 L 86.98,67.17 L 85.92,67.04 L 85.40,67.02 L 84.48,67.25 L 83.50,68.01 L 83.41,68.15 L 83.41,68.62 L 83.44,68.88 L 83.63,69.53 L 84.84,71.78 L 85.49,72.68 L 86.18,74.53 L 86.29,77.28 L 86.17,77.88 L 86.27,79.19 L 86.36,79.84 L 86.80,81.05 L 87.05,81.61 L 87.70,82.45 L 88.81,83.00 L 88.96,83.00 L 89.81,82.44 L 90.29,82.10 M 114.20,147.75 L 113.78,147.24 L 113.66,146.27 L 113.70,145.80 L 114.36,145.06 L 114.76,144.73 L 115.98,144.39 L 118.19,144.51 L 119.13,144.75 L 121.04,144.65 L 122.02,144.50 L 124.10,143.58 L 125.18,143.01 L 127.56,141.21 L 128.18,140.70 L 129.49,139.51 L 131.59,137.45 L 132.61,136.41 L 134.19,134.63 L 134.90,133.78 L 135.96,132.26 L 136.42,131.52 L 137.05,130.12 L 137.62,127.96 L 137.77,127.03 L 138.06,125.77 L 138.21,125.23 L 138.67,124.58 L 138.94,124.32 L 139.78,124.10 L 141.69,124.00 L 142.53,124.00 L 144.05,123.80 L 144.78,123.66 L 146.11,123.20 L 146.75,122.94 L 147.88,122.21 L 148.42,121.82 L 149.34,120.85 L 149.78,120.33 L 150.49,119.11 L 150.83,118.47 L 151.33,117.02 L 151.55,116.26 L 151.83,114.57 L 152.00,111.78 L 152.00,110.80 L 152.10,109.41 L 152.18,108.77 L 152.55,107.86 L 152.79,107.44 L 153.58,106.73 L 155.41,105.62 L 156.26,105.16 L 157.96,104.00 L 158.80,103.39 L 160.41,102.00 L 161.99,100.57 L 164.58,97.45 L 165.16,96.68 L 166.07,95.21 L 166.48,94.50 L 167.00,93.20 L 167.21,92.59 L 167.27,91.58 L 166.75,90.50 L 166.40,90.22 L 165.87,89.36 L 165.50,88.02 L 165.50,87.79 L 165.30,87.38 L 165.16,87.19 L 164.71,86.87 L 162.51,86.31 L 161.53,86.24 L 159.73,85.83 L 158.87,85.58 L 157.35,84.85 L 156.63,84.45 L 155.45,83.44 L 154.12,81.64 L 153.96,81.32 L 153.66,80.40 L 153.53,79.90 L 153.30,78.71 L 153.08,77.48 L 152.86,74.63 L 152.79,73.21 L 152.87,70.59 L 152.92,69.98 L 153.07,68.96 L 153.40,67.79 L 153.49,67.60 L 153.45,67.13 L 153.39,66.88 L 153.08,66.33 L 152.70,65.75 L 151.23,64.41 L 150.40,63.72 L 148.20,62.23 L 147.02,61.48 L 144.29,59.95 L 142.89,59.19 L 139.85,57.75 L 138.31,57.05 L 135.18,55.80 L 133.63,55.21 L 130.63,54.28 L 126.50,53.36 L 125.40,53.19 L 122.99,52.51 L 122.41,52.32 L 121.39,51.92 L 120.16,51.30 L 119.52,50.90 L 118.45,50.37 L 118.22,50.26 L 117.88,50.16 L 117.61,50.17 L 117.57,50.22 L 117.30,50.83 L 117.13,51.21 L 116.63,52.38 L 116.35,53.02 L 115.69,54.60 L 114.58,57.24 L 114.23,58.08 L 113.58,59.50 L 113.27,60.17 L 112.69,61.24 L 112.41,61.73 L 111.90,62.45 L 111.66,62.76 L 111.24,63.12 L 111.04,63.26 L 110.71,63.25 L 110.56,63.20 L 110.32,62.83 L 110.22,62.60 L 110.08,61.85 L 110.00,60.32 L 110.00,59.99 L 110.25,58.95 L 110.42,58.38 L 110.94,56.98 L 111.51,55.51 L 113.10,52.18 L 113.51,51.36 L 114.34,49.84 L 114.74,49.11 L 115.51,47.87 L 115.88,47.30 L 116.50,46.51 L 117.19,46.00 L 117.29,46.00 L 117.75,46.19 L 118.02,46.32 L 118.75,46.72 L 121.51,48.44 L 122.00,48.78 L 123.32,49.47 L 124.02,49.82 L 125.61,50.49 L 130.42,51.98 L 132.37,52.39 L 136.66,53.85 L 138.86,54.68 L 143.50,56.92 L 145.85,58.13 L 150.66,61.06 L 157.83,66.10 L 159.30,67.23 L 161.79,69.12 L 162.96,70.01 L 164.93,71.46 L 165.85,72.13 L 167.40,73.20 L 168.13,73.69 L 169.35,74.44 L 169.94,74.77 L 170.94,75.25 L 171.43,75.46 L 172.31,75.72 L 175.00,76.01 L 175.91,76.02 L 177.39,76.02 L 178.06,76.05 L 179.03,76.31 L 179.43,76.49 L 179.81,77.27 L 179.86,77.51 L 179.85,78.14 L 179.82,78.48 L 179.64,79.34 L 179.52,79.79 L 179.16,80.91 L 178.96,81.50 L 178.41,82.91 L 178.11,83.65 L 177.36,85.39 L 176.97,86.30 L 176.02,88.40 L 175.52,89.50 L 174.35,92.00 L 173.74,93.30 L 172.36,96.23 L 171.64,97.75 L 170.03,101.15 L 167.34,106.81 L 163.87,114.11 L 167.41,118.03 L 168.18,118.89 L 169.43,120.49 L 170.01,121.28 L 170.86,122.78 L 171.24,123.52 L 171.70,124.94 L 171.87,125.65 L 171.93,127.03 L 171.91,127.73 L 171.56,129.11 L 171.34,129.81 L 170.59,131.23 L 170.16,131.95 L 169.01,133.45 L 166.83,135.82 L 166.39,136.25 L 165.28,137.16 L 164.70,137.62 L 163.36,138.55 L 161.98,139.48 L 158.89,141.20 L 157.36,142.01 L 154.50,143.21 L 153.83,143.46 L 152.67,143.79 L 151.26,144.00 L 151.17,144.00 L 151.28,143.70 L 151.38,143.51 L 151.84,142.90 L 152.10,142.56 L 152.82,141.71 L 154.15,140.25 L 154.71,139.67 L 155.64,138.63 L 156.07,138.13 L 156.78,137.23 L 157.44,136.35 L 158.16,134.83 L 158.44,134.09 L 158.47,132.59 L 157.86,130.03 L 157.53,129.08 L 156.81,127.89 L 156.43,127.41 L 155.58,127.15 L 155.13,127.14 L 154.09,127.81 L 152.26,129.86 L 151.29,131.18 L 148.56,133.86 L 147.09,135.19 L 143.60,137.80 L 141.80,139.08 L 137.88,141.46 L 135.89,142.61 L 131.85,144.61 L 129.84,145.56 L 126.00,147.04 L 124.13,147.71 L 120.79,148.52 L 120.00,148.68 L 118.57,148.84 L 117.89,148.89 L 116.70,148.83 L 116.14,148.77 L 115.22,148.48 L 114.80,148.30 M 164.90,132.47 L 165.75,131.49 L 167.09,129.27 L 167.37,128.73 L 167.76,127.75 L 168.00,126.54 L 168.00,126.25 L 167.81,125.50 L 167.69,125.11 L 167.29,124.22 L 166.86,123.31 L 165.61,121.39 L 164.96,120.47 L 163.62,119.01 L 163.30,118.70 L 162.72,118.27 L 161.99,118.00 L 161.88,118.00 L 161.50,118.27 L 161.29,118.45 L 160.78,119.01 L 159.03,121.45 L 158.53,122.26 L 157.89,123.42 L 157.63,123.95 L 157.45,124.76 L 157.42,125.16 L 157.67,125.93 L 158.51,127.38 L 158.96,128.06 L 159.68,130.02 L 160.22,132.92 L 160.24,133.91 L 160.46,135.13 L 160.53,135.37 L 160.74,135.65 L 160.86,135.77 L 161.17,135.80 L 161.34,135.78 L 161.77,135.55 L 162.01,135.41 L 162.58,134.92 L 162.88,134.64 L 163.61,133.89 L 163.99,133.48 M 38.14,130.91 L 36.55,130.12 L 33.47,127.96 L 31.97,126.82 L 29.31,124.22 L 28.07,122.89 L 26.12,120.15 L 25.70,119.47 L 25.03,118.14 L 24.34,116.23 L 24.16,115.49 L 24.23,113.54 L 24.33,112.52 L 24.89,110.27 L 25.22,109.13 L 26.18,106.92 L 27.94,104.01 L 29.87,101.52 L 30.93,104.51 L 31.07,104.92 L 31.58,106.12 L 31.86,106.76 L 32.56,108.28 L 34.99,113.13 L 35.35,113.80 L 35.94,114.92 L 36.21,115.45 L 36.64,116.35 L 37.03,117.19 L 37.36,118.45 L 37.47,119.05 L 37.29,120.17 L 36.54,122.24 L 36.20,123.06 L 35.79,124.22 L 35.63,124.74 L 35.62,125.52 L 35.67,125.88 L 36.11,126.55 L 37.29,127.75 L 37.60,128.03 L 38.47,128.70 L 38.93,129.04 L 40.03,129.78 L 43.50,131.84 L 44.05,132.13 L 44.93,132.65 L 45.33,132.90 L 45.86,133.32 L 46.08,133.51 L 46.21,133.78 L 45.91,133.96 L 45.69,133.96 L 44.80,133.73 L 44.30,133.58 L 42.97,133.08 L 41.56,132.53 M 128.00,130.93 L 128.00,130.07 L 127.72,128.36 L 127.54,127.53 L 126.93,125.97 L 126.58,125.23 L 125.69,123.92 L 124.09,122.37 L 123.79,122.16 L 123.36,121.57 L 123.16,121.24 L 122.92,120.36 L 122.83,119.87 L 122.76,118.58 L 122.85,116.08 L 122.93,114.90 L 123.10,113.29 L 123.19,112.60 L 123.48,111.83 L 123.65,111.52 L 124.17,111.36 L 125.35,111.57 L 126.33,111.86 L 128.22,113.04 L 129.14,113.71 L 130.77,115.47 L 131.53,116.40 L 132.69,118.49 L 133.69,121.75 L 133.80,122.52 L 133.84,123.89 L 133.83,124.55 L 133.63,125.81 L 133.49,126.44 L 133.01,127.75 L 131.93,129.90 L 131.59,130.51 L 130.98,131.52 L 130.68,131.99 L 130.16,132.71 L 129.91,133.04 L 129.48,133.47 L 129.28,133.66 L 128.94,133.81 L 128.78,133.85 L 128.52,133.73 L 128.40,133.63 L 128.23,133.22 L 128.15,132.98 L 128.06,132.29 L 128.02,131.91 M 141.57,116.43 L 141.14,116.00 L 140.46,115.06 L 140.00,113.96 L 140.00,113.81 L 140.26,113.27 L 140.43,112.96 L 140.95,112.20 L 141.53,111.39 L 143.14,109.52 L 143.96,108.60 L 145.53,107.07 L 145.89,106.75 L 146.48,106.29 L 147.10,106.00 L 147.23,106.00 L 147.45,106.32 L 147.56,106.53 L 147.74,107.19 L 148.00,110.07 L 148.00,110.94 L 147.87,112.50 L 147.78,113.24 L 147.49,114.52 L 147.33,115.12 L 146.90,116.09 L 146.66,116.54 L 146.11,117.20 L 145.82,117.49 L 145.16,117.82 L 144.81,117.94 L 144.06,117.91 L 143.68,117.85 L 142.86,117.46 L 142.44,117.21 M 146.82,101.07 L 145.84,100.30 L 144.36,98.41 L 143.70,97.42 L 142.88,95.15 L 142.55,93.98 L 142.42,91.44 L 143.02,87.43 L 143.33,86.33 L 144.00,84.84 L 144.34,84.21 L 144.97,83.70 L 145.12,83.64 L 145.38,83.71 L 145.51,83.78 L 145.71,84.12 L 145.80,84.32 L 145.92,84.94 L 146.00,86.18 L 146.00,86.46 L 146.32,87.29 L 146.52,87.74 L 147.18,88.81 L 150.01,92.25 L 150.95,93.18 L 152.33,94.44 L 152.97,94.98 L 154.09,95.58 L 154.65,95.81 L 155.93,95.93 L 158.48,95.76 L 159.51,95.64 L 160.88,95.53 L 161.47,95.50 L 162.10,95.62 L 162.33,95.71 L 162.36,96.12 L 161.93,97.13 L 161.59,97.76 L 160.68,98.88 L 160.18,99.42 L 159.01,100.34 L 158.40,100.77 L 157.06,101.46 L 156.37,101.78 L 154.92,102.22 L 154.19,102.41 L 152.71,102.59 L 151.98,102.65 L 150.55,102.55 L 149.85,102.46 L 148.55,102.05 L 147.92,101.81 M 151.59,87.92 L 150.80,86.98 L 149.70,84.83 L 149.00,81.71 L 149.00,80.93 L 149.04,79.98 L 149.07,79.61 L 149.29,79.54 L 149.36,79.58 L 149.55,79.84 L 149.66,80.01 L 149.95,80.52 L 150.11,80.81 L 150.51,81.58 L 151.25,83.04 L 151.66,83.84 L 152.46,85.15 L 152.87,85.76 L 153.72,86.72 L 154.15,87.15 L 155.10,87.81 L 156.70,88.53 L 157.29,88.73 L 158.26,89.08 L 158.72,89.25 L 159.42,89.56 L 159.74,89.71 L 160.17,89.98 L 160.36,90.11 L 160.52,90.34 L 160.56,90.44 L 160.45,90.62 L 160.35,90.70 L 159.96,90.83 L 159.73,90.88 L 159.07,90.96 L 157.76,91.00 L 157.06,91.00 L 155.91,90.85 L 155.35,90.75 L 154.39,90.35 L 153.91,90.12 L 153.01,89.41 L 152.55,89.01 M 116.61,81.59 L 116.45,80.93 L 115.99,79.38 L 115.34,77.46 L 115.20,77.07 L 115.13,76.56 L 115.15,76.34 L 115.55,76.13 L 115.83,76.05 L 116.86,76.10 L 119.29,76.42 L 120.12,76.54 L 121.58,76.65 L 122.28,76.68 L 123.54,76.59 L 126.95,75.53 L 127.48,75.25 L 128.32,74.90 L 128.70,74.75 L 129.26,74.63 L 129.50,74.60 L 129.77,74.72 L 129.87,74.81 L 129.85,75.15 L 129.81,75.35 L 129.52,75.91 L 129.33,76.21 L 128.76,76.98 L 128.44,77.38 L 127.59,78.35 L 126.00,80.00 L 125.41,80.59 L 124.29,81.57 L 123.73,82.03 L 122.68,82.75 L 122.17,83.09 L 121.21,83.55 L 120.75,83.75 L 119.90,83.96 L 119.49,84.03 L 118.76,83.97 L 118.41,83.91 L 117.82,83.58 L 117.54,83.38 L 117.09,82.79 L 116.89,82.46 M 115.50,70.00 L 114.99,69.44 L 114.47,68.71 L 114.31,68.41 L 114.61,68.15 L 114.74,68.12 L 115.19,68.13 L 115.45,68.15 L 116.17,68.26 L 116.56,68.33 L 117.57,68.54 L 119.43,68.96 L 120.83,69.28 L 123.38,69.34 L 127.39,68.48 L 128.01,68.26 L 129.05,67.93 L 129.53,67.79 L 130.29,67.59 L 130.64,67.51 L 131.14,67.45 L 131.35,67.43 L 131.58,67.51 L 131.66,67.57 L 131.62,67.78 L 131.57,67.91 L 131.27,68.27 L 131.09,68.46 L 130.54,68.97 L 129.42,69.89 L 128.96,70.25 L 127.88,70.83 L 127.31,71.10 L 126.06,71.51 L 124.78,71.88 L 122.05,72.08 L 120.70,72.09 L 118.24,71.58 L 117.67,71.40 L 116.68,70.92 L 116.22,70.66 Z" fill="#af8666"/>
</g>
</svg>