<svg xmlns="http://www.w3.org/2000/svg" width="196" height="196" viewBox="0 0 196 196">
<g>
<path d="M 142.00,168.72 L 140.97,167.80 L 139.26,166.09 L 138.46,165.24 L 137.21,163.65 L 136.64,162.87 L 135.85,161.37 L 135.50,160.63 L 135.16,159.20 L 135.04,158.50 L 135.14,157.11 L 135.25,156.42 L 135.79,155.04 L 136.11,154.36 L 137.09,152.97 L 139.04,150.85 L 139.71,150.21 L 140.97,149.18 L 141.59,148.70 L 142.79,147.98 L 143.39,147.65 L 144.56,147.24 L 145.14,147.07 L 146.32,146.97 L 146.91,146.96 L 148.13,147.17 L 148.74,147.31 L 150.04,147.83 L 150.69,148.13 L 152.09,148.96 L 154.36,150.55 L 155.63,151.52 L 157.64,153.46 L 158.06,153.91 L 158.63,154.67 L 159.00,155.49 L 159.00,155.92 L 158.67,156.68 L 158.47,157.04 L 157.89,157.53 L 157.59,157.73 L 156.95,157.82 L 156.14,157.38 L 155.93,157.09 L 155.30,156.40 L 154.95,156.04 L 154.10,155.25 L 153.22,154.45 L 151.15,152.83 L 150.12,152.05 L 148.26,150.83 L 147.83,150.57 L 147.13,150.22 L 146.39,150.00 L 146.11,150.00 L 145.42,150.24 L 145.06,150.40 L 144.28,150.90 L 143.48,151.45 L 141.84,153.06 L 141.06,153.90 L 139.84,155.68 L 139.58,156.11 L 139.22,156.90 L 139.00,157.95 L 139.00,158.23 L 139.32,159.11 L 139.53,159.59 L 140.20,160.73 L 143.09,164.48 L 143.65,165.09 L 144.62,166.28 L 145.08,166.86 L 145.78,167.92 L 146.09,168.41 L 146.46,169.20 L 146.53,169.96 L 146.30,170.33 L 145.83,170.74 L 145.58,170.89 L 144.98,170.84 L 144.65,170.75 L 143.77,170.18 L 143.29,169.83 M 47.15,161.40 L 46.26,160.59 L 44.73,159.16 L 44.01,158.47 L 42.79,157.24 L 42.22,156.65 L 41.30,155.62 L 40.88,155.12 L 40.25,154.25 L 39.97,153.83 L 39.61,153.10 L 39.46,152.75 L 39.35,152.15 L 39.92,150.68 L 40.12,150.48 L 40.86,150.59 L 41.29,150.74 L 42.57,151.61 L 42.93,151.88 L 43.77,152.57 L 44.21,152.95 L 45.22,153.86 L 45.75,154.34 L 46.94,155.48 L 48.96,157.46 L 50.05,158.55 L 52.00,160.59 L 52.93,161.58 L 54.42,163.28 L 55.09,164.07 L 55.96,165.23 L 56.13,165.48 L 56.33,165.85 L 56.39,166.18 L 56.12,166.61 L 55.33,166.93 L 54.88,166.98 L 53.60,166.47 L 53.24,166.28 L 52.41,165.74 L 51.97,165.45 L 50.96,164.67 L 50.43,164.25 L 49.22,163.23 L 48.58,162.68 M 147.22,165.75 L 147.03,165.53 L 147.06,164.85 L 147.13,164.49 L 147.56,163.60 L 148.08,162.69 L 149.86,160.71 L 150.80,159.78 L 152.74,158.46 L 153.19,158.21 L 153.96,158.00 L 154.81,158.21 L 155.01,158.41 L 155.16,158.93 L 155.19,159.21 L 154.98,159.93 L 154.83,160.32 L 154.23,161.31 L 152.87,163.16 L 152.46,163.68 L 151.75,164.54 L 151.41,164.94 L 150.83,165.58 L 150.26,166.17 L 149.41,166.73 L 149.00,166.92 L 148.30,166.74 L 147.96,166.57 M 55.57,161.12 L 55.49,160.98 L 55.49,160.47 L 55.52,160.18 L 55.73,159.44 L 56.97,156.81 L 57.58,155.82 L 58.37,153.99 L 58.69,153.10 L 58.91,151.50 L 58.95,150.72 L 58.60,149.35 L 57.43,147.57 L 56.86,147.00 L 55.66,146.36 L 55.04,146.12 L 53.71,146.13 L 53.03,146.21 L 51.52,146.89 L 49.01,148.65 L 48.30,149.24 L 47.27,150.02 L 46.81,150.35 L 46.12,150.62 L 45.80,150.69 L 45.24,150.50 L 44.31,149.74 L 43.96,149.39 L 43.60,148.82 L 43.49,148.53 L 43.69,147.94 L 43.87,147.63 L 44.76,146.82 L 46.98,145.13 L 47.71,144.60 L 48.98,143.73 L 49.59,143.32 L 50.67,142.67 L 51.71,142.08 L 53.44,141.54 L 54.28,141.36 L 55.93,141.58 L 58.77,142.68 L 59.50,143.04 L 60.63,143.74 L 61.15,144.11 L 61.93,144.92 L 62.29,145.35 L 62.82,146.39 L 63.45,148.36 L 63.66,149.18 L 63.86,150.52 L 63.92,151.16 L 63.79,152.35 L 63.68,152.96 L 63.18,154.32 L 61.95,156.85 L 61.36,157.97 L 60.13,159.70 L 59.52,160.47 L 58.35,161.44 L 57.78,161.82 L 56.77,161.95 L 56.30,161.90 M 132.43,150.89 L 132.34,150.74 L 132.45,150.18 L 132.55,149.86 L 133.01,149.05 L 133.28,148.62 L 134.01,147.66 L 135.36,146.18 L 136.07,145.47 L 137.17,144.47 L 137.68,144.04 L 138.47,143.56 L 138.84,143.38 L 139.42,143.36 L 140.18,143.78 L 140.42,144.02 L 140.62,144.53 L 140.67,144.81 L 140.45,145.47 L 140.28,145.83 L 139.60,146.74 L 138.00,148.50 L 137.09,149.44 L 135.75,150.70 L 135.14,151.24 L 134.25,151.75 L 133.85,151.93 L 133.24,151.78 L 132.96,151.63 M 61.70,142.65 L 57.91,138.71 L 60.70,135.60 L 61.09,135.18 L 62.34,133.81 L 63.03,133.05 L 64.74,131.21 L 70.51,125.00 L 70.99,124.48 L 72.19,123.19 L 72.83,122.51 L 74.29,120.92 L 75.05,120.10 L 76.72,118.29 L 77.58,117.36 L 79.41,115.37 L 90.94,102.75 L 92.78,100.72 L 96.20,97.02 L 97.02,96.14 L 98.55,94.52 L 99.29,93.73 L 100.62,92.33 L 101.26,91.66 L 102.37,90.53 L 102.89,90.00 L 103.73,89.16 L 104.12,88.79 L 104.65,88.30 L 105.07,88.00 L 105.16,88.00 L 105.50,88.36 L 105.69,88.59 L 106.16,89.33 L 106.66,90.14 L 107.82,92.38 L 108.39,93.53 L 109.34,95.72 L 109.54,96.22 L 109.82,97.06 L 110.00,97.93 L 110.00,97.99 L 109.62,98.51 L 109.37,98.83 L 108.54,99.84 L 108.08,100.40 L 106.85,101.83 L 106.20,102.58 L 104.64,104.37 L 103.82,105.30 L 101.99,107.37 L 101.04,108.43 L 98.99,110.73 L 96.89,113.07 L 92.30,118.16 L 89.97,120.73 L 85.26,125.88 L 82.94,128.42 L 78.59,133.12 L 77.55,134.24 L 75.61,136.31 L 74.67,137.32 L 72.98,139.10 L 72.17,139.95 L 70.79,141.37 L 69.13,143.04 L 65.50,146.59 L 61.70,142.65 M 72.49,135.24 L 77.49,129.50 L 72.24,133.84 L 71.64,134.34 L 70.57,135.17 L 70.06,135.56 L 69.17,136.18 L 68.75,136.46 L 68.07,136.86 L 67.76,137.03 L 67.31,137.20 L 67.11,137.26 L 66.91,137.19 L 66.84,137.13 L 66.91,136.82 L 66.99,136.64 L 67.35,136.09 L 68.25,134.98 L 68.42,134.78 L 68.56,134.57 L 68.59,134.50 L 68.47,134.52 L 68.38,134.56 L 68.02,134.81 L 67.25,135.43 L 66.84,135.77 L 66.21,136.23 L 65.92,136.42 L 65.51,136.57 L 65.33,136.62 L 65.12,136.48 L 65.00,135.95 L 65.00,135.44 L 64.75,135.14 L 64.66,135.12 L 64.39,135.28 L 63.82,135.78 L 63.60,136.00 L 63.35,136.44 L 63.26,136.66 L 63.29,137.13 L 63.34,137.38 L 63.66,137.95 L 64.48,138.98 L 64.98,139.53 L 65.95,140.40 L 66.90,140.99 L 66.99,140.99 L 67.53,140.53 L 67.85,140.24 L 68.79,139.29 L 69.30,138.77 L 70.51,137.47 L 71.13,136.78 M 118.97,137.25 L 117.66,135.91 L 114.98,133.14 L 113.65,131.76 L 111.13,129.15 L 109.93,127.89 L 107.88,125.74 L 107.41,125.24 L 106.60,124.39 L 105.64,123.36 L 101.81,119.22 L 103.61,116.36 L 104.26,115.33 L 105.29,113.64 L 105.78,112.86 L 106.60,111.73 L 107.00,111.24 L 107.78,110.72 L 108.18,110.54 L 109.08,110.70 L 109.57,110.87 L 110.77,111.75 L 111.42,112.29 L 113.08,113.97 L 113.53,114.44 L 114.55,115.54 L 115.08,116.12 L 116.28,117.44 L 116.90,118.12 L 118.28,119.66 L 120.61,122.24 L 121.70,123.44 L 123.67,125.61 L 124.62,126.66 L 126.31,128.53 L 127.13,129.43 L 128.57,131.02 L 129.26,131.79 L 130.46,133.14 L 131.03,133.79 L 132.00,134.92 L 132.47,135.46 L 133.23,136.39 L 133.94,137.29 L 134.81,138.61 L 135.15,139.21 L 135.38,140.11 L 135.42,140.53 L 135.13,141.23 L 134.94,141.57 L 134.26,142.27 L 132.93,143.57 L 132.02,144.51 L 130.42,145.99 L 130.06,146.30 L 129.52,146.73 L 129.04,147.00 L 129.00,147.00 L 128.73,146.80 L 128.56,146.67 L 128.06,146.23 L 127.79,145.98 L 127.09,145.33 L 126.72,144.98 L 125.84,144.14 L 124.93,143.25 L 122.70,141.04 L 121.53,139.87 M 132.22,141.57 L 132.62,141.02 L 133.12,140.23 L 133.33,139.88 L 133.43,139.35 L 133.44,139.10 L 133.15,138.65 L 132.28,137.85 L 131.92,137.56 L 131.44,137.20 L 131.23,137.07 L 131.03,137.04 L 130.96,137.07 L 130.99,137.38 L 131.28,138.25 L 131.48,138.79 L 131.50,139.48 L 131.46,139.76 L 131.08,139.95 L 130.85,139.97 L 130.19,139.63 L 129.00,138.50 L 128.56,137.97 L 127.73,137.35 L 127.34,137.11 L 126.78,137.03 L 126.55,137.06 L 126.47,137.52 L 127.13,138.75 L 127.32,138.99 L 127.15,138.99 L 126.98,138.92 L 126.19,138.37 L 125.72,138.02 L 124.42,136.99 L 122.00,134.98 L 120.68,133.87 L 118.52,132.05 L 117.51,131.21 L 115.97,129.96 L 115.28,129.41 L 114.36,128.73 L 113.97,128.46 L 113.67,128.34 L 113.59,128.35 L 113.89,128.80 L 114.12,129.10 L 115.02,130.12 L 115.55,130.70 L 117.05,132.29 L 119.98,135.31 L 121.14,136.51 L 123.35,138.68 L 124.42,139.72 L 126.27,141.44 L 127.13,142.22 L 128.41,143.30 L 128.69,143.51 L 129.10,143.80 L 129.48,143.97 L 129.76,143.96 L 130.71,143.25 L 131.20,142.82 M 79.74,94.44 L 78.81,93.40 L 77.12,91.42 L 76.32,90.45 L 74.98,88.76 L 74.37,87.97 L 73.54,86.76 L 73.01,85.70 L 73.01,84.95 L 73.39,83.04 L 73.62,82.06 L 74.31,80.08 L 74.67,79.13 L 75.48,77.58 L 75.68,77.25 L 76.06,76.75 L 76.60,76.32 L 76.84,76.23 L 77.70,76.58 L 78.19,76.84 L 79.54,77.89 L 80.27,78.49 L 82.08,80.20 L 85.29,83.50 L 86.28,84.57 L 88.16,86.63 L 89.06,87.63 L 90.64,89.41 L 91.37,90.25 L 92.46,91.55 L 93.37,92.74 L 93.52,93.01 L 93.55,93.64 L 93.52,93.98 L 93.15,94.78 L 92.91,95.21 L 92.10,96.24 L 90.36,98.11 L 86.48,101.99 L 79.74,94.44 M 110.54,90.69 L 109.67,89.92 L 108.33,88.62 L 107.74,88.00 L 106.93,86.98 L 106.59,86.50 L 106.27,85.70 L 106.29,84.69 L 106.54,84.04 L 107.23,83.36 L 107.62,83.12 L 108.72,83.31 L 109.03,83.42 L 109.76,83.80 L 110.15,84.02 L 111.04,84.64 L 111.51,84.98 L 112.60,85.85 L 114.45,87.44 L 114.99,87.91 L 115.89,88.73 L 116.31,89.11 L 116.99,89.77 L 117.62,90.40 L 118.31,91.32 L 118.56,91.74 L 118.60,92.42 L 118.08,93.40 L 117.62,93.95 L 116.91,94.59 L 116.55,94.82 L 115.70,94.70 L 115.45,94.61 L 114.87,94.26 L 114.56,94.06 L 113.79,93.47 L 113.38,93.14 L 112.38,92.29 L 111.84,91.83 M 114.78,85.63 L 111.06,82.34 L 116.07,76.71 L 116.96,75.71 L 118.46,74.17 L 119.16,73.48 L 120.31,72.53 L 120.85,72.13 L 121.73,71.74 L 122.79,71.70 L 123.02,71.79 L 122.96,71.47 L 122.85,71.25 L 122.16,70.39 L 121.75,69.91 L 120.54,68.64 L 118.25,66.39 L 117.09,65.29 L 115.32,63.47 L 114.52,62.61 L 113.39,61.18 L 112.90,60.51 L 112.33,59.35 L 112.00,57.79 L 112.00,57.53 L 112.15,56.92 L 112.26,56.60 L 112.65,55.84 L 112.89,55.44 L 113.57,54.48 L 113.95,53.97 L 114.96,52.76 L 115.51,52.12 L 116.89,50.61 L 117.63,49.81 L 119.42,47.95 L 120.38,46.97 L 122.63,44.71 L 126.57,40.81 L 128.30,39.11 L 131.29,36.21 L 132.71,34.84 L 135.13,32.55 L 136.27,31.49 L 138.16,29.78 L 139.05,29.00 L 140.47,27.83 L 141.13,27.31 L 142.13,26.64 L 142.59,26.36 L 143.22,26.14 L 143.50,26.09 L 143.82,26.29 L 144.00,27.01 L 144.00,27.14 L 143.87,27.53 L 143.78,27.74 L 143.41,28.36 L 143.18,28.71 L 142.48,29.66 L 142.07,30.20 L 140.94,31.60 L 140.32,32.37 L 138.69,34.33 L 137.80,35.38 L 135.57,38.00 L 134.97,38.70 L 133.65,40.25 L 132.97,41.04 L 131.47,42.79 L 130.70,43.69 L 129.01,45.65 L 126.25,48.84 L 125.25,50.00 L 123.43,52.16 L 122.57,53.20 L 121.13,54.99 L 120.47,55.81 L 119.57,57.02 L 119.39,57.28 L 119.15,57.65 L 119.00,57.97 L 119.00,58.16 L 119.55,58.98 L 120.88,60.39 L 121.33,60.79 L 122.24,61.04 L 122.50,61.02 L 123.18,60.75 L 123.55,60.56 L 124.51,59.88 L 125.04,59.48 L 126.41,58.32 L 127.15,57.66 L 129.03,55.92 L 130.05,54.97 L 132.55,52.57 L 133.22,51.93 L 134.70,50.50 L 137.13,48.14 L 139.10,46.23 L 142.77,42.77 L 143.65,41.95 L 145.28,40.45 L 146.08,39.72 L 147.51,38.44 L 148.20,37.83 L 149.38,36.80 L 149.94,36.33 L 150.85,35.60 L 151.26,35.27 L 151.83,34.87 L 152.29,34.68 L 152.39,34.75 L 152.47,34.98 L 152.47,35.13 L 152.30,35.61 L 152.17,35.89 L 151.67,36.71 L 151.38,37.18 L 150.47,38.46 L 149.96,39.17 L 148.58,41.01 L 147.82,42.02 L 145.88,44.53 L 144.84,45.88 L 142.27,49.16 L 141.58,50.04 L 140.08,51.95 L 137.62,55.08 L 136.74,56.18 L 135.24,58.12 L 134.53,59.04 L 133.33,60.64 L 132.77,61.40 L 131.85,62.70 L 131.42,63.32 L 130.76,64.35 L 130.46,64.84 L 130.04,65.65 L 129.86,66.03 L 129.65,66.64 L 129.72,67.93 L 130.00,68.36 L 130.90,69.04 L 132.35,69.50 L 132.46,69.50 L 132.95,69.24 L 133.23,69.07 L 134.04,68.49 L 134.48,68.17 L 135.56,67.31 L 136.13,66.86 L 137.44,65.75 L 138.81,64.60 L 142.07,61.70 L 147.41,56.75 L 148.91,55.33 L 151.53,52.87 L 152.78,51.71 L 154.91,49.76 L 155.93,48.84 L 157.62,47.36 L 158.42,46.68 L 159.71,45.65 L 160.31,45.18 L 161.23,44.56 L 161.66,44.30 L 162.25,44.06 L 162.51,43.98 L 162.82,44.10 L 163.00,44.64 L 163.00,44.73 L 162.74,45.19 L 162.57,45.46 L 161.96,46.29 L 161.61,46.75 L 160.65,47.97 L 160.12,48.62 L 158.79,50.23 L 158.08,51.08 L 156.38,53.08 L 155.49,54.14 L 153.41,56.55 L 152.33,57.81 L 149.88,60.63 L 145.76,65.34 L 144.69,66.56 L 142.74,68.83 L 141.82,69.93 L 140.28,71.80 L 139.58,72.67 L 138.61,73.94 L 138.42,74.21 L 138.16,74.59 L 138.00,74.92 L 138.00,75.02 L 138.18,75.37 L 138.30,75.57 L 138.68,76.07 L 140.31,77.82 L 142.63,80.00 L 145.56,76.90 L 146.68,75.73 L 149.18,73.21 L 150.47,71.94 L 153.19,69.34 L 155.93,66.75 L 161.38,61.90 L 162.68,60.76 L 165.07,58.75 L 166.22,57.80 L 168.17,56.28 L 169.08,55.58 L 170.44,54.68 L 170.74,54.50 L 171.19,54.27 L 171.64,54.17 L 171.79,54.20 L 171.88,54.45 L 171.89,54.61 L 171.67,55.14 L 171.52,55.44 L 170.98,56.26 L 170.67,56.71 L 169.79,57.85 L 169.30,58.46 L 168.06,59.93 L 167.40,60.72 L 165.79,62.55 L 164.93,63.51 L 162.93,65.73 L 159.47,69.50 L 157.56,71.56 L 154.00,75.38 L 153.15,76.30 L 151.55,78.00 L 150.77,78.82 L 149.37,80.31 L 148.69,81.02 L 147.51,82.25 L 146.96,82.83 L 146.05,83.77 L 145.64,84.19 L 145.04,84.78 L 144.55,85.23 L 143.94,85.66 L 142.62,85.95 L 141.93,86.00 L 140.38,85.52 L 139.57,85.19 L 137.71,83.90 L 134.50,81.03 L 133.81,80.35 L 132.48,79.10 L 131.84,78.50 L 130.69,77.51 L 130.15,77.06 L 129.31,76.44 L 128.55,76.03 L 128.29,76.02 L 128.23,76.36 L 128.81,77.21 L 129.05,77.45 L 129.16,78.04 L 129.14,78.37 L 128.69,79.26 L 128.38,79.76 L 127.28,81.08 L 124.79,83.71 L 124.07,84.44 L 122.72,85.76 L 122.07,86.39 L 120.95,87.43 L 120.42,87.91 L 119.65,88.56 L 119.03,88.96 L 118.96,88.95 L 118.53,88.68 L 118.28,88.51 L 117.56,87.96 L 116.79,87.36 M 45.90,74.75 L 44.21,72.37 L 41.21,67.52 L 39.78,65.10 L 37.35,60.26 L 36.22,57.86 L 34.42,53.18 L 32.51,46.47 L 32.27,45.31 L 31.87,43.29 L 31.69,42.33 L 31.42,40.67 L 31.31,39.88 L 31.17,38.54 L 31.12,37.90 L 31.12,36.81 L 31.16,35.78 L 31.63,34.29 L 32.97,32.53 L 33.40,32.14 L 34.16,31.63 L 34.54,31.42 L 35.40,31.25 L 35.86,31.21 L 37.07,31.36 L 39.59,31.92 L 41.01,32.28 L 43.93,33.22 L 45.39,33.72 L 48.36,34.94 L 49.85,35.59 L 52.87,37.09 L 54.38,37.87 L 57.42,39.62 L 60.46,41.44 L 66.53,45.81 L 75.46,53.38 L 81.41,58.96 L 78.53,61.97 L 77.50,63.04 L 75.79,64.46 L 74.98,65.06 L 73.59,65.55 L 72.92,65.68 L 71.71,65.27 L 69.94,63.66 L 69.67,63.31 L 68.77,62.55 L 68.27,62.16 L 67.02,61.39 L 62.74,59.46 L 61.73,59.14 L 59.84,58.29 L 58.89,57.81 L 56.94,56.52 L 55.94,55.81 L 53.67,53.90 L 53.07,53.38 L 51.76,52.18 L 49.61,50.14 L 48.50,49.06 L 46.68,47.34 L 45.84,46.56 L 44.57,45.42 L 44.01,44.93 L 43.29,44.38 L 42.99,44.18 L 42.82,44.21 L 42.81,44.30 L 43.19,44.91 L 43.45,45.29 L 44.38,46.47 L 44.92,47.13 L 46.40,48.89 L 49.25,52.16 L 49.92,52.92 L 51.05,54.23 L 51.58,54.85 L 52.46,55.93 L 53.27,56.97 L 54.30,58.69 L 54.74,59.53 L 55.24,61.30 L 55.72,64.66 L 55.91,66.44 L 56.73,69.69 L 56.96,70.44 L 57.50,71.76 L 58.41,73.35 L 60.50,76.20 L 57.04,79.10 L 56.09,79.90 L 54.22,81.15 L 53.79,81.41 L 53.08,81.77 L 52.31,82.00 L 52.14,82.00 L 51.42,81.43 L 51.01,81.06 L 49.91,79.87 L 49.33,79.21 L 48.00,77.57 L 47.32,76.70 M 62.12,75.14 L 61.29,74.15 L 60.06,72.48 L 59.50,71.67 L 58.71,70.14 L 58.36,69.37 L 57.89,67.70 L 57.40,64.71 L 56.74,59.13 L 62.12,61.15 L 63.14,61.53 L 64.86,62.35 L 65.69,62.77 L 67.15,63.77 L 67.86,64.30 L 69.20,65.60 L 71.25,67.99 L 71.77,68.65 L 72.71,69.94 L 73.15,70.56 L 73.90,71.68 L 74.24,72.20 L 74.70,73.02 L 75.00,73.77 L 75.00,73.89 L 74.70,74.30 L 74.50,74.54 L 73.89,75.14 L 73.21,75.76 L 71.35,77.23 L 70.40,77.95 L 68.59,79.16 L 68.17,79.41 L 67.49,79.77 L 66.79,80.00 L 66.71,80.00 L 66.23,79.62 L 65.96,79.37 L 65.17,78.57 L 64.75,78.13 L 63.75,77.03 L 63.23,76.45 Z" fill="#af8666"/>
</g>
</svg>