<svg xmlns="http://www.w3.org/2000/svg" width="196" height="196" viewBox="0 0 196 196">
<g>
<path d="M 160.00,165.13 L 159.45,164.99 L 158.53,164.32 L 158.30,164.10 L 157.84,163.47 L 157.61,163.12 L 157.12,162.18 L 156.87,161.67 L 156.31,160.34 L 156.02,159.63 L 155.35,157.86 L 155.00,156.90 L 154.20,154.60 L 152.79,150.48 L 152.15,148.56 L 150.96,144.95 L 150.40,143.21 L 149.46,140.22 L 149.24,139.53 L 148.87,138.32 L 148.70,137.75 L 148.43,136.81 L 148.31,136.37 L 148.15,135.74 L 148.04,135.20 L 148.04,134.96 L 148.29,134.61 L 148.46,134.46 L 149.11,134.26 L 149.48,134.18 L 150.57,134.13 L 152.75,134.20 L 157.50,134.50 L 161.71,146.80 L 162.29,148.49 L 163.40,151.85 L 163.94,153.49 L 164.88,156.50 L 165.32,157.92 L 165.99,160.24 L 166.14,160.76 L 166.36,161.60 L 166.57,162.55 L 166.72,163.34 L 166.86,164.42 L 166.90,164.89 L 166.75,165.44 L 166.64,165.67 L 166.12,165.86 L 164.86,165.90 L 164.21,165.87 L 162.46,165.63 L 161.58,165.50 M 52.58,162.13 L 52.51,162.02 L 52.52,161.14 L 52.54,160.61 L 52.73,159.06 L 52.85,158.22 L 53.19,156.21 L 53.85,152.88 L 55.65,144.50 L 59.87,144.41 L 61.02,144.38 L 62.95,144.52 L 63.37,144.57 L 63.98,144.70 L 64.46,144.93 L 64.53,145.05 L 64.52,145.87 L 64.48,146.37 L 64.29,147.77 L 64.18,148.53 L 63.85,150.32 L 63.67,151.24 L 63.26,153.19 L 62.83,155.14 L 61.90,158.68 L 61.68,159.46 L 61.27,160.67 L 60.77,161.75 L 60.63,161.93 L 60.12,162.23 L 59.84,162.37 L 59.12,162.59 L 58.36,162.80 L 56.55,162.97 L 55.65,163.01 L 54.05,162.83 L 53.69,162.76 L 53.12,162.56 L 52.87,162.44 M 135.58,143.05 L 135.32,141.89 L 134.89,139.94 L 134.69,139.03 L 134.41,137.55 L 134.29,136.86 L 134.15,135.78 L 134.10,135.28 L 134.12,134.53 L 134.15,134.19 L 134.33,133.72 L 134.44,133.52 L 134.79,133.26 L 136.46,133.00 L 136.97,133.00 L 137.73,133.15 L 138.09,133.26 L 138.62,133.72 L 138.87,134.00 L 139.26,134.87 L 139.81,136.75 L 139.93,137.27 L 140.23,138.54 L 140.39,139.20 L 140.73,140.64 L 141.70,144.73 L 141.99,145.92 L 142.27,147.56 L 142.36,148.27 L 142.18,149.15 L 142.02,149.51 L 141.28,149.84 L 139.41,150.00 L 138.92,150.00 L 138.18,149.77 L 137.83,149.59 L 137.28,148.80 L 137.01,148.31 L 136.48,146.70 L 136.35,146.23 L 136.06,145.09 L 135.91,144.49 M 58.14,138.11 L 57.67,137.81 L 57.28,136.70 L 57.22,136.38 L 57.25,135.57 L 57.47,134.12 L 57.64,133.38 L 57.96,132.38 L 58.15,131.94 L 58.76,131.44 L 59.13,131.24 L 60.32,131.07 L 63.10,131.00 L 63.71,131.00 L 64.71,131.01 L 65.17,131.01 L 65.91,131.05 L 66.59,131.09 L 67.32,131.36 L 67.59,131.53 L 67.69,132.18 L 67.44,133.75 L 67.27,134.51 L 66.90,136.06 L 66.45,137.75 L 66.39,137.93 L 66.05,138.23 L 65.85,138.37 L 65.26,138.59 L 64.62,138.79 L 62.91,138.95 L 62.02,138.99 L 60.25,138.80 L 59.41,138.67 M 100.49,133.97 L 97.89,133.63 L 92.88,132.39 L 90.41,131.68 L 85.70,129.75 L 83.39,128.70 L 79.04,126.14 L 76.92,124.78 L 72.99,121.62 L 71.08,119.98 L 67.63,116.28 L 65.97,114.38 L 63.05,110.20 L 61.67,108.05 L 59.35,103.43 L 56.60,96.07 L 56.34,95.19 L 55.92,93.12 L 55.72,92.05 L 55.43,89.69 L 55.17,87.27 L 55.04,82.00 L 55.04,79.36 L 55.43,74.31 L 55.56,73.10 L 55.92,70.88 L 56.60,67.93 L 57.33,65.44 L 59.24,60.75 L 60.28,58.44 L 62.77,54.14 L 64.08,52.04 L 67.11,48.17 L 68.68,46.30 L 72.20,42.89 L 74.02,41.25 L 78.00,38.35 L 80.04,36.97 L 84.44,34.61 L 86.68,33.49 L 91.46,31.70 L 99.00,29.70 L 100.97,29.31 L 104.88,28.90 L 106.83,28.76 L 110.70,28.81 L 112.62,28.90 L 116.40,29.39 L 118.28,29.70 L 121.96,30.61 L 123.78,31.12 L 127.32,32.42 L 129.07,33.12 L 132.44,34.80 L 134.11,35.68 L 137.28,37.70 L 138.85,38.75 L 141.80,41.09 L 143.24,42.30 L 145.94,44.94 L 147.26,46.29 L 149.68,49.20 L 150.85,50.68 L 152.96,53.84 L 153.97,55.45 L 155.74,58.83 L 156.58,60.54 L 157.97,64.12 L 158.63,65.94 L 159.63,69.69 L 160.07,71.59 L 160.65,75.50 L 161.00,81.50 L 161.00,83.49 L 160.67,87.38 L 160.45,89.31 L 159.71,93.07 L 159.28,94.93 L 158.15,98.53 L 157.53,100.31 L 156.02,103.73 L 155.23,105.41 L 153.38,108.63 L 152.42,110.21 L 150.25,113.21 L 149.13,114.68 L 146.68,117.43 L 145.41,118.77 L 142.69,121.26 L 141.30,122.47 L 138.33,124.67 L 136.82,125.73 L 133.63,127.62 L 132.02,128.53 L 128.64,130.09 L 126.93,130.82 L 123.38,132.03 L 121.59,132.59 L 117.90,133.43 L 116.04,133.79 L 112.24,134.23 L 110.32,134.40 L 106.42,134.43 L 104.46,134.38 M 120.77,123.15 L 123.33,122.35 L 128.11,120.08 L 130.44,118.85 L 134.68,115.80 L 136.73,114.19 L 140.35,110.48 L 142.08,108.55 L 145.00,104.31 L 146.37,102.13 L 148.53,97.48 L 149.50,95.11 L 150.80,90.17 L 151.34,87.68 L 151.71,82.58 L 151.14,74.87 L 150.88,73.38 L 150.14,70.50 L 149.74,69.07 L 148.74,66.32 L 148.20,64.97 L 146.95,62.36 L 146.29,61.08 L 144.81,58.63 L 144.04,57.43 L 142.33,55.16 L 141.46,54.04 L 139.55,51.95 L 138.58,50.93 L 136.50,49.03 L 135.44,48.11 L 133.19,46.42 L 132.05,45.60 L 129.66,44.13 L 128.45,43.43 L 125.92,42.19 L 124.65,41.60 L 122.02,40.61 L 120.69,40.15 L 117.96,39.42 L 116.59,39.08 L 113.79,38.62 L 112.38,38.43 L 109.52,38.25 L 108.08,38.19 L 105.18,38.31 L 100.79,38.83 L 98.57,39.21 L 94.38,40.40 L 92.32,41.05 L 88.50,42.75 L 86.63,43.66 L 83.18,45.81 L 81.51,46.94 L 78.46,49.50 L 76.99,50.82 L 74.36,53.73 L 73.09,55.22 L 70.89,58.43 L 69.85,60.06 L 68.10,63.51 L 67.28,65.26 L 66.00,68.89 L 65.42,70.73 L 64.62,74.50 L 64.28,76.39 L 63.98,80.24 L 63.90,82.17 L 64.12,86.05 L 64.30,87.98 L 65.05,91.83 L 65.50,93.75 L 66.80,97.51 L 67.53,99.38 L 69.41,103.01 L 70.42,104.80 L 72.88,108.24 L 77.25,113.13 L 77.79,113.65 L 79.09,114.74 L 79.78,115.29 L 81.32,116.41 L 82.90,117.52 L 86.48,119.66 L 88.28,120.68 L 91.84,122.38 L 92.70,122.76 L 94.31,123.38 L 96.50,124.06 L 97.24,124.24 L 98.99,124.51 L 99.90,124.64 L 101.92,124.80 L 104.00,124.93 L 108.56,124.86 L 110.84,124.77 L 115.23,124.30 L 116.28,124.15 L 118.21,123.79 L 119.14,123.60 M 144.14,128.12 L 140.77,127.50 L 144.83,124.25 L 145.81,123.46 L 147.31,122.41 L 148.04,121.96 L 149.61,121.44 L 150.05,121.34 L 151.06,121.20 L 151.60,121.14 L 152.89,121.07 L 153.58,121.04 L 155.25,121.01 L 158.27,121.00 L 159.57,121.00 L 161.96,121.04 L 163.10,121.06 L 165.05,121.14 L 165.94,121.18 L 167.21,121.29 L 168.14,121.47 L 168.20,121.53 L 168.29,121.93 L 168.32,122.17 L 168.35,122.84 L 168.19,125.47 L 167.78,129.00 L 157.64,128.87 L 156.25,128.85 L 153.44,128.77 L 152.05,128.72 L 149.49,128.59 L 148.27,128.53 L 146.24,128.37 L 145.33,128.29 M 32.46,126.75 L 32.29,126.32 L 32.12,124.80 L 32.18,122.33 L 32.50,119.50 L 48.26,119.22 L 64.02,118.95 L 68.26,122.95 L 72.50,126.95 L 58.41,126.97 L 44.32,127.00 L 43.15,124.44 L 42.91,123.91 L 42.43,123.16 L 42.18,122.83 L 41.59,122.43 L 41.26,122.26 L 40.42,122.13 L 38.75,122.19 L 38.17,122.24 L 37.25,122.44 L 36.83,122.56 L 36.18,122.89 L 35.90,123.08 L 35.50,123.57 L 35.16,124.50 L 35.03,125.23 L 34.62,126.34 L 34.40,126.83 L 33.89,127.42 L 33.63,127.63 L 33.11,127.60 L 32.86,127.50 M 153.18,117.25 L 153.33,116.92 L 153.80,116.06 L 154.06,115.60 L 154.71,114.55 L 155.38,113.48 L 156.93,111.17 L 157.70,110.06 L 159.05,108.27 L 159.35,107.89 L 159.82,107.37 L 160.25,107.03 L 160.48,107.02 L 160.77,107.65 L 160.89,108.05 L 160.97,109.35 L 160.98,110.07 L 160.84,111.86 L 160.38,114.88 L 160.24,115.57 L 159.93,116.53 L 159.77,116.96 L 159.28,117.48 L 158.99,117.70 L 158.15,117.90 L 156.29,118.00 L 155.34,118.00 L 153.95,117.78 L 153.67,117.71 L 153.32,117.54 L 153.18,117.45 M 48.44,115.23 L 48.19,115.06 L 47.59,114.38 L 47.28,114.00 L 46.60,112.98 L 45.90,111.91 L 44.54,109.33 L 44.23,108.70 L 43.69,107.48 L 43.43,106.89 L 43.07,105.87 L 42.92,105.40 L 42.80,104.71 L 42.96,104.18 L 43.26,104.08 L 44.17,103.48 L 45.57,102.29 L 45.99,101.87 L 46.73,101.32 L 47.40,101.13 L 47.44,101.18 L 47.78,101.77 L 47.98,102.13 L 48.58,103.23 L 48.90,103.83 L 49.69,105.29 L 50.99,107.75 L 51.34,108.42 L 51.97,109.57 L 52.27,110.11 L 52.80,111.00 L 53.31,111.84 L 54.19,112.90 L 54.63,113.34 L 55.51,113.78 L 57.08,114.00 L 57.85,114.00 L 59.24,114.29 L 60.50,115.00 L 60.59,115.15 L 60.26,115.39 L 60.02,115.51 L 59.15,115.69 L 58.67,115.77 L 57.44,115.89 L 56.79,115.94 L 55.36,115.98 L 53.91,116.01 L 51.12,115.85 L 50.49,115.78 L 49.46,115.60 L 49.00,115.50 M 40.66,98.00 L 41.16,97.15 L 42.00,96.02 L 42.40,95.55 L 43.08,95.15 L 43.40,95.04 L 43.96,95.37 L 44.69,96.64 L 44.86,97.08 L 44.62,98.06 L 44.43,98.55 L 43.64,99.47 L 43.19,99.91 L 42.07,100.56 L 40.25,101.00 L 39.99,101.00 L 39.67,100.86 L 39.55,100.76 L 39.54,100.38 L 39.57,100.15 L 39.86,99.45 L 40.05,99.06 M 35.89,93.80 L 35.67,93.38 L 35.39,92.73 L 35.28,92.43 L 35.22,91.99 L 35.87,91.21 L 36.19,91.10 L 37.16,90.47 L 38.61,89.25 L 38.94,88.91 L 39.45,88.49 L 39.69,88.32 L 40.06,88.22 L 40.24,88.20 L 40.56,88.42 L 41.08,89.09 L 41.40,89.60 L 41.77,90.54 L 41.91,91.00 L 41.91,91.87 L 41.85,92.30 L 41.46,93.14 L 40.43,94.43 L 39.90,94.96 L 39.02,95.59 L 38.61,95.84 L 37.89,95.89 L 37.54,95.84 L 36.89,95.30 L 36.57,94.95 M 48.72,92.86 L 48.15,91.49 L 47.34,88.65 L 46.99,87.20 L 46.60,84.18 L 46.46,82.65 L 46.50,79.41 L 47.03,74.29 L 47.20,73.28 L 47.69,71.05 L 47.96,69.92 L 48.64,67.55 L 49.35,65.17 L 51.06,60.61 L 51.50,59.53 L 52.36,57.60 L 52.79,56.69 L 53.61,55.19 L 54.01,54.51 L 54.72,53.58 L 55.59,53.00 L 56.04,53.00 L 56.60,53.28 L 56.83,53.46 L 56.93,54.09 L 56.93,54.45 L 56.59,55.43 L 55.56,57.29 L 55.37,57.59 L 54.80,58.75 L 54.50,59.41 L 53.80,61.10 L 51.56,67.18 L 50.89,69.21 L 49.93,73.37 L 49.52,75.46 L 49.11,79.62 L 48.97,81.69 L 49.12,85.72 L 49.97,91.47 L 50.11,92.10 L 50.33,93.16 L 50.42,93.65 L 50.52,94.43 L 50.56,94.78 L 50.56,95.28 L 50.55,95.49 L 50.46,95.69 L 50.40,95.75 L 50.22,95.66 L 50.11,95.58 L 49.84,95.18 L 49.70,94.95 L 49.34,94.25 L 49.15,93.87 M 26.74,77.61 L 25.84,76.15 L 24.37,73.57 L 23.69,72.35 L 22.68,70.30 L 22.24,69.35 L 21.73,67.94 L 21.59,66.61 L 21.76,66.17 L 22.24,65.47 L 22.92,65.00 L 23.08,65.00 L 23.53,65.24 L 23.78,65.40 L 24.41,65.94 L 24.74,66.25 L 25.52,67.06 L 25.92,67.49 L 26.83,68.55 L 27.75,69.66 L 29.89,72.49 L 33.34,77.44 L 34.20,78.75 L 35.47,80.80 L 36.02,81.74 L 36.70,83.16 L 36.97,83.80 L 37.13,84.72 L 36.84,85.69 L 36.55,86.04 L 35.97,86.53 L 35.68,86.74 L 35.07,86.92 L 34.77,86.96 L 34.11,86.81 L 33.77,86.69 L 33.04,86.17 L 32.66,85.87 L 31.81,84.97 L 31.37,84.47 L 30.38,83.16 L 29.86,82.46 L 28.70,80.72 L 28.10,79.80 M 38.70,77.37 L 38.51,77.17 L 38.68,76.34 L 39.62,74.87 L 40.14,74.29 L 40.63,73.15 L 40.78,72.59 L 40.55,71.53 L 40.34,71.01 L 39.42,70.10 L 37.28,68.96 L 36.52,68.68 L 35.30,68.23 L 34.73,68.02 L 33.84,67.68 L 33.44,67.53 L 32.87,67.28 L 32.62,67.16 L 32.33,66.97 L 32.10,66.79 L 32.34,66.52 L 33.49,66.04 L 34.15,65.80 L 35.50,65.64 L 36.17,65.61 L 37.49,65.84 L 38.14,66.00 L 39.36,66.56 L 39.95,66.87 L 41.00,67.70 L 41.50,68.14 L 42.32,69.17 L 42.70,69.70 L 43.21,70.88 L 43.43,71.47 L 43.57,72.73 L 43.29,74.65 L 43.05,75.34 L 42.37,76.45 L 42.01,76.94 L 41.17,77.58 L 40.74,77.83 L 39.88,77.93 L 39.45,77.90 M 107.28,120.31 L 107.24,120.19 L 107.14,119.67 L 107.10,119.38 L 107.01,118.54 L 106.92,117.64 L 106.78,115.07 L 106.71,113.68 L 106.61,110.38 L 106.54,105.00 L 106.54,103.58 L 106.54,101.16 L 106.55,100.02 L 106.58,98.10 L 106.60,97.20 L 106.66,95.74 L 106.69,95.06 L 106.78,93.99 L 106.84,93.50 L 106.98,92.78 L 107.05,92.45 L 107.24,92.01 L 108.00,91.50 L 108.31,91.50 L 108.77,91.98 L 108.87,92.16 L 109.04,92.68 L 109.13,92.97 L 109.27,93.77 L 109.33,94.20 L 109.44,95.31 L 109.49,95.91 L 109.58,97.37 L 109.62,98.15 L 109.69,100.02 L 109.78,103.31 L 110.06,115.13 L 120.53,114.81 L 121.77,114.78 L 123.90,114.74 L 124.91,114.73 L 126.59,114.74 L 127.38,114.75 L 128.64,114.81 L 129.21,114.85 L 130.04,114.97 L 130.40,115.03 L 130.81,115.20 L 130.96,115.29 L 130.96,115.51 L 130.90,115.63 L 130.49,115.91 L 129.42,116.39 L 129.20,116.48 L 128.10,116.63 L 127.46,116.70 L 125.68,116.82 L 124.73,116.88 L 122.51,116.95 L 118.92,117.00 L 117.90,117.00 L 116.19,117.01 L 115.39,117.02 L 114.08,117.05 L 113.47,117.08 L 112.51,117.15 L 112.07,117.19 L 111.40,117.30 L 110.79,117.44 L 110.25,117.89 L 110.00,118.94 L 110.00,119.61 L 109.70,120.59 L 109.51,121.02 L 108.96,121.46 L 108.68,121.60 L 108.07,121.41 L 107.78,121.23 M 85.70,115.56 L 85.46,115.38 L 85.09,115.04 L 84.93,114.87 L 84.79,114.41 L 84.76,114.16 L 84.93,113.42 L 85.06,113.00 L 85.63,111.81 L 85.97,111.15 L 87.03,109.34 L 87.63,108.35 L 89.26,105.76 L 89.70,105.05 L 90.72,103.47 L 91.25,102.65 L 92.43,100.81 L 93.05,99.86 L 94.42,97.75 L 96.69,94.25 L 97.47,93.05 L 98.82,91.29 L 99.46,90.51 L 100.57,89.55 L 101.10,89.17 L 102.01,88.99 L 103.22,89.55 L 103.26,89.59 L 103.19,89.90 L 103.13,90.09 L 102.88,90.68 L 102.74,91.00 L 102.33,91.83 L 102.11,92.28 L 101.55,93.32 L 100.97,94.41 L 99.45,97.10 L 96.77,101.60 L 95.81,103.18 L 94.10,106.12 L 93.30,107.53 L 92.03,109.93 L 91.74,110.48 L 91.27,111.44 L 91.06,111.89 L 90.75,112.62 L 90.61,112.95 L 90.47,113.42 L 90.47,113.80 L 90.56,113.89 L 91.28,114.06 L 91.72,114.14 L 92.99,114.26 L 93.68,114.31 L 95.34,114.37 L 98.08,114.38 L 99.21,114.36 L 101.06,114.40 L 101.92,114.44 L 103.23,114.58 L 103.81,114.66 L 104.55,114.91 L 105.00,115.38 L 105.00,115.60 L 104.26,115.95 L 103.79,116.12 L 102.30,116.37 L 101.49,116.49 L 99.49,116.64 L 98.45,116.70 L 96.20,116.75 L 95.06,116.76 L 92.80,116.70 L 91.70,116.66 L 89.67,116.49 L 88.72,116.39 L 87.18,116.11 L 86.50,115.95 M 121.10,99.92 L 120.14,99.00 L 118.47,97.36 L 117.67,96.58 L 116.30,95.19 L 115.65,94.53 L 114.58,93.38 L 114.08,92.84 L 113.27,91.91 L 112.91,91.47 L 112.37,90.73 L 112.13,90.39 L 111.84,89.84 L 111.72,89.59 L 111.66,89.21 L 111.80,88.80 L 112.01,88.59 L 112.78,88.69 L 113.24,88.84 L 114.61,89.71 L 115.00,89.97 L 115.90,90.67 L 116.38,91.04 L 117.48,91.96 L 118.05,92.45 L 119.36,93.60 L 121.57,95.59 L 122.76,96.68 L 125.14,98.83 L 126.30,99.88 L 128.43,101.79 L 129.45,102.69 L 131.10,104.15 L 131.48,104.48 L 132.09,105.00 L 132.78,105.58 L 133.39,106.09 L 134.16,107.13 L 134.46,107.64 L 134.60,108.56 L 134.59,108.99 L 134.11,109.60 L 132.69,109.96 L 132.61,109.96 L 132.24,109.75 L 132.02,109.62 L 131.41,109.16 L 131.07,108.91 L 130.24,108.23 L 129.80,107.87 L 128.79,107.00 L 127.74,106.09 L 125.23,103.81 L 123.92,102.61 M 70.45,92.91 L 70.30,92.68 L 70.17,92.25 L 70.14,92.04 L 70.29,91.66 L 70.40,91.47 L 70.91,91.10 L 71.21,90.92 L 72.14,90.54 L 72.66,90.35 L 74.08,89.93 L 74.86,89.72 L 76.85,89.24 L 77.92,88.99 L 80.55,88.43 L 85.28,87.45 L 86.58,87.19 L 88.87,86.74 L 89.97,86.53 L 91.88,86.19 L 92.79,86.02 L 94.35,85.78 L 95.09,85.67 L 96.32,85.52 L 96.90,85.45 L 97.85,85.39 L 98.29,85.38 L 98.98,85.41 L 100.21,85.81 L 100.53,86.13 L 100.87,86.79 L 100.83,87.50 L 100.80,87.53 L 100.44,87.66 L 100.22,87.73 L 99.51,87.92 L 99.12,88.03 L 98.12,88.28 L 97.58,88.42 L 96.33,88.72 L 95.02,89.04 L 91.88,89.77 L 90.26,90.15 L 86.77,90.93 L 85.03,91.32 L 81.61,92.07 L 79.95,92.43 L 76.99,93.05 L 76.30,93.20 L 75.08,93.44 L 74.50,93.56 L 73.53,93.74 L 73.08,93.82 L 72.42,93.93 L 71.82,94.00 L 71.63,94.00 L 71.13,93.68 L 70.88,93.48 M 128.27,88.11 L 126.88,87.92 L 124.41,87.54 L 123.22,87.35 L 121.15,86.97 L 120.17,86.78 L 118.51,86.39 L 117.73,86.20 L 116.47,85.81 L 115.89,85.62 L 115.02,85.23 L 114.64,85.03 L 114.18,84.63 L 114.00,84.43 L 113.92,84.03 L 114.26,83.41 L 114.30,83.37 L 114.70,83.33 L 114.96,83.32 L 115.74,83.34 L 116.18,83.35 L 117.31,83.43 L 117.92,83.47 L 119.34,83.59 L 120.83,83.73 L 124.50,84.13 L 130.69,84.90 L 132.86,85.19 L 136.89,85.71 L 138.82,85.97 L 142.08,86.38 L 142.83,86.48 L 144.12,86.64 L 144.73,86.72 L 145.71,86.84 L 146.16,86.89 L 146.78,86.96 L 147.25,87.00 L 147.46,87.00 L 147.78,87.44 L 148.00,88.50 L 148.00,88.74 L 147.82,89.12 L 147.69,89.29 L 147.21,89.55 L 146.92,89.66 L 146.05,89.79 L 145.56,89.84 L 144.24,89.85 L 143.52,89.83 L 141.67,89.71 L 140.67,89.63 L 138.23,89.37 L 136.92,89.23 L 133.80,88.84 L 132.14,88.63 M 103.57,86.43 L 103.11,85.97 L 102.51,85.16 L 102.27,84.77 L 102.08,83.97 L 102.05,83.57 L 102.27,82.64 L 103.04,80.92 L 103.25,80.53 L 103.45,79.86 L 103.52,79.54 L 103.40,78.92 L 103.30,78.61 L 102.82,77.93 L 101.67,76.74 L 101.49,76.57 L 101.01,75.98 L 100.76,75.64 L 100.15,74.74 L 99.52,73.78 L 97.96,71.14 L 97.15,69.74 L 95.38,66.49 L 94.49,64.83 L 92.70,61.35 L 91.82,59.61 L 90.19,56.27 L 89.41,54.64 L 88.13,51.80 L 87.84,51.14 L 87.37,49.98 L 87.15,49.42 L 86.82,48.51 L 86.68,48.09 L 86.53,47.48 L 86.53,46.95 L 86.73,46.64 L 87.15,46.27 L 87.37,46.13 L 87.88,46.17 L 88.15,46.24 L 88.77,46.74 L 89.10,47.06 L 89.89,48.08 L 90.31,48.65 L 91.30,50.24 L 91.82,51.12 L 93.04,53.34 L 93.69,54.53 L 95.20,57.43 L 97.82,62.61 L 98.96,64.90 L 101.09,69.01 L 101.60,69.99 L 102.55,71.78 L 103.02,72.64 L 103.86,74.16 L 104.26,74.88 L 104.97,76.10 L 105.30,76.66 L 105.84,77.53 L 106.09,77.91 L 106.45,78.38 L 106.74,78.59 L 106.83,78.50 L 106.98,77.97 L 107.04,77.65 L 107.14,76.75 L 107.20,73.23 L 107.17,72.39 L 107.27,69.96 L 107.34,68.64 L 107.60,65.48 L 107.75,63.85 L 108.14,60.31 L 108.35,58.52 L 108.81,54.93 L 109.05,53.15 L 109.55,49.84 L 109.80,48.25 L 110.29,45.55 L 110.41,44.93 L 110.64,43.86 L 110.75,43.36 L 110.96,42.55 L 111.07,42.19 L 111.25,41.70 L 111.50,41.35 L 111.78,41.26 L 112.62,41.39 L 113.92,41.93 L 114.22,42.12 L 114.57,43.01 L 114.63,43.30 L 114.69,44.11 L 114.71,44.55 L 114.67,45.74 L 114.64,46.38 L 114.50,48.01 L 114.42,48.90 L 114.17,51.06 L 114.04,52.22 L 113.69,55.00 L 113.04,59.95 L 112.72,62.30 L 112.19,66.64 L 111.95,68.72 L 111.59,72.22 L 111.52,73.02 L 111.40,74.41 L 111.35,75.06 L 111.30,76.10 L 111.27,76.57 L 111.28,77.21 L 111.35,77.69 L 111.40,77.73 L 111.76,77.62 L 111.99,77.54 L 112.70,77.20 L 113.09,77.00 L 114.09,76.44 L 114.63,76.14 L 115.90,75.40 L 117.22,74.62 L 120.47,72.58 L 125.95,69.03 L 127.09,68.28 L 129.19,66.91 L 130.21,66.25 L 132.08,65.08 L 132.98,64.52 L 134.61,63.54 L 135.39,63.07 L 136.77,62.29 L 137.42,61.93 L 138.55,61.35 L 139.08,61.09 L 139.95,60.71 L 140.35,60.55 L 140.95,60.39 L 141.55,60.38 L 141.99,60.55 L 142.57,61.19 L 142.77,62.25 L 142.74,62.34 L 142.42,62.68 L 142.23,62.88 L 141.59,63.43 L 141.24,63.73 L 140.33,64.46 L 139.84,64.84 L 138.69,65.72 L 137.48,66.63 L 134.49,68.78 L 129.44,72.30 L 128.29,73.08 L 126.22,74.46 L 125.22,75.12 L 123.43,76.28 L 122.56,76.83 L 121.03,77.77 L 120.29,78.21 L 119.01,78.94 L 118.39,79.28 L 117.34,79.80 L 116.84,80.04 L 116.01,80.38 L 115.62,80.52 L 114.98,80.67 L 114.25,80.69 L 113.78,80.60 L 113.10,80.58 L 112.80,80.61 L 112.41,80.87 L 112.25,81.05 L 112.08,81.67 L 112.00,83.10 L 112.00,83.65 L 111.77,84.64 L 111.62,85.11 L 111.13,85.92 L 110.86,86.31 L 110.17,86.92 L 109.80,87.20 L 108.97,87.60 L 108.54,87.77 L 107.63,87.92 L 107.16,87.97 L 106.22,87.86 L 105.75,87.77 L 104.84,87.37 L 104.39,87.14 M 84.04,76.41 L 82.35,75.68 L 79.51,74.42 L 78.17,73.83 L 76.00,72.83 L 74.99,72.36 L 73.42,71.57 L 72.70,71.20 L 71.65,70.57 L 71.19,70.28 L 70.60,69.78 L 70.36,69.54 L 70.15,69.12 L 70.10,68.92 L 70.21,68.53 L 70.66,67.94 L 70.75,67.85 L 71.24,67.81 L 71.52,67.82 L 72.36,67.96 L 72.81,68.06 L 73.95,68.35 L 74.55,68.52 L 75.93,68.95 L 77.36,69.40 L 80.73,70.62 L 82.47,71.26 L 86.12,72.72 L 87.94,73.46 L 91.44,74.98 L 93.13,75.73 L 96.04,77.14 L 96.71,77.47 L 97.87,78.09 L 98.41,78.39 L 99.28,78.93 L 99.67,79.18 L 100.18,79.60 L 100.50,80.09 L 100.50,80.42 L 100.30,80.91 L 100.17,81.13 L 99.68,81.39 L 99.40,81.50 L 98.58,81.52 L 98.13,81.50 L 96.95,81.28 L 96.31,81.14 L 94.73,80.66 L 93.88,80.39 L 91.87,79.65 L 90.81,79.25 L 88.33,78.24 L 87.03,77.70 Z" fill="#af8666"/>
</g>
</svg>