<svg xmlns="http://www.w3.org/2000/svg" width="196" height="196" viewBox="0 0 196 196">
<g>
<path d="M 93.26,161.38 L 91.91,159.71 L 89.71,156.98 L 88.69,155.70 L 87.07,153.65 L 86.32,152.70 L 85.20,151.16 L 84.69,150.45 L 83.96,149.29 L 83.64,148.74 L 83.23,147.79 L 83.06,147.33 L 82.87,146.44 L 82.80,145.99 L 82.75,145.01 L 82.72,143.26 L 82.71,142.71 L 82.94,141.06 L 83.08,140.16 L 83.57,137.96 L 83.84,136.81 L 84.54,134.22 L 84.91,132.90 L 85.76,130.10 L 86.64,127.27 L 88.65,121.70 L 89.16,120.37 L 90.16,117.95 L 91.61,114.83 L 91.96,114.13 L 93.23,112.59 L 93.93,111.82 L 95.57,110.37 L 96.40,109.69 L 98.02,108.68 L 98.40,108.46 L 99.09,108.18 L 99.96,108.00 L 100.23,108.00 L 100.94,108.24 L 101.31,108.40 L 102.18,108.92 L 103.08,109.49 L 105.11,111.22 L 106.12,112.15 L 108.00,114.24 L 110.11,117.29 L 110.38,117.81 L 111.03,119.21 L 111.36,119.95 L 112.06,121.64 L 113.98,126.79 L 114.24,127.57 L 114.88,129.44 L 115.21,130.40 L 115.92,132.44 L 116.28,133.45 L 116.97,135.41 L 117.91,138.00 L 118.46,139.51 L 119.23,142.55 L 119.56,144.06 L 119.86,146.88 L 119.95,148.23 L 119.76,150.51 L 119.69,151.04 L 119.43,151.93 L 118.91,153.00 L 118.56,153.49 L 118.00,153.83 L 117.39,153.39 L 117.26,153.09 L 116.64,152.05 L 115.50,150.39 L 115.17,149.96 L 114.72,149.49 L 114.52,149.33 L 114.28,149.50 L 114.18,149.68 L 114.07,150.61 L 114.00,153.00 L 113.98,154.03 L 113.79,155.63 L 113.64,156.39 L 112.94,157.85 L 112.72,158.23 L 112.13,159.05 L 111.81,159.48 L 110.99,160.45 L 110.55,160.96 L 109.46,162.15 L 107.48,164.24 L 101.03,170.99 L 93.26,161.38 M 75.48,142.50 L 74.83,141.42 L 73.91,139.59 L 73.50,138.69 L 72.96,136.84 L 72.73,135.87 L 72.44,133.48 L 72.37,132.83 L 72.27,131.34 L 72.15,128.75 L 72.11,127.62 L 71.98,125.70 L 71.91,124.80 L 71.75,123.37 L 71.66,122.71 L 71.46,121.76 L 71.36,121.34 L 71.13,120.88 L 71.01,120.72 L 70.76,120.76 L 70.63,120.85 L 70.36,121.40 L 70.22,121.74 L 69.93,122.81 L 69.50,125.01 L 69.40,125.59 L 69.20,126.56 L 69.09,127.00 L 68.87,127.70 L 68.75,128.01 L 68.49,128.44 L 68.36,128.62 L 68.04,128.78 L 67.88,128.83 L 67.50,128.74 L 67.30,128.67 L 66.84,128.32 L 66.60,128.12 L 66.04,127.53 L 65.07,126.37 L 64.57,125.73 L 63.80,124.14 L 63.46,123.33 L 63.08,121.72 L 62.95,120.96 L 63.03,119.79 L 63.09,119.55 L 63.30,119.21 L 63.77,119.00 L 63.82,119.00 L 64.05,118.82 L 64.19,118.69 L 64.57,118.29 L 64.99,117.83 L 66.18,116.35 L 66.83,115.53 L 68.37,113.48 L 70.91,109.97 L 71.78,108.73 L 73.42,106.50 L 74.20,105.44 L 75.53,103.72 L 76.15,102.94 L 77.04,101.92 L 77.22,101.72 L 77.49,101.47 L 77.71,101.37 L 77.76,101.43 L 77.78,101.88 L 77.77,102.15 L 77.66,102.95 L 76.95,106.15 L 76.62,107.37 L 76.31,110.38 L 76.22,111.97 L 76.37,115.58 L 76.50,117.46 L 77.10,121.53 L 78.50,127.99 L 79.05,130.13 L 79.49,134.05 L 79.55,135.06 L 79.51,137.17 L 79.23,140.66 L 78.45,147.50 L 75.48,142.50 M 123.40,138.75 L 121.39,132.50 L 123.39,127.50 L 123.77,126.54 L 124.35,124.61 L 124.61,123.61 L 124.97,121.38 L 125.13,120.21 L 125.32,117.40 L 125.43,112.25 L 125.44,110.84 L 125.47,108.27 L 125.48,107.04 L 125.53,105.01 L 125.55,104.08 L 125.61,102.81 L 125.62,102.55 L 125.65,102.21 L 125.69,102.00 L 125.72,102.00 L 126.26,102.63 L 126.59,103.03 L 127.63,104.34 L 128.19,105.06 L 129.60,106.87 L 131.97,109.95 L 138.02,117.91 L 136.45,122.20 L 136.07,123.27 L 135.42,125.08 L 135.12,125.93 L 134.64,127.38 L 134.41,128.06 L 134.08,129.21 L 133.93,129.75 L 133.73,130.67 L 133.57,131.54 L 133.60,132.86 L 134.09,134.73 L 134.43,135.64 L 134.58,137.02 L 134.57,137.63 L 134.08,138.35 L 133.76,138.63 L 132.73,138.62 L 130.66,137.70 L 130.05,137.30 L 129.23,136.84 L 128.87,136.69 L 128.38,136.86 L 128.16,137.04 L 127.78,138.01 L 127.09,140.55 L 126.78,141.77 L 126.22,143.69 L 126.09,144.10 L 125.89,144.65 L 125.69,145.00 L 125.65,145.00 L 125.42,144.51 L 125.29,144.19 L 124.90,143.16 L 124.69,142.60 L 124.20,141.18 L 123.95,140.43 M 56.50,127.88 L 55.11,127.02 L 52.98,125.55 L 52.02,124.84 L 50.71,123.63 L 50.15,123.05 L 49.59,122.03 L 49.54,120.65 L 49.60,120.49 L 49.82,119.39 L 49.94,118.73 L 50.27,116.80 L 50.45,115.76 L 50.84,113.26 L 51.46,109.16 L 51.60,108.23 L 51.94,106.16 L 52.11,105.09 L 52.53,102.77 L 52.96,100.40 L 54.02,95.10 L 54.58,92.39 L 55.81,86.69 L 56.44,83.82 L 57.77,78.07 L 58.44,75.23 L 59.78,69.79 L 60.44,67.14 L 61.71,62.37 L 62.01,61.23 L 62.60,59.15 L 62.89,58.14 L 63.43,56.35 L 63.69,55.49 L 64.17,54.04 L 64.82,52.27 L 65.13,51.50 L 65.69,50.18 L 65.96,49.56 L 66.51,48.46 L 67.06,47.41 L 68.41,45.62 L 68.79,45.18 L 69.70,44.27 L 70.19,43.81 L 71.35,42.81 L 71.97,42.29 L 73.46,41.11 L 76.14,39.05 L 77.33,38.15 L 80.12,36.18 L 81.55,35.18 L 84.57,33.19 L 86.07,32.21 L 88.94,30.44 L 92.70,28.28 L 100.62,24.06 L 106.06,27.68 L 109.13,29.72 L 115.25,34.37 L 116.74,35.55 L 119.60,37.94 L 121.00,39.13 L 123.59,41.47 L 124.84,42.63 L 127.06,44.82 L 128.12,45.90 L 129.87,47.86 L 130.69,48.81 L 131.88,50.45 L 132.92,52.45 L 132.98,52.66 L 133.25,53.59 L 133.41,54.14 L 133.85,55.69 L 134.08,56.53 L 134.66,58.61 L 134.97,59.71 L 135.67,62.24 L 136.04,63.56 L 136.84,66.47 L 137.25,67.96 L 138.13,71.16 L 140.97,81.50 L 141.95,85.08 L 143.86,92.01 L 144.33,93.70 L 145.22,96.91 L 145.66,98.49 L 146.48,101.41 L 146.88,102.83 L 147.60,105.37 L 147.95,106.59 L 148.54,108.67 L 148.82,109.65 L 149.27,111.18 L 149.75,112.77 L 151.43,118.05 L 146.25,123.23 L 145.54,123.94 L 144.19,125.18 L 143.53,125.77 L 142.39,126.68 L 141.86,127.09 L 141.06,127.57 L 140.38,127.72 L 140.29,127.62 L 140.41,127.17 L 140.52,126.90 L 141.01,126.18 L 141.29,125.80 L 142.06,124.90 L 143.47,123.46 L 147.25,119.90 L 141.69,109.20 L 141.31,108.46 L 140.41,106.77 L 139.94,105.90 L 138.91,103.98 L 137.84,102.01 L 135.44,97.68 L 134.22,95.48 L 131.74,91.09 L 128.23,85.00 L 127.27,83.37 L 125.68,80.66 L 124.92,79.39 L 123.65,77.32 L 123.05,76.35 L 122.01,74.80 L 121.52,74.08 L 120.61,72.94 L 119.73,71.87 L 117.95,70.47 L 117.47,70.13 L 116.39,69.51 L 114.49,68.50 L 113.18,67.83 L 111.09,66.90 L 110.08,66.49 L 108.11,65.99 L 107.08,65.79 L 104.59,65.59 L 103.90,65.56 L 102.33,65.52 L 99.57,65.50 L 98.55,65.50 L 96.82,65.52 L 95.99,65.53 L 94.57,65.59 L 93.21,65.66 L 91.14,65.97 L 90.15,66.17 L 88.35,66.84 L 85.30,68.38 L 84.48,68.84 L 83.05,69.68 L 82.37,70.09 L 81.17,70.90 L 80.02,71.72 L 78.10,73.59 L 77.64,74.10 L 76.72,75.27 L 76.25,75.89 L 75.29,77.33 L 74.80,78.09 L 73.72,79.87 L 71.92,83.00 L 71.62,83.52 L 70.94,84.79 L 70.58,85.45 L 69.79,86.97 L 68.98,88.55 L 67.13,92.27 L 66.18,94.19 L 64.17,98.33 L 63.17,100.43 L 61.19,104.64 L 60.22,106.71 L 58.43,110.63 L 57.57,112.51 L 56.14,115.77 L 55.81,116.52 L 55.25,117.84 L 54.99,118.47 L 54.58,119.51 L 54.39,119.98 L 54.15,120.69 L 54.00,121.31 L 54.00,121.46 L 54.33,122.08 L 54.55,122.43 L 55.24,123.36 L 55.62,123.85 L 56.57,124.96 L 58.21,126.71 L 58.79,127.30 L 59.81,128.38 L 60.29,128.89 L 61.05,129.73 L 61.39,130.12 L 61.80,130.65 L 61.96,130.98 L 61.90,130.98 L 61.39,130.73 L 61.08,130.57 L 60.17,130.06 L 59.67,129.78 L 58.48,129.08 L 57.86,128.71 M 81.33,125.50 L 81.22,125.09 L 81.01,123.72 L 80.91,122.96 L 80.74,121.08 L 80.50,114.66 L 80.50,106.82 L 87.80,99.86 L 95.09,92.90 L 98.12,95.45 L 99.06,96.24 L 100.43,97.22 L 101.06,97.62 L 102.08,97.83 L 102.58,97.84 L 103.60,97.28 L 105.50,95.59 L 107.92,93.17 L 111.67,95.09 L 112.70,95.61 L 114.68,96.44 L 115.13,96.61 L 115.87,96.85 L 116.63,97.00 L 116.82,97.00 L 117.20,97.22 L 117.39,97.36 L 117.76,97.86 L 118.13,98.43 L 118.83,100.31 L 119.17,101.36 L 119.78,104.13 L 120.54,109.12 L 120.63,109.86 L 120.69,111.54 L 120.71,112.41 L 120.65,114.25 L 120.56,116.11 L 120.10,119.78 L 119.96,120.65 L 119.64,122.22 L 119.48,122.97 L 119.11,124.19 L 118.93,124.75 L 118.53,125.52 L 117.93,126.00 L 117.67,126.00 L 117.27,125.61 L 117.00,124.66 L 117.00,124.28 L 116.72,123.20 L 116.55,122.61 L 115.98,121.21 L 115.35,119.76 L 113.54,116.48 L 112.59,114.87 L 110.62,112.07 L 110.14,111.45 L 109.27,110.48 L 108.16,109.58 L 107.43,109.20 L 105.72,107.99 L 103.59,106.10 L 102.93,105.37 L 101.83,104.53 L 101.28,104.21 L 100.12,104.25 L 99.80,104.32 L 99.11,104.64 L 98.74,104.83 L 97.90,105.40 L 97.46,105.72 L 96.43,106.55 L 94.62,108.10 L 93.81,108.82 L 92.29,110.42 L 91.55,111.26 L 90.15,113.16 L 89.45,114.15 L 88.10,116.43 L 86.07,120.35 L 85.59,121.35 L 84.80,122.98 L 84.43,123.74 L 83.83,124.93 L 83.56,125.47 L 83.11,126.25 L 82.90,126.60 L 82.58,127.01 L 82.43,127.17 L 82.18,127.26 L 82.07,127.26 L 81.88,127.05 L 81.70,126.78 Z" fill="#af8666"/>
</g>
</svg>