<svg xmlns="http://www.w3.org/2000/svg" width="196" height="196" viewBox="0 0 196 196">
<g>
<path d="M 102.52,159.89 L 99.45,159.44 L 93.59,158.25 L 90.71,157.61 L 85.23,156.03 L 82.53,155.20 L 77.43,153.24 L 74.94,152.21 L 70.23,149.88 L 67.93,148.66 L 63.63,145.95 L 61.52,144.54 L 57.63,141.46 L 55.74,139.87 L 52.26,136.42 L 47.52,130.84 L 46.13,128.99 L 43.95,125.74 L 42.94,124.14 L 41.35,120.99 L 40.60,119.37 L 39.34,115.77 L 39.04,114.82 L 38.45,112.74 L 37.56,109.28 L 37.26,108.08 L 36.86,105.59 L 36.69,104.32 L 36.51,101.70 L 36.38,99.06 L 36.77,93.51 L 37.07,90.72 L 38.24,85.03 L 38.92,82.18 L 40.79,76.55 L 41.81,73.76 L 44.32,68.40 L 45.64,65.77 L 48.69,60.89 L 50.28,58.53 L 53.82,54.33 L 59.56,49.04 L 61.07,47.91 L 64.16,45.84 L 65.71,44.85 L 68.88,43.08 L 70.46,42.23 L 73.68,40.76 L 75.29,40.06 L 78.54,38.90 L 80.16,38.36 L 83.41,37.51 L 85.04,37.13 L 88.26,36.61 L 89.87,36.39 L 93.05,36.21 L 97.75,36.31 L 99.93,36.48 L 104.04,37.10 L 106.06,37.46 L 109.88,38.48 L 111.76,39.05 L 115.32,40.48 L 117.07,41.26 L 120.41,43.14 L 122.05,44.13 L 125.21,46.47 L 126.76,47.70 L 129.76,50.53 L 131.25,52.00 L 134.14,55.33 L 138.39,60.92 L 140.80,64.37 L 145.02,71.58 L 147.02,75.22 L 150.39,82.77 L 151.96,86.57 L 154.44,94.36 L 157.11,106.19 L 157.25,107.07 L 157.48,108.59 L 157.58,109.32 L 157.73,110.63 L 157.85,111.91 L 157.83,114.26 L 157.77,115.47 L 157.34,118.29 L 157.21,119.06 L 156.86,120.83 L 156.21,123.93 L 155.62,126.69 L 153.92,132.52 L 153.49,133.89 L 152.64,136.30 L 151.46,139.08 L 150.39,141.19 L 147.85,144.96 L 146.52,146.76 L 143.47,149.93 L 141.88,151.43 L 138.34,153.97 L 136.50,155.16 L 132.48,157.08 L 130.42,157.96 L 125.95,159.24 L 123.66,159.80 L 118.75,160.43 L 116.25,160.67 L 110.93,160.65 L 108.23,160.56 M 127.57,157.34 L 128.96,156.87 L 131.55,155.77 L 132.82,155.19 L 135.15,153.89 L 136.28,153.22 L 138.32,151.74 L 139.31,150.98 L 141.04,149.35 L 141.87,148.51 L 143.28,146.74 L 143.94,145.85 L 145.00,143.96 L 145.49,143.01 L 146.18,141.04 L 146.77,137.99 L 146.89,136.83 L 146.93,135.17 L 146.91,134.41 L 146.50,133.12 L 146.21,132.47 L 145.10,131.00 L 144.77,130.59 L 143.93,129.66 L 142.39,127.98 L 141.19,126.71 L 138.93,124.55 L 137.81,123.53 L 135.58,121.88 L 134.46,121.11 L 132.12,119.92 L 130.92,119.38 L 128.31,118.61 L 126.96,118.28 L 123.94,117.91 L 122.37,117.77 L 118.78,117.75 L 116.90,117.78 L 112.60,118.08 L 105.17,118.84 L 103.08,119.09 L 98.86,119.38 L 96.75,119.49 L 92.53,119.52 L 90.42,119.49 L 86.24,119.26 L 84.17,119.11 L 80.08,118.62 L 78.05,118.34 L 74.10,117.61 L 72.14,117.21 L 68.37,116.23 L 66.51,115.71 L 62.96,114.49 L 57.94,112.41 L 56.48,111.72 L 54.09,110.71 L 52.95,110.26 L 51.04,109.68 L 50.12,109.43 L 48.45,109.20 L 45.94,109.18 L 41.50,109.50 L 41.56,114.13 L 41.56,114.89 L 41.80,116.51 L 41.95,117.33 L 42.48,119.06 L 42.77,119.94 L 43.57,121.76 L 44.01,122.68 L 45.08,124.59 L 45.65,125.56 L 46.99,127.54 L 47.69,128.55 L 49.29,130.60 L 55.04,136.96 L 57.02,138.94 L 60.92,142.28 L 62.89,143.87 L 67.00,146.57 L 69.12,147.86 L 73.78,150.13 L 81.74,153.25 L 83.81,153.96 L 88.05,155.20 L 90.18,155.79 L 94.49,156.77 L 96.63,157.22 L 100.90,157.93 L 103.01,158.25 L 107.14,158.69 L 109.18,158.87 L 113.08,159.02 L 114.99,159.06 L 118.56,158.91 L 120.29,158.80 L 123.44,158.36 L 124.95,158.09 M 99.50,107.63 L 100.89,107.44 L 103.46,107.02 L 104.72,106.80 L 107.07,106.29 L 109.36,105.75 L 113.38,104.37 L 115.32,103.62 L 118.85,101.73 L 123.89,98.21 L 125.02,97.28 L 127.07,95.02 L 128.05,93.83 L 129.78,91.12 L 130.60,89.72 L 131.97,86.66 L 132.60,85.11 L 133.59,81.83 L 134.03,80.17 L 134.60,76.78 L 134.83,75.09 L 134.96,71.70 L 134.97,70.01 L 134.62,66.74 L 133.53,62.08 L 133.09,60.75 L 131.69,58.12 L 130.92,56.81 L 128.94,54.27 L 127.88,53.02 L 125.39,50.63 L 124.09,49.46 L 121.19,47.30 L 119.69,46.25 L 116.47,44.37 L 114.83,43.47 L 111.38,41.93 L 109.63,41.21 L 106.04,40.09 L 100.61,38.94 L 97.93,38.56 L 92.54,38.51 L 89.84,38.59 L 84.50,39.42 L 81.85,39.93 L 76.67,41.58 L 74.11,42.50 L 69.21,44.90 L 66.80,46.20 L 62.28,49.30 L 60.08,50.94 L 56.05,54.69 L 54.11,56.64 L 50.70,60.97 L 46.38,68.06 L 45.52,69.76 L 44.41,73.45 L 43.96,75.32 L 43.65,79.13 L 43.60,81.02 L 44.12,84.66 L 45.81,89.63 L 46.35,90.69 L 47.70,92.71 L 48.41,93.71 L 50.09,95.58 L 50.97,96.50 L 52.96,98.22 L 53.99,99.06 L 56.28,100.62 L 57.46,101.37 L 60.02,102.75 L 61.33,103.41 L 64.15,104.59 L 65.60,105.15 L 68.66,106.13 L 73.50,107.36 L 75.72,107.82 L 79.55,108.42 L 81.44,108.66 L 85.16,108.82 L 87.08,108.84 L 91.44,108.55 L 92.60,108.45 L 95.18,108.17 L 96.51,108.01 M 101.50,156.03 L 99.47,155.80 L 94.87,154.85 L 92.51,154.30 L 87.40,152.78 L 84.81,151.95 L 79.41,149.90 L 71.20,146.34 L 69.76,145.65 L 67.21,144.25 L 65.97,143.53 L 63.65,141.94 L 62.50,141.10 L 60.19,139.14 L 56.49,135.60 L 55.46,134.56 L 53.69,132.70 L 52.85,131.80 L 51.43,130.20 L 50.77,129.43 L 49.68,128.05 L 49.18,127.39 L 48.41,126.22 L 48.07,125.65 L 47.60,124.65 L 47.41,124.17 L 47.23,123.32 L 47.17,122.91 L 47.26,122.18 L 47.67,121.18 L 47.88,120.87 L 48.56,120.37 L 48.94,120.14 L 49.92,119.82 L 50.95,119.54 L 53.52,119.50 L 54.83,119.56 L 57.47,120.18 L 58.10,120.37 L 59.26,120.88 L 60.76,121.81 L 63.00,123.59 L 68.12,127.33 L 70.71,129.19 L 75.95,132.69 L 77.23,133.52 L 79.68,135.06 L 80.87,135.80 L 83.08,137.09 L 84.14,137.71 L 86.01,138.70 L 88.32,139.79 L 90.49,140.66 L 95.18,142.05 L 97.57,142.69 L 102.54,143.61 L 105.04,144.01 L 110.08,144.47 L 112.59,144.64 L 117.47,144.63 L 119.87,144.57 L 124.38,144.11 L 126.57,143.82 L 130.49,142.91 L 132.35,142.40 L 135.46,141.04 L 136.18,140.68 L 137.43,139.86 L 138.98,138.52 L 139.38,138.10 L 140.06,137.42 L 140.38,137.11 L 140.92,136.66 L 141.43,136.27 L 142.04,136.16 L 142.28,136.22 L 142.39,137.02 L 142.05,139.27 L 141.78,140.48 L 141.12,142.50 L 140.75,143.46 L 139.79,145.15 L 139.26,145.98 L 137.84,147.61 L 135.02,150.25 L 134.27,150.89 L 132.45,152.03 L 131.49,152.58 L 129.27,153.54 L 128.11,153.99 L 125.55,154.76 L 124.23,155.11 L 121.37,155.67 L 119.91,155.92 L 116.80,156.26 L 115.22,156.41 L 111.92,156.53 L 110.24,156.56 L 106.79,156.46 L 105.05,156.38 M 76.36,101.59 L 74.50,101.23 L 71.16,100.48 L 69.54,100.10 L 66.63,99.27 L 65.22,98.84 L 62.71,97.91 L 61.49,97.43 L 59.32,96.36 L 58.27,95.81 L 56.40,94.59 L 55.50,93.96 L 53.88,92.57 L 53.10,91.85 L 51.69,90.25 L 49.76,87.60 L 48.73,85.99 L 47.42,82.71 L 46.90,81.05 L 46.62,77.59 L 46.60,75.83 L 47.34,72.11 L 47.59,71.16 L 48.28,69.20 L 49.60,66.16 L 50.27,64.79 L 51.85,62.17 L 52.68,60.88 L 54.55,58.45 L 55.52,57.26 L 57.66,55.04 L 58.76,53.95 L 61.12,51.94 L 62.33,50.96 L 64.90,49.16 L 66.21,48.30 L 68.95,46.74 L 70.34,45.98 L 73.22,44.67 L 74.68,44.04 L 77.67,42.97 L 79.18,42.47 L 82.26,41.66 L 83.80,41.29 L 86.93,40.76 L 88.50,40.53 L 91.65,40.27 L 93.22,40.18 L 96.36,40.22 L 97.93,40.28 L 101.03,40.62 L 102.57,40.83 L 105.60,41.48 L 107.10,41.85 L 110.03,42.82 L 114.29,44.66 L 115.67,45.36 L 118.20,46.87 L 119.42,47.65 L 121.62,49.33 L 122.67,50.19 L 124.54,52.01 L 125.43,52.94 L 126.95,54.91 L 127.67,55.92 L 128.86,58.02 L 129.40,59.09 L 130.24,61.33 L 130.61,62.47 L 131.09,64.83 L 131.41,68.50 L 131.43,69.91 L 131.15,72.65 L 130.97,74.00 L 130.30,76.62 L 129.92,77.91 L 128.89,80.39 L 128.34,81.62 L 126.97,83.95 L 126.24,85.10 L 124.55,87.26 L 123.67,88.33 L 121.69,90.32 L 120.66,91.29 L 118.41,93.08 L 117.25,93.96 L 114.76,95.55 L 113.48,96.31 L 110.77,97.68 L 109.38,98.33 L 106.47,99.46 L 104.99,100.00 L 101.91,100.87 L 100.35,101.28 L 97.12,101.89 L 95.48,102.16 L 92.13,102.49 L 90.44,102.62 L 86.98,102.66 L 85.24,102.64 L 81.71,102.36 L 79.94,102.18 M 78.44,95.78 L 78.96,95.05 L 79.61,93.01 L 79.87,91.96 L 80.01,89.79 L 80.02,88.75 L 79.65,87.12 L 79.53,86.77 L 79.18,86.30 L 78.52,86.00 L 78.27,86.00 L 77.70,86.33 L 77.41,86.54 L 76.79,87.23 L 76.16,87.98 L 74.98,90.11 L 74.43,91.21 L 73.69,93.45 L 73.55,93.98 L 73.43,94.92 L 73.52,96.06 L 73.72,96.70 L 74.36,97.49 L 74.71,97.80 L 75.57,97.91 L 76.01,97.89 L 76.98,97.34 L 77.47,96.98 M 84.79,93.25 L 85.05,92.71 L 85.23,91.16 L 85.27,90.36 L 85.05,88.65 L 84.90,87.82 L 84.39,86.44 L 83.36,85.29 L 83.22,85.24 L 82.92,85.45 L 82.78,85.59 L 82.50,86.13 L 82.23,86.72 L 81.81,88.52 L 81.63,89.46 L 81.49,91.42 L 81.76,93.75 L 81.92,94.19 L 82.36,94.71 L 82.60,94.90 L 83.14,94.93 L 83.41,94.89 L 83.98,94.44 L 84.26,94.16 M 73.91,88.42 L 74.49,87.44 L 75.23,85.62 L 75.37,85.22 L 75.51,84.56 L 75.45,83.92 L 75.36,83.77 L 75.00,83.77 L 74.80,83.81 L 74.28,84.13 L 73.74,84.51 L 72.45,85.92 L 71.81,86.67 L 70.75,88.33 L 70.52,88.73 L 70.20,89.47 L 70.00,90.39 L 70.00,91.06 L 70.30,91.74 L 70.49,91.98 L 71.12,91.83 L 71.47,91.65 L 72.36,90.70 L 72.83,90.13 M 91.33,89.85 L 91.50,89.19 L 91.28,87.48 L 91.10,86.61 L 90.39,84.87 L 90.00,84.05 L 89.06,82.86 L 88.82,82.62 L 88.35,82.34 L 87.69,82.29 L 87.43,82.38 L 87.09,82.92 L 86.95,83.24 L 86.83,84.12 L 86.77,85.06 L 87.17,87.42 L 87.43,88.59 L 88.32,90.59 L 88.56,91.01 L 89.08,91.61 L 89.92,92.00 L 90.15,92.00 L 90.68,91.37 L 90.94,90.98 M 72.44,84.07 L 72.77,83.70 L 73.23,83.06 L 73.43,82.75 L 73.64,82.21 L 73.32,80.92 L 73.14,80.74 L 72.70,80.64 L 72.46,80.63 L 71.89,80.89 L 71.59,81.06 L 70.88,81.67 L 69.64,83.02 L 68.91,83.88 L 67.78,85.51 L 67.54,85.88 L 67.21,86.49 L 67.00,87.11 L 67.00,87.44 L 67.51,87.56 L 67.83,87.55 L 68.82,87.08 L 69.35,86.78 L 70.57,85.85 L 71.20,85.34 M 84.00,82.85 L 84.80,82.36 L 85.84,81.67 L 86.27,81.36 L 86.63,80.93 L 86.74,80.73 L 86.49,80.41 L 85.50,79.93 L 85.22,79.81 L 84.39,79.62 L 83.95,79.53 L 82.90,79.37 L 81.81,79.23 L 79.40,79.09 L 78.23,79.05 L 76.32,79.13 L 75.92,79.16 L 75.36,79.28 L 75.00,79.54 L 75.00,79.86 L 75.54,80.93 L 75.87,81.51 L 76.80,82.75 L 77.28,83.35 L 78.25,84.33 L 79.37,85.00 L 79.52,85.00 L 80.08,84.83 L 80.40,84.72 L 81.19,84.36 L 82.03,83.98 M 105.42,79.39 L 105.85,79.23 L 106.54,78.78 L 107.00,78.14 L 107.00,78.04 L 106.78,77.86 L 106.64,77.77 L 106.18,77.62 L 105.68,77.47 L 104.24,77.31 L 103.49,77.25 L 101.93,77.28 L 100.03,77.60 L 99.70,77.71 L 99.30,77.90 L 99.14,77.99 L 99.06,78.18 L 99.06,78.28 L 99.30,78.53 L 100.03,79.04 L 100.89,79.59 L 102.55,79.94 L 102.98,79.97 L 103.90,79.84 L 104.37,79.75 M 95.07,77.32 L 95.88,77.07 L 97.16,76.61 L 97.73,76.39 L 98.51,76.00 L 98.83,75.82 L 99.05,75.53 L 98.71,75.24 L 98.40,75.17 L 98.22,74.91 L 98.20,74.75 L 98.62,74.31 L 98.90,74.06 L 99.93,73.42 L 102.20,72.21 L 102.82,71.91 L 103.83,71.39 L 104.30,71.15 L 105.04,70.75 L 105.71,70.37 L 106.31,69.87 L 106.50,69.65 L 106.22,69.34 L 104.99,68.89 L 104.30,68.70 L 103.56,68.37 L 103.43,68.30 L 103.37,68.19 L 103.60,68.10 L 103.80,68.08 L 104.32,67.85 L 104.60,67.71 L 105.25,67.28 L 105.92,66.80 L 107.38,65.50 L 108.08,64.83 L 109.22,63.50 L 109.46,63.19 L 109.79,62.65 L 110.00,62.01 L 110.00,61.64 L 109.48,61.47 L 109.30,61.48 L 108.80,61.64 L 107.82,62.10 L 107.52,62.26 L 106.57,62.60 L 106.06,62.77 L 104.79,63.11 L 100.57,63.91 L 99.49,64.04 L 97.96,64.31 L 97.29,64.46 L 96.45,64.80 L 96.10,65.00 L 95.78,65.51 L 95.71,66.59 L 95.74,66.98 L 95.54,67.70 L 95.38,68.05 L 94.70,68.77 L 94.29,69.13 L 93.05,69.93 L 90.43,71.31 L 89.68,71.68 L 88.27,72.36 L 87.59,72.68 L 86.41,73.21 L 85.87,73.45 L 85.08,73.79 L 84.44,74.00 L 84.37,74.00 L 83.97,73.72 L 83.72,73.54 L 83.04,72.96 L 80.38,70.45 L 79.66,69.72 L 78.65,68.61 L 78.22,68.09 L 77.75,67.30 L 77.58,66.93 L 77.59,66.31 L 78.06,65.43 L 78.43,64.98 L 78.83,64.37 L 78.96,64.08 L 78.72,63.61 L 78.51,63.37 L 77.42,62.80 L 77.08,62.64 L 76.22,62.27 L 74.60,61.59 L 74.01,61.35 L 73.02,60.97 L 72.55,60.81 L 71.80,60.59 L 71.45,60.50 L 70.93,60.44 L 70.70,60.43 L 70.40,60.54 L 70.28,60.62 L 70.20,60.90 L 70.19,61.06 L 70.32,61.52 L 70.41,61.77 L 70.74,62.40 L 71.45,63.56 L 71.87,64.20 L 72.39,65.04 L 72.59,65.40 L 72.66,65.75 L 72.64,65.87 L 72.24,65.85 L 71.08,65.53 L 70.37,65.30 L 69.52,65.32 L 69.18,65.40 L 69.08,65.94 L 69.12,66.26 L 69.75,67.17 L 71.50,68.82 L 72.26,69.42 L 73.24,70.37 L 73.65,70.80 L 73.90,71.38 L 73.94,71.62 L 73.46,71.77 L 71.91,71.47 L 71.45,71.33 L 70.84,71.19 L 70.59,71.15 L 70.36,71.26 L 70.29,71.36 L 70.41,71.79 L 70.92,72.85 L 71.22,73.41 L 72.05,74.51 L 73.24,75.65 L 73.37,75.73 L 74.03,75.95 L 74.42,76.07 L 75.52,76.36 L 76.70,76.66 L 79.83,77.35 L 81.44,77.69 L 84.68,78.30 L 85.45,78.43 L 86.84,78.66 L 88.57,78.89 L 88.72,78.90 L 89.41,78.80 L 89.82,78.73 L 90.92,78.47 L 92.10,78.19 M 69.77,74.19 L 69.83,74.00 L 69.72,73.68 L 69.62,73.54 L 69.20,73.32 L 68.95,73.22 L 68.23,73.10 L 66.83,73.03 L 66.04,73.04 L 65.02,73.08 L 64.60,73.12 L 64.26,73.27 L 64.17,73.37 L 64.45,73.72 L 65.46,74.55 L 65.99,74.95 L 66.95,75.43 L 67.41,75.62 L 68.19,75.67 L 68.55,75.64 L 69.14,75.25 L 69.40,75.00 M 114.80,73.57 L 115.21,73.15 L 115.63,72.60 L 115.75,72.37 L 115.47,72.16 L 115.22,72.09 L 114.03,72.16 L 113.67,72.20 L 112.73,72.31 L 111.00,72.53 L 109.49,72.73 L 106.53,73.47 L 105.85,73.67 L 104.71,74.09 L 103.50,74.72 L 103.04,75.05 L 102.58,75.50 L 102.44,75.69 L 102.73,75.89 L 102.99,75.96 L 104.22,75.95 L 104.59,75.94 L 105.54,75.88 L 107.30,75.76 L 108.25,75.69 L 109.91,75.46 L 110.71,75.33 L 112.05,74.99 L 112.69,74.80 L 113.69,74.35 L 114.15,74.12 M 89.62,69.94 L 90.15,69.68 L 91.02,69.26 L 91.42,69.06 L 92.05,68.72 L 92.61,68.40 L 93.09,67.89 L 93.23,67.64 L 92.97,67.08 L 91.90,65.90 L 91.33,65.33 L 90.73,64.28 L 90.51,63.79 L 90.59,63.02 L 90.71,62.69 L 91.40,62.36 L 93.08,62.53 L 93.44,62.64 L 93.98,62.71 L 94.23,62.73 L 94.57,62.59 L 94.73,62.49 L 94.90,62.11 L 95.00,61.27 L 95.00,60.67 L 94.67,59.60 L 94.46,59.08 L 93.77,58.24 L 93.38,57.86 L 92.42,57.33 L 90.75,57.00 L 90.50,57.00 L 89.66,57.38 L 89.19,57.62 L 88.04,58.41 L 87.43,58.85 L 86.11,59.94 L 84.10,61.81 L 79.29,66.61 L 81.40,69.24 L 82.04,70.05 L 83.03,71.08 L 83.51,71.49 L 84.49,71.77 L 85.03,71.81 L 86.47,71.37 L 86.88,71.21 L 87.86,70.78 L 88.38,70.54 M 68.00,69.95 L 68.00,69.84 L 67.75,69.53 L 67.59,69.36 L 67.07,68.96 L 66.50,68.55 L 64.89,67.64 L 64.07,67.20 L 62.41,66.49 L 60.53,66.00 L 60.27,66.00 L 60.03,66.32 L 59.96,66.52 L 60.08,67.14 L 60.18,67.47 L 60.61,68.25 L 61.57,69.43 L 62.01,69.87 L 63.32,70.48 L 64.01,70.74 L 65.45,70.96 L 66.14,71.01 L 67.24,70.80 L 67.48,70.72 L 67.80,70.46 L 67.93,70.32 M 118.32,69.85 L 118.92,69.53 L 119.91,68.85 L 120.37,68.51 L 121.05,67.77 L 121.36,67.40 L 121.74,66.61 L 121.98,65.36 L 121.99,65.15 L 121.56,64.95 L 121.28,64.88 L 120.40,64.91 L 119.91,64.96 L 118.71,65.19 L 118.08,65.33 L 116.70,65.72 L 115.30,66.14 L 112.53,67.28 L 111.88,67.58 L 110.78,68.19 L 109.53,69.11 L 109.04,69.57 L 108.47,70.19 L 108.27,70.46 L 108.37,70.75 L 108.51,70.87 L 109.42,70.97 L 111.84,71.00 L 113.02,71.00 L 115.51,70.66 L 116.10,70.56 L 117.13,70.30 L 117.61,70.16 M 63.31,60.63 L 62.82,60.18 L 61.97,59.46 L 61.57,59.13 L 60.90,58.65 L 60.58,58.44 L 60.07,58.21 L 59.84,58.12 L 59.49,58.13 L 59.34,58.17 L 59.15,58.43 L 59.07,58.59 L 59.03,59.09 L 59.02,59.38 L 59.12,60.13 L 59.42,61.55 L 59.61,62.31 L 60.74,63.71 L 63.27,65.34 L 63.86,65.59 L 64.83,65.88 L 65.27,66.00 L 65.94,66.04 L 66.24,66.04 L 66.62,65.86 L 66.77,65.74 L 66.84,65.35 L 66.85,65.13 L 66.63,64.55 L 66.48,64.24 L 65.97,63.48 L 65.67,63.08 L 64.86,62.16 L 64.42,61.69 M 120.50,62.72 L 121.20,62.36 L 122.22,61.64 L 122.67,61.26 L 123.28,60.35 L 123.54,59.86 L 123.82,58.61 L 123.98,56.15 L 124.00,52.79 L 120.47,55.90 L 119.49,56.75 L 117.69,58.09 L 117.28,58.37 L 116.62,58.76 L 115.97,59.00 L 115.64,59.00 L 114.64,59.60 L 114.12,59.97 L 113.00,61.03 L 112.46,61.58 L 111.59,62.70 L 111.00,64.05 L 111.00,64.19 L 111.28,64.40 L 111.45,64.48 L 112.03,64.57 L 112.67,64.63 L 114.55,64.44 L 115.53,64.30 L 117.66,63.78 L 118.70,63.49 M 68.17,57.48 L 67.85,56.77 L 67.34,55.09 L 67.00,52.95 L 67.00,52.41 L 66.66,51.66 L 66.45,51.34 L 65.78,51.07 L 65.42,51.00 L 64.56,51.24 L 63.20,52.20 L 62.70,52.70 L 62.18,53.95 L 62.01,54.60 L 62.12,56.00 L 62.26,56.71 L 62.97,58.09 L 64.67,59.96 L 65.51,60.62 L 66.88,61.22 L 67.50,61.41 L 68.33,61.13 L 68.67,60.90 L 68.83,59.84 L 68.82,59.53 L 68.66,58.79 L 68.55,58.39 Z" fill="#af8666"/>
</g>
</svg>