<svg xmlns="http://www.w3.org/2000/svg" width="196" height="196" viewBox="0 0 196 196">
<g>
<path d="M 102.50,155.09 L 100.02,154.78 L 94.88,153.64 L 92.29,152.99 L 87.03,151.22 L 84.41,150.26 L 79.18,147.95 L 76.58,146.73 L 71.51,143.95 L 69.01,142.51 L 64.25,139.34 L 61.91,137.71 L 57.58,134.23 L 55.48,132.46 L 51.72,128.74 L 46.87,123.00 L 45.82,121.55 L 43.98,118.11 L 43.12,116.34 L 41.79,112.62 L 41.21,110.78 L 40.56,107.28 L 40.45,106.44 L 40.38,104.89 L 40.51,102.81 L 40.71,101.63 L 41.26,99.33 L 41.40,98.80 L 41.67,97.92 L 42.05,97.00 L 42.22,96.69 L 42.49,96.32 L 42.62,96.18 L 42.84,96.16 L 42.94,96.20 L 43.16,96.54 L 43.53,97.50 L 44.02,98.99 L 44.90,101.43 L 45.34,102.58 L 46.23,104.61 L 46.70,105.61 L 47.78,107.60 L 49.80,110.95 L 50.66,112.32 L 52.65,115.02 L 53.68,116.36 L 55.99,118.99 L 57.19,120.29 L 59.81,122.82 L 61.16,124.07 L 64.09,126.50 L 65.59,127.71 L 68.80,130.03 L 70.44,131.18 L 73.93,133.39 L 75.71,134.48 L 79.46,136.56 L 85.38,139.52 L 87.75,140.64 L 92.52,142.49 L 94.91,143.36 L 99.69,144.72 L 102.08,145.34 L 106.86,146.21 L 109.24,146.58 L 113.98,146.96 L 116.35,147.08 L 121.04,146.96 L 123.38,146.83 L 128.00,146.21 L 130.30,145.84 L 134.83,144.72 L 141.50,142.48 L 141.96,142.29 L 142.44,142.24 L 142.61,142.27 L 142.58,142.58 L 142.51,142.77 L 142.04,143.37 L 141.76,143.70 L 140.91,144.53 L 140.45,144.97 L 139.30,145.97 L 138.69,146.48 L 137.31,147.57 L 132.59,150.92 L 131.88,151.37 L 130.65,152.14 L 130.07,152.50 L 129.01,153.09 L 127.99,153.64 L 126.06,154.33 L 125.05,154.63 L 122.60,154.97 L 121.92,155.05 L 120.32,155.17 L 117.50,155.34 L 115.02,155.48 L 109.38,155.47 L 108.02,155.45 L 105.54,155.34 L 104.37,155.27 M 102.40,141.59 L 100.51,141.13 L 96.74,139.97 L 94.85,139.35 L 91.12,137.88 L 89.26,137.12 L 85.61,135.39 L 83.79,134.49 L 80.24,132.52 L 76.72,130.50 L 70.15,125.89 L 68.56,124.69 L 65.53,122.21 L 64.04,120.95 L 61.25,118.35 L 59.88,117.04 L 57.36,114.37 L 56.14,113.02 L 53.92,110.30 L 52.86,108.94 L 50.98,106.20 L 50.08,104.83 L 48.57,102.11 L 47.87,100.75 L 46.76,98.08 L 46.26,96.75 L 45.59,94.16 L 45.31,92.87 L 45.11,90.39 L 45.37,86.82 L 45.57,85.79 L 46.19,83.86 L 46.54,82.93 L 47.47,81.20 L 47.98,80.36 L 49.20,78.84 L 49.84,78.10 L 51.33,76.78 L 52.11,76.14 L 53.87,75.02 L 54.78,74.49 L 56.78,73.58 L 57.81,73.15 L 60.04,72.45 L 61.19,72.13 L 63.64,71.64 L 64.89,71.42 L 67.54,71.15 L 68.89,71.04 L 71.74,70.99 L 73.18,70.99 L 76.20,71.15 L 77.73,71.26 L 80.91,71.65 L 82.52,71.87 L 85.84,72.49 L 87.52,72.82 L 90.98,73.66 L 101.77,77.05 L 104.53,78.06 L 109.89,80.49 L 112.53,81.76 L 117.61,84.64 L 120.10,86.14 L 124.82,89.42 L 127.13,91.11 L 131.42,94.72 L 133.50,96.57 L 137.29,100.45 L 139.12,102.42 L 142.33,106.51 L 143.85,108.58 L 146.42,112.80 L 149.45,119.23 L 149.86,120.31 L 150.36,121.84 L 150.56,122.55 L 150.58,123.79 L 150.54,124.42 L 150.05,125.94 L 149.89,126.37 L 149.47,127.37 L 148.68,129.18 L 148.12,130.45 L 146.81,132.69 L 146.12,133.76 L 144.51,135.62 L 143.67,136.51 L 141.72,138.02 L 140.70,138.73 L 138.37,139.90 L 137.15,140.45 L 134.39,141.31 L 132.96,141.70 L 129.73,142.26 L 128.05,142.50 L 124.31,142.78 L 118.07,142.91 L 115.16,142.89 L 109.11,142.49 L 107.69,142.37 L 105.21,142.08 L 104.07,141.93 M 131.70,134.50 L 133.31,134.02 L 136.49,132.34 L 138.04,131.42 L 140.76,129.16 L 141.39,128.58 L 142.48,127.38 L 143.00,126.78 L 143.82,125.58 L 144.19,124.99 L 144.69,123.85 L 144.99,122.25 L 144.99,121.46 L 144.47,119.52 L 144.14,118.50 L 143.02,116.18 L 142.39,114.99 L 140.75,112.40 L 139.87,111.08 L 137.80,108.32 L 136.71,106.94 L 134.29,104.13 L 133.04,102.73 L 130.35,99.97 L 128.97,98.61 L 126.10,96.01 L 121.67,92.41 L 120.70,91.68 L 118.29,90.09 L 117.02,89.28 L 114.15,87.60 L 111.19,85.91 L 104.57,82.58 L 102.91,81.78 L 99.60,80.29 L 97.97,79.56 L 94.83,78.28 L 93.31,77.68 L 90.51,76.69 L 86.86,75.62 L 85.38,75.26 L 82.18,74.82 L 80.56,74.64 L 77.16,74.51 L 75.44,74.49 L 71.98,74.67 L 70.26,74.80 L 66.88,75.26 L 65.21,75.52 L 62.04,76.24 L 60.50,76.63 L 57.69,77.58 L 56.34,78.09 L 54.03,79.25 L 51.26,81.22 L 50.80,81.65 L 50.11,82.68 L 49.80,83.22 L 49.40,84.43 L 49.23,85.07 L 49.11,86.46 L 49.08,87.17 L 49.22,88.71 L 49.32,89.50 L 49.71,91.16 L 49.94,92.01 L 50.57,93.79 L 51.26,95.58 L 53.30,99.40 L 54.42,101.33 L 57.26,105.29 L 58.76,107.27 L 62.29,111.19 L 64.13,113.13 L 68.24,116.84 L 74.96,121.97 L 75.93,122.63 L 78.12,123.99 L 79.26,124.68 L 81.69,126.06 L 84.17,127.44 L 89.38,130.01 L 90.67,130.62 L 93.17,131.73 L 94.39,132.27 L 96.69,133.18 L 97.80,133.61 L 99.77,134.28 L 102.26,134.94 L 103.17,135.12 L 105.40,135.41 L 106.56,135.53 L 109.17,135.71 L 111.84,135.86 L 117.65,135.87 L 119.09,135.85 L 121.89,135.74 L 123.26,135.67 L 125.81,135.46 L 127.03,135.34 L 129.16,135.04 L 130.15,134.88 M 153.75,106.16 L 153.00,105.96 L 151.74,105.59 L 151.16,105.40 L 150.23,105.06 L 149.80,104.89 L 149.16,104.53 L 148.88,104.35 L 148.51,103.96 L 148.21,103.56 L 148.31,102.49 L 149.33,100.24 L 149.64,99.67 L 150.14,99.01 L 150.41,98.77 L 151.12,98.89 L 151.33,98.97 L 151.86,99.31 L 152.15,99.52 L 152.88,100.11 L 153.27,100.44 L 154.25,101.31 L 156.04,102.94 L 156.79,103.62 L 158.00,104.74 L 158.56,105.26 L 159.38,106.06 L 159.73,106.43 L 160.13,106.95 L 160.28,107.18 L 160.25,107.45 L 160.17,107.55 L 159.69,107.58 L 159.39,107.56 L 158.44,107.38 L 157.90,107.27 L 156.47,106.90 L 155.69,106.69 M 34.66,97.52 L 33.88,96.74 L 32.44,94.66 L 31.75,93.57 L 30.64,91.22 L 30.15,90.05 L 29.56,87.86 L 29.45,87.35 L 29.37,86.42 L 29.47,85.26 L 29.73,84.22 L 30.89,82.22 L 31.55,81.25 L 33.28,79.58 L 34.19,78.80 L 36.20,77.72 L 39.17,77.03 L 39.91,77.04 L 40.88,77.08 L 41.29,77.11 L 41.62,77.24 L 41.71,77.31 L 41.46,77.57 L 40.50,78.15 L 39.93,78.47 L 38.94,79.24 L 38.47,79.65 L 37.68,80.58 L 36.95,81.54 L 36.15,83.74 L 35.86,84.86 L 36.04,87.07 L 36.15,87.61 L 36.57,88.63 L 37.51,90.01 L 37.83,90.36 L 38.24,91.00 L 38.40,91.33 L 38.51,92.05 L 38.52,92.44 L 38.32,93.44 L 37.70,95.46 L 37.39,96.35 L 36.93,97.52 L 36.71,98.01 L 36.33,98.45 L 36.13,98.58 L 35.65,98.39 L 35.39,98.23 M 137.46,92.91 L 136.35,91.77 L 133.85,89.51 L 132.56,88.39 L 129.72,86.19 L 128.27,85.10 L 125.16,82.99 L 123.58,81.94 L 120.25,79.95 L 116.88,77.99 L 109.71,74.56 L 98.75,70.42 L 97.96,70.17 L 96.52,69.65 L 95.83,69.39 L 94.69,68.88 L 94.17,68.63 L 93.45,68.19 L 93.00,67.69 L 93.00,67.43 L 93.32,66.77 L 93.53,66.42 L 94.20,65.61 L 94.95,64.78 L 97.15,62.95 L 98.31,62.05 L 100.84,60.46 L 101.46,60.10 L 102.66,59.52 L 104.29,58.92 L 105.11,58.69 L 106.93,58.38 L 107.87,58.25 L 109.86,58.11 L 111.89,58.01 L 116.17,58.29 L 118.30,58.51 L 122.37,59.39 L 123.35,59.64 L 125.17,60.24 L 127.63,61.30 L 128.83,61.91 L 131.08,63.29 L 132.18,64.01 L 134.22,65.58 L 135.21,66.39 L 137.01,68.13 L 137.88,69.02 L 139.42,70.89 L 140.16,71.84 L 141.43,73.83 L 142.03,74.83 L 143.00,76.90 L 143.44,77.94 L 144.09,80.07 L 144.69,83.29 L 144.84,84.75 L 144.88,88.05 L 144.85,89.71 L 144.60,92.84 L 144.53,93.57 L 144.33,94.89 L 144.23,95.51 L 143.99,96.52 L 143.86,96.98 L 143.59,97.61 L 143.15,98.00 L 143.05,98.00 L 142.48,97.60 L 142.14,97.34 L 141.18,96.50 L 140.66,96.04 L 139.45,94.88 L 138.82,94.28 M 151.35,85.93 L 151.32,84.98 L 151.34,83.56 L 151.37,82.92 L 151.51,82.08 L 151.60,81.72 L 151.89,81.38 L 152.50,81.36 L 152.67,81.43 L 153.48,81.65 L 153.95,81.77 L 155.21,82.07 L 159.90,83.06 L 160.74,83.22 L 162.27,83.58 L 163.00,83.75 L 164.21,84.09 L 164.76,84.26 L 165.52,84.55 L 166.00,84.89 L 166.00,84.98 L 165.47,85.33 L 165.13,85.53 L 164.02,86.06 L 163.41,86.35 L 161.88,86.99 L 159.26,88.01 L 158.34,88.35 L 156.61,89.00 L 155.77,89.31 L 154.35,89.84 L 153.70,90.09 L 152.74,90.46 L 152.01,90.75 L 151.94,90.78 L 151.80,90.45 L 151.73,90.22 L 151.61,89.44 L 151.55,89.00 L 151.45,87.88 L 151.40,87.28 M 146.67,70.33 L 144.05,65.17 L 150.71,62.60 L 151.62,62.25 L 153.32,61.63 L 154.13,61.34 L 155.51,60.88 L 156.14,60.68 L 157.04,60.44 L 157.70,60.37 L 157.74,60.41 L 157.55,60.96 L 157.42,61.30 L 156.91,62.34 L 156.62,62.90 L 155.87,64.28 L 154.54,66.60 L 153.58,68.22 L 151.82,71.21 L 151.42,71.88 L 150.79,72.95 L 150.17,74.00 L 150.00,74.29 L 149.62,74.47 L 149.41,74.49 L 148.92,74.09 L 148.65,73.81 L 147.97,72.75 L 147.60,72.13 M 79.67,64.05 L 78.66,62.94 L 77.08,60.93 L 76.74,60.48 L 76.29,59.77 L 76.00,59.11 L 76.00,58.99 L 76.47,58.88 L 76.78,58.86 L 77.76,58.93 L 78.31,58.98 L 79.67,59.22 L 82.00,59.73 L 82.83,59.94 L 84.33,60.37 L 85.04,60.58 L 86.23,60.99 L 86.77,61.18 L 87.50,61.51 L 87.96,61.87 L 87.96,61.96 L 87.77,62.34 L 87.65,62.56 L 87.26,63.14 L 85.63,65.31 L 83.33,68.11 L 79.67,64.05 M 132.68,56.56 L 131.63,55.92 L 130.04,54.66 L 129.72,54.38 L 129.30,53.89 L 129.08,53.37 L 129.12,53.20 L 129.70,52.49 L 130.05,52.09 L 131.12,51.01 L 131.70,50.44 L 133.08,49.16 L 133.79,48.50 L 135.31,47.16 L 136.07,46.50 L 137.55,45.25 L 138.27,44.66 L 139.54,43.66 L 140.13,43.21 L 141.01,42.62 L 141.69,42.36 L 141.75,42.42 L 141.67,43.13 L 141.60,43.56 L 141.31,44.86 L 141.15,45.57 L 140.70,47.26 L 140.47,48.13 L 139.93,49.99 L 139.38,51.86 L 138.27,55.26 L 138.01,56.01 L 137.56,57.17 L 137.05,58.19 L 136.98,58.28 L 136.54,58.27 L 136.28,58.23 L 135.54,57.99 L 134.75,57.69 M 89.86,51.48 L 89.50,50.59 L 88.89,48.97 L 88.61,48.19 L 88.19,46.90 L 88.01,46.32 L 87.84,45.51 L 87.89,45.00 L 87.98,45.00 L 88.54,45.35 L 88.87,45.58 L 89.82,46.31 L 90.33,46.72 L 91.54,47.74 L 93.53,49.47 L 98.50,53.94 L 96.00,55.95 L 95.31,56.50 L 94.09,57.37 L 93.82,57.55 L 93.39,57.80 L 93.00,57.96 L 92.93,57.96 L 92.60,57.45 L 92.40,57.13 L 91.87,56.06 L 91.59,55.48 L 90.92,54.00 L 90.58,53.23 M 108.42,49.35 L 108.51,49.12 L 108.79,48.21 L 108.95,47.69 L 109.34,46.32 L 110.65,41.35 L 110.87,40.47 L 111.32,38.88 L 111.55,38.12 L 111.98,36.86 L 112.19,36.29 L 112.54,35.50 L 112.94,35.00 L 113.03,35.00 L 113.37,35.55 L 113.56,35.90 L 114.05,37.01 L 114.31,37.62 L 114.88,39.12 L 115.17,39.89 L 115.77,41.59 L 116.35,43.30 L 117.34,46.56 L 117.54,47.30 L 117.83,48.52 L 118.01,49.75 L 118.01,49.96 L 117.69,50.30 L 117.48,50.45 L 116.73,50.69 L 116.30,50.79 L 115.13,50.92 L 112.89,51.00 L 111.81,51.00 L 110.29,50.94 L 109.62,50.89 L 108.83,50.70 L 108.51,50.58 L 108.28,50.20 L 108.23,49.98 M 110.77,124.25 L 110.30,123.60 L 109.19,121.99 L 108.62,121.16 L 107.40,119.36 L 106.80,118.45 L 105.63,116.67 L 104.09,114.26 L 100.81,109.02 L 94.65,113.53 L 93.47,114.40 L 91.51,115.83 L 90.59,116.49 L 89.12,117.52 L 88.45,117.99 L 87.41,118.66 L 86.94,118.95 L 86.27,119.27 L 85.98,119.40 L 85.62,119.41 L 85.47,119.37 L 85.36,119.10 L 85.32,118.92 L 85.39,118.38 L 85.63,117.30 L 85.72,116.92 L 86.04,115.87 L 86.21,115.32 L 86.65,114.05 L 88.16,110.17 L 88.66,108.98 L 89.46,106.84 L 89.63,106.36 L 89.85,105.62 L 90.00,104.92 L 90.00,104.79 L 89.51,104.55 L 89.19,104.44 L 88.16,104.24 L 87.60,104.14 L 86.18,104.01 L 83.75,103.89 L 81.91,103.86 L 77.70,103.60 L 75.61,103.45 L 71.78,103.06 L 70.91,102.96 L 69.43,102.75 L 68.75,102.65 L 67.78,102.46 L 67.38,102.37 L 67.07,102.21 L 67.50,102.03 L 68.14,101.94 L 69.00,101.84 L 69.44,101.80 L 70.57,101.81 L 70.92,101.82 L 71.82,101.86 L 72.32,101.89 L 73.61,101.97 L 74.31,102.02 L 76.11,102.15 L 79.50,102.38 L 88.50,103.01 L 85.00,99.87 L 84.55,99.47 L 83.85,98.82 L 83.53,98.53 L 83.10,98.09 L 82.92,97.90 L 82.76,97.67 L 82.73,97.59 L 82.87,97.58 L 82.98,97.60 L 83.43,97.81 L 83.69,97.95 L 84.46,98.38 L 84.88,98.62 L 85.97,99.28 L 88.00,100.51 L 88.97,101.11 L 90.89,102.09 L 91.83,102.53 L 93.46,103.12 L 94.22,103.36 L 95.30,103.49 L 95.52,103.48 L 95.82,103.38 L 96.00,103.06 L 96.00,103.01 L 95.80,102.83 L 95.67,102.72 L 95.24,102.44 L 94.75,102.13 L 93.19,101.27 L 92.33,100.81 L 90.22,99.73 L 89.12,99.17 L 86.70,97.99 L 84.25,96.80 L 79.45,94.62 L 78.34,94.13 L 76.44,93.34 L 74.34,92.57 L 73.75,92.39 L 72.45,91.67 L 70.94,90.43 L 70.67,90.10 L 70.39,89.68 L 70.30,89.51 L 70.42,89.39 L 70.53,89.37 L 71.12,89.53 L 72.60,90.08 L 74.63,90.87 L 78.13,92.23 L 79.79,92.87 L 82.60,93.93 L 83.93,94.42 L 86.11,95.20 L 87.13,95.56 L 88.74,96.07 L 89.48,96.30 L 90.59,96.57 L 91.08,96.68 L 91.74,96.73 L 92.02,96.72 L 92.29,96.56 L 92.34,96.12 L 92.23,95.78 L 92.14,95.36 L 92.11,95.19 L 92.20,95.12 L 92.26,95.13 L 92.56,95.42 L 93.28,96.25 L 93.68,96.73 L 94.53,97.49 L 95.52,98.00 L 95.62,98.00 L 95.68,97.85 L 95.69,97.75 L 95.56,97.42 L 94.54,96.04 L 94.05,95.50 L 93.05,94.72 L 91.98,94.29 L 91.87,94.32 L 91.43,94.04 L 91.18,93.85 L 90.51,93.19 L 90.16,92.82 L 89.36,91.88 L 88.09,90.25 L 87.66,89.67 L 86.94,88.60 L 86.61,88.09 L 86.11,87.25 L 85.90,86.86 L 85.68,86.34 L 85.71,86.00 L 85.81,86.00 L 86.44,86.43 L 86.81,86.71 L 87.86,87.62 L 88.43,88.12 L 89.79,89.37 L 92.01,91.51 L 97.58,97.02 L 102.43,93.94 L 107.28,90.87 L 106.57,94.18 L 106.38,95.10 L 105.91,97.48 L 105.30,100.75 L 104.74,104.00 L 114.12,104.18 L 123.50,104.37 L 115.51,104.93 L 107.52,105.50 L 112.76,108.85 L 113.48,109.31 L 114.75,110.22 L 115.34,110.67 L 116.29,111.48 L 116.72,111.87 L 117.24,112.49 L 117.44,113.10 L 117.28,113.35 L 117.52,113.74 L 118.51,114.00 L 118.73,114.00 L 119.49,114.22 L 119.90,114.35 L 120.94,114.79 L 122.03,115.27 L 124.51,116.58 L 125.71,117.24 L 127.63,118.48 L 128.02,118.76 L 128.52,119.21 L 128.71,119.63 L 128.68,119.65 L 128.42,119.61 L 128.25,119.58 L 127.74,119.42 L 127.17,119.24 L 125.41,118.58 L 124.44,118.20 L 122.05,117.23 L 118.02,115.51 L 116.60,114.89 L 113.99,113.76 L 112.74,113.22 L 110.64,112.32 L 109.67,111.92 L 108.31,111.36 L 108.03,111.24 L 107.65,111.09 L 107.37,111.00 L 107.32,111.00 L 107.44,111.45 L 107.52,111.75 L 107.87,112.69 L 108.07,113.21 L 108.61,114.52 L 109.57,116.75 L 109.92,117.54 L 110.55,119.00 L 110.85,119.70 L 111.34,120.89 L 111.57,121.43 L 111.86,122.21 L 112.04,122.76 L 112.02,122.80 L 112.13,123.10 L 112.20,123.28 L 112.44,123.82 L 113.51,126.01 L 113.79,126.56 L 114.20,127.41 L 114.38,127.80 L 114.58,128.34 L 114.65,128.57 L 114.66,128.80 L 114.63,128.88 L 114.44,128.80 L 114.32,128.72 L 113.94,128.34 L 113.72,128.11 L 113.15,127.42 L 112.84,127.04 L 112.09,126.06 L 111.70,125.53 M 110.00,120.00 L 109.71,119.45 L 109.10,118.59 L 108.43,118.00 L 108.29,118.00 L 108.39,118.59 L 109.00,120.00 L 109.29,120.55 L 109.90,121.41 L 110.57,122.00 L 110.71,122.00 L 110.61,121.41 L 110.51,121.05 M 94.00,112.34 L 94.82,111.70 L 96.33,110.50 L 97.05,109.92 L 98.24,108.93 L 98.78,108.47 L 99.53,107.80 L 100.00,107.27 L 100.00,107.16 L 99.71,106.45 L 99.02,105.05 L 98.83,104.69 L 98.72,103.93 L 98.71,103.54 L 99.01,102.60 L 99.21,102.09 L 99.99,100.82 L 101.75,98.36 L 102.14,97.85 L 102.79,96.99 L 103.09,96.58 L 103.56,95.93 L 103.98,95.32 L 104.32,94.68 L 104.41,94.45 L 104.11,94.46 L 102.98,95.10 L 102.30,95.54 L 100.59,96.62 L 98.31,98.05 L 97.90,98.30 L 97.31,98.82 L 97.04,99.09 L 96.72,99.68 L 96.59,99.99 L 96.52,100.72 L 96.66,102.04 L 96.76,102.56 L 96.69,103.61 L 96.60,104.15 L 96.06,105.38 L 95.71,106.04 L 94.57,107.68 L 92.06,110.84 L 91.35,111.68 L 90.11,113.23 L 89.52,113.97 L 88.59,115.19 L 88.17,115.75 L 87.66,116.51 L 87.46,117.00 L 87.54,117.00 L 88.14,116.63 L 88.51,116.40 L 89.60,115.63 L 90.20,115.21 L 91.63,114.15 L 92.37,113.59 M 108.00,115.13 L 108.00,114.97 L 107.82,114.50 L 107.71,114.24 L 107.34,113.62 L 106.95,112.97 L 105.85,111.57 L 105.30,110.89 L 104.26,109.86 L 104.02,109.66 L 103.65,109.42 L 103.28,109.39 L 103.22,109.45 L 103.29,109.82 L 103.35,110.03 L 103.62,110.63 L 103.94,111.27 L 104.93,112.88 L 105.45,113.68 L 106.48,115.04 L 106.72,115.33 L 107.13,115.74 L 107.57,116.00 L 107.69,116.00 L 107.87,115.75 L 107.95,115.59 M 111.05,108.89 L 109.33,107.80 L 106.42,106.08 L 105.74,105.70 L 104.53,105.04 L 103.95,104.74 L 102.94,104.25 L 102.47,104.03 L 101.68,103.72 L 101.32,103.59 L 100.76,103.46 L 100.51,103.42 L 100.19,103.48 L 100.00,103.77 L 100.00,103.88 L 100.65,104.41 L 101.06,104.71 L 102.37,105.56 L 103.08,106.01 L 104.82,107.04 L 105.73,107.57 L 107.68,108.67 L 108.67,109.22 L 110.61,110.27 L 111.56,110.77 L 113.28,111.64 L 114.09,112.04 L 115.35,112.60 L 116.50,112.97 L 116.64,112.97 L 116.38,112.65 L 116.17,112.44 L 115.31,111.78 L 114.82,111.41 L 113.48,110.48 L 112.76,109.99 M 135.61,125.52 L 135.06,124.69 L 134.49,123.50 L 134.29,122.99 L 134.42,122.45 L 134.57,122.25 L 135.40,122.35 L 137.43,123.21 L 138.00,123.51 L 138.76,123.99 L 139.08,124.22 L 139.36,124.65 L 139.45,124.87 L 139.32,125.39 L 138.70,126.39 L 138.39,126.82 L 137.92,127.34 L 137.70,127.54 L 137.31,127.56 L 137.10,127.50 L 136.62,126.97 L 136.35,126.64 M 81.50,123.62 L 81.03,123.27 L 80.44,122.79 L 80.20,122.57 L 80.06,122.26 L 80.04,122.11 L 80.35,121.87 L 81.29,121.45 L 81.83,121.24 L 82.67,121.10 L 83.04,121.08 L 83.55,121.32 L 83.76,121.49 L 83.94,122.11 L 83.84,123.47 L 83.76,123.83 L 83.60,124.29 L 83.50,124.48 L 83.22,124.59 L 83.06,124.60 L 82.58,124.36 L 82.30,124.20 M 108.00,88.50 L 108.00,88.09 L 108.42,87.44 L 109.44,87.00 L 109.97,87.00 L 110.74,87.28 L 111.08,87.45 L 111.41,87.93 L 111.51,88.19 L 111.33,88.72 L 110.41,89.40 L 109.86,89.61 L 109.10,89.85 L 108.76,89.94 L 108.37,89.90 L 108.21,89.84 L 108.06,89.47 L 108.01,89.24 M 58.25,86.33 L 57.52,85.82 L 56.62,84.91 L 56.25,84.49 L 56.07,83.85 L 56.07,83.57 L 56.61,83.33 L 58.24,83.58 L 58.74,83.74 L 59.39,83.90 L 59.66,83.96 L 59.88,83.90 L 59.94,83.83 L 59.77,83.50 L 59.12,82.64 L 58.65,82.08 L 58.35,81.42 L 58.30,81.16 L 58.72,81.08 L 59.00,81.12 L 60.00,81.62 L 62.00,83.00 L 64.50,84.96 L 62.13,84.98 L 61.63,84.98 L 60.96,85.05 L 60.68,85.09 L 60.42,85.27 L 60.34,85.38 L 60.45,85.73 L 61.00,86.50 L 61.40,86.98 L 61.65,87.57 L 61.70,87.80 L 61.31,87.89 L 61.05,87.88 L 60.12,87.47 L 59.60,87.21 Z" fill="#af8666"/>
</g>
</svg>