<svg xmlns="http://www.w3.org/2000/svg" width="196" height="196" viewBox="0 0 196 196">
<g>
<path d="M 47.50,152.34 L 46.95,152.19 L 46.11,151.91 L 45.73,151.77 L 45.21,151.51 L 44.99,151.39 L 44.80,151.15 L 44.74,151.03 L 44.85,150.83 L 44.95,150.73 L 45.38,150.56 L 45.63,150.48 L 46.36,150.36 L 46.76,150.30 L 47.78,150.22 L 49.65,150.17 L 50.49,150.17 L 52.66,149.96 L 53.81,149.82 L 56.39,149.39 L 64.50,147.45 L 66.88,146.74 L 72.09,145.60 L 74.69,145.08 L 79.60,144.41 L 80.76,144.27 L 82.85,144.11 L 83.85,144.05 L 85.51,144.05 L 86.28,144.08 L 87.40,144.25 L 88.32,144.72 L 88.41,144.86 L 88.15,145.11 L 87.95,145.23 L 87.17,145.43 L 86.72,145.52 L 85.49,145.65 L 83.21,145.75 L 82.34,145.76 L 80.17,145.99 L 79.03,146.14 L 76.44,146.64 L 75.11,146.91 L 72.27,147.62 L 67.90,148.91 L 65.43,149.70 L 61.04,150.91 L 58.94,151.46 L 55.31,152.16 L 53.60,152.45 L 50.78,152.64 L 49.47,152.67 M 128.00,147.98 L 126.22,147.49 L 123.07,146.67 L 121.55,146.28 L 118.87,145.66 L 117.58,145.37 L 115.29,144.94 L 114.20,144.74 L 112.25,144.50 L 111.31,144.40 L 109.63,144.32 L 108.81,144.31 L 107.32,144.41 L 103.25,145.30 L 102.54,145.55 L 101.39,145.87 L 100.87,146.01 L 100.09,146.15 L 99.74,146.19 L 99.32,146.15 L 99.16,146.11 L 99.10,145.93 L 99.11,145.82 L 99.41,145.51 L 99.60,145.34 L 100.25,144.93 L 100.62,144.72 L 101.62,144.23 L 103.50,143.45 L 105.00,142.87 L 108.41,142.30 L 109.31,142.21 L 111.25,142.17 L 112.25,142.17 L 114.43,142.33 L 115.54,142.44 L 117.98,142.80 L 119.24,143.01 L 121.98,143.57 L 123.39,143.88 L 126.47,144.66 L 131.50,146.07 L 133.29,146.59 L 136.66,147.47 L 138.32,147.87 L 141.38,148.50 L 142.87,148.78 L 145.58,149.15 L 149.15,149.40 L 150.07,149.42 L 151.70,149.50 L 152.47,149.55 L 153.71,149.69 L 154.27,149.77 L 155.00,149.95 L 155.34,150.25 L 155.20,150.48 L 154.26,150.80 L 153.69,150.94 L 152.03,151.08 L 151.12,151.12 L 148.89,151.09 L 147.72,151.06 L 145.09,150.87 L 142.38,150.64 L 136.44,149.78 L 134.96,149.54 L 132.07,148.96 L 130.65,148.66 M 43.00,146.06 L 42.08,145.88 L 40.20,145.31 L 39.28,145.01 L 37.62,144.30 L 36.85,143.95 L 35.73,143.25 L 35.00,142.36 L 35.00,142.20 L 35.51,142.17 L 36.75,142.52 L 38.51,143.25 L 42.30,144.06 L 43.29,144.21 L 45.39,144.33 L 46.46,144.36 L 48.77,144.26 L 49.95,144.18 L 52.52,143.84 L 53.84,143.64 L 56.70,143.06 L 58.18,142.75 L 61.39,141.94 L 66.64,140.45 L 68.65,139.84 L 72.82,138.96 L 74.89,138.57 L 78.78,138.15 L 79.71,138.07 L 81.42,138.02 L 82.25,138.01 L 83.70,138.08 L 84.39,138.14 L 85.51,138.35 L 86.76,138.83 L 86.93,138.94 L 86.76,139.14 L 86.60,139.24 L 85.83,139.40 L 85.38,139.48 L 84.11,139.58 L 81.76,139.66 L 80.78,139.66 L 78.59,139.85 L 77.46,139.96 L 75.03,140.36 L 67.50,142.25 L 65.30,142.95 L 60.38,144.25 L 59.20,144.55 L 57.07,145.02 L 54.50,145.49 L 53.12,145.67 L 50.53,146.05 L 49.94,146.14 L 48.98,146.29 L 48.00,146.46 L 47.79,146.50 L 47.14,146.52 L 46.78,146.52 L 45.91,146.46 L 45.01,146.39 M 139.00,142.03 L 138.11,141.78 L 135.93,141.15 L 134.79,140.82 L 132.36,140.11 L 131.14,139.75 L 128.74,139.05 L 125.52,138.09 L 123.47,137.48 L 119.56,136.67 L 117.64,136.34 L 113.95,136.09 L 112.12,136.04 L 108.60,136.36 L 103.46,137.46 L 102.12,137.87 L 99.92,138.39 L 99.45,138.50 L 98.76,138.60 L 98.24,138.58 L 98.20,138.53 L 98.41,138.26 L 98.56,138.09 L 99.11,137.64 L 101.70,135.86 L 102.52,135.35 L 103.99,134.64 L 104.74,134.32 L 106.42,133.92 L 107.33,133.76 L 109.69,133.60 L 110.34,133.57 L 111.86,133.55 L 114.50,133.54 L 115.51,133.54 L 117.27,133.58 L 118.11,133.60 L 119.60,133.68 L 121.05,133.77 L 123.58,134.20 L 124.86,134.47 L 127.65,135.37 L 128.40,135.63 L 130.09,136.28 L 133.00,137.44 L 134.83,138.18 L 137.94,139.31 L 139.44,139.83 L 142.15,140.58 L 143.48,140.91 L 146.12,141.36 L 150.34,141.78 L 151.56,141.86 L 153.53,142.04 L 154.43,142.14 L 155.73,142.36 L 156.29,142.48 L 156.86,142.73 L 156.84,143.12 L 156.56,143.29 L 155.72,143.56 L 155.25,143.67 L 154.09,143.82 L 152.85,143.94 L 149.68,143.84 L 148.02,143.74 L 144.39,143.23 L 142.56,142.93 M 40.66,137.63 L 39.05,137.27 L 36.32,136.35 L 35.72,136.13 L 34.82,135.69 L 34.07,135.12 L 34.02,135.03 L 33.92,134.30 L 33.87,133.84 L 33.76,132.42 L 33.71,131.63 L 33.62,129.61 L 33.57,128.53 L 33.48,125.98 L 33.43,124.65 L 33.35,121.65 L 33.31,120.11 L 33.24,116.75 L 33.09,105.70 L 33.06,101.83 L 32.97,94.12 L 32.95,92.23 L 32.90,88.59 L 32.87,86.80 L 32.82,83.44 L 32.79,81.79 L 32.74,78.80 L 32.71,77.36 L 32.65,74.83 L 32.62,73.64 L 32.57,71.68 L 32.49,69.50 L 32.39,67.30 L 32.38,63.09 L 32.39,62.13 L 32.47,60.54 L 32.65,58.90 L 32.78,58.26 L 33.10,57.41 L 33.33,57.04 L 34.28,56.65 L 34.58,56.57 L 35.41,56.47 L 35.87,56.43 L 37.06,56.39 L 37.71,56.37 L 39.33,56.37 L 42.34,56.40 L 43.40,56.41 L 45.23,56.41 L 46.11,56.40 L 47.65,56.34 L 49.15,56.26 L 51.85,55.82 L 52.54,55.68 L 54.00,55.29 L 54.76,55.08 L 56.45,54.53 L 57.33,54.23 L 59.37,53.50 L 62.97,52.15 L 64.26,51.66 L 66.48,50.84 L 67.54,50.45 L 69.35,49.82 L 70.21,49.53 L 71.71,49.07 L 72.44,48.87 L 73.74,48.56 L 75.01,48.29 L 77.40,48.10 L 81.58,48.16 L 82.90,48.23 L 85.06,48.36 L 86.07,48.44 L 87.67,48.72 L 88.41,48.89 L 89.53,49.45 L 90.03,49.79 L 90.76,50.80 L 91.08,51.38 L 91.49,52.99 L 91.67,53.89 L 91.86,56.26 L 91.93,57.55 L 91.99,60.82 L 91.99,61.71 L 92.00,63.67 L 92.00,66.92 L 92.00,68.18 L 91.98,70.50 L 91.97,71.63 L 91.93,73.69 L 91.90,74.68 L 91.84,76.47 L 91.80,77.32 L 91.71,78.82 L 91.67,79.53 L 91.56,80.73 L 91.50,81.30 L 91.37,82.20 L 91.30,82.61 L 91.15,83.19 L 90.90,83.70 L 90.70,83.90 L 90.10,84.08 L 89.76,84.13 L 88.83,83.99 L 88.32,83.88 L 86.98,83.42 L 84.44,82.34 L 82.96,81.67 L 79.61,80.44 L 78.80,80.16 L 77.33,79.73 L 75.54,79.31 L 74.72,79.18 L 73.56,79.09 L 73.05,79.08 L 72.32,79.35 L 71.99,79.54 L 71.44,80.32 L 70.56,82.21 L 70.16,83.17 L 69.66,85.23 L 69.57,85.71 L 69.49,86.58 L 69.55,87.59 L 69.63,87.93 L 69.50,88.66 L 69.38,89.04 L 68.83,89.87 L 68.51,90.31 L 67.51,91.29 L 65.46,93.00 L 60.93,96.50 L 61.12,103.46 L 61.32,110.43 L 54.51,116.60 L 53.31,117.69 L 51.45,119.49 L 50.62,120.34 L 49.45,121.70 L 48.95,122.33 L 48.43,123.30 L 48.32,124.39 L 48.56,125.00 L 49.36,125.67 L 49.60,125.78 L 50.21,125.86 L 50.54,125.87 L 51.36,125.74 L 51.80,125.65 L 52.86,125.29 L 53.42,125.09 L 54.76,124.51 L 55.47,124.19 L 57.12,123.37 L 60.00,121.88 L 67.74,117.75 L 72.91,119.47 L 73.64,119.71 L 74.84,120.10 L 75.40,120.28 L 76.36,120.50 L 76.81,120.58 L 77.63,120.59 L 78.03,120.56 L 78.83,120.31 L 79.24,120.14 L 80.12,119.59 L 80.59,119.26 L 81.68,118.36 L 82.25,117.86 L 83.65,116.56 L 86.23,114.11 L 86.78,113.59 L 87.70,112.70 L 88.13,112.27 L 88.82,111.54 L 89.46,110.84 L 90.16,109.72 L 90.44,109.16 L 90.57,108.01 L 90.35,105.81 L 90.25,105.18 L 90.16,104.15 L 90.13,103.67 L 90.18,102.96 L 90.23,102.64 L 90.42,102.24 L 90.87,102.00 L 90.97,102.00 L 91.15,102.23 L 91.23,102.38 L 91.38,102.92 L 91.45,103.23 L 91.58,104.09 L 91.63,104.57 L 91.73,105.77 L 91.78,106.41 L 91.85,107.97 L 91.89,108.79 L 91.93,110.70 L 91.96,111.71 L 91.98,114.00 L 92.00,117.87 L 92.00,133.75 L 83.06,133.24 L 82.09,133.18 L 80.39,133.11 L 79.57,133.08 L 78.11,133.06 L 76.69,133.06 L 74.22,133.28 L 72.99,133.43 L 70.42,133.99 L 69.75,134.16 L 68.26,134.58 L 65.77,135.33 L 63.12,136.16 L 58.42,137.32 L 56.14,137.81 L 52.01,138.34 L 50.00,138.52 L 46.21,138.43 L 44.34,138.32 M 70.53,126.77 L 71.42,126.60 L 73.04,126.23 L 73.81,126.04 L 75.10,125.66 L 75.69,125.47 L 76.49,125.13 L 77.00,124.71 L 77.00,124.59 L 76.68,124.44 L 76.47,124.37 L 75.78,124.33 L 75.40,124.32 L 74.39,124.38 L 73.86,124.42 L 72.60,124.57 L 71.29,124.74 L 68.16,125.33 L 63.16,126.54 L 62.36,126.76 L 61.28,127.12 L 60.83,127.29 L 60.38,127.55 L 60.23,127.67 L 60.36,127.82 L 60.49,127.89 L 61.14,127.94 L 61.53,127.95 L 62.64,127.90 L 63.24,127.85 L 64.75,127.69 L 65.56,127.59 L 67.41,127.31 L 68.38,127.16 M 53.00,106.00 L 53.26,105.83 L 53.23,105.56 L 53.13,105.44 L 52.34,105.26 L 51.85,105.18 L 50.28,105.09 L 47.00,105.03 L 45.70,105.03 L 43.72,105.09 L 42.83,105.13 L 41.66,105.26 L 41.17,105.34 L 40.77,105.56 L 41.00,106.00 L 41.21,106.13 L 41.94,106.38 L 42.35,106.49 L 43.38,106.68 L 47.00,106.97 L 48.24,106.97 L 50.62,106.68 L 51.16,106.60 L 52.06,106.38 L 52.47,106.26 M 56.04,95.36 L 56.16,95.24 L 56.02,95.04 L 55.89,94.96 L 55.30,94.84 L 54.96,94.80 L 53.99,94.77 L 52.20,94.84 L 50.91,94.94 L 48.59,95.39 L 48.07,95.52 L 47.26,95.79 L 46.50,96.22 L 46.33,96.39 L 46.35,96.64 L 46.42,96.75 L 46.93,96.87 L 47.24,96.91 L 48.25,96.90 L 50.34,96.73 L 51.67,96.59 L 54.01,96.12 L 54.52,96.00 L 55.32,95.74 L 55.67,95.61 M 53.00,85.00 L 53.23,84.85 L 53.35,84.60 L 53.35,84.49 L 53.07,84.32 L 52.89,84.24 L 52.29,84.15 L 51.96,84.11 L 51.12,84.09 L 50.24,84.09 L 48.11,84.32 L 45.00,85.00 L 44.48,85.17 L 43.91,85.41 L 43.71,85.52 L 43.82,85.67 L 43.97,85.73 L 44.82,85.81 L 47.00,85.89 L 48.24,85.91 L 50.62,85.66 L 51.16,85.58 L 52.06,85.37 L 52.47,85.26 M 61.36,67.80 L 62.73,67.47 L 64.90,66.88 L 65.89,66.60 L 67.31,66.13 L 67.93,65.91 L 68.63,65.58 L 68.88,65.43 L 68.86,65.25 L 68.77,65.18 L 68.05,65.16 L 67.61,65.17 L 66.22,65.32 L 65.45,65.42 L 63.40,65.77 L 59.61,66.51 L 57.35,66.98 L 52.42,67.62 L 51.25,67.74 L 49.16,67.87 L 46.69,67.86 L 45.55,67.77 L 43.81,67.80 L 43.05,67.85 L 42.20,68.11 L 42.05,68.18 L 41.94,68.36 L 41.92,68.45 L 42.10,68.65 L 42.22,68.75 L 42.69,68.97 L 43.75,69.31 L 44.73,69.57 L 46.96,69.80 L 48.13,69.87 L 50.83,69.72 L 52.26,69.60 L 55.57,69.06 L 57.32,68.74 M 133.00,132.79 L 131.24,132.11 L 128.00,130.99 L 126.42,130.47 L 123.47,129.68 L 122.02,129.34 L 119.26,128.89 L 117.90,128.71 L 115.26,128.60 L 113.94,128.59 L 111.33,128.82 L 110.02,128.97 L 107.36,129.53 L 106.01,129.86 L 103.20,130.75 L 98.75,132.47 L 98.34,132.64 L 97.79,132.47 L 97.67,132.35 L 97.48,131.87 L 97.40,131.58 L 97.27,130.69 L 97.21,130.19 L 97.13,128.79 L 97.09,128.02 L 97.05,126.03 L 97.03,124.95 L 97.02,122.26 L 97.01,117.36 L 97.02,101.50 L 109.73,95.50 L 111.42,94.70 L 115.15,92.88 L 117.05,91.94 L 121.11,89.90 L 125.22,87.81 L 133.83,83.26 L 138.12,80.98 L 146.27,76.48 L 148.22,75.38 L 151.85,73.30 L 156.75,70.42 L 164.00,66.04 L 164.00,100.55 L 164.00,135.05 L 161.43,136.02 L 161.08,136.16 L 159.83,136.40 L 159.14,136.51 L 157.37,136.70 L 151.18,136.95 L 149.54,136.94 L 146.83,136.78 L 145.52,136.66 L 142.99,136.18 L 141.69,135.88 L 138.70,134.92 L 137.90,134.65 L 136.09,133.98 L 135.14,133.63 M 147.00,124.09 L 147.47,123.95 L 147.82,123.71 L 147.90,123.60 L 147.42,123.38 L 147.06,123.27 L 145.68,123.04 L 142.50,122.68 L 140.57,122.49 L 136.67,122.05 L 135.77,121.95 L 134.22,121.75 L 132.50,121.52 L 132.09,121.45 L 131.77,121.48 L 131.69,121.52 L 132.00,121.74 L 132.22,121.87 L 133.10,122.25 L 135.00,122.96 L 136.47,123.47 L 138.80,124.16 L 139.89,124.45 L 141.73,124.72 L 142.61,124.80 L 144.29,124.67 L 145.14,124.57 M 129.00,113.06 L 128.79,112.94 L 128.10,112.67 L 127.72,112.54 L 126.77,112.27 L 123.50,111.59 L 119.50,111.00 L 122.50,112.45 L 123.33,112.86 L 125.29,113.45 L 126.26,113.70 L 127.98,113.94 L 128.37,113.98 L 128.98,113.97 L 129.25,113.96 L 129.57,113.84 L 129.68,113.77 L 129.62,113.54 L 129.53,113.41 M 143.50,113.10 L 144.21,112.96 L 145.24,112.70 L 145.68,112.57 L 146.19,112.32 L 146.38,112.20 L 146.39,111.96 L 145.86,111.59 L 145.64,111.49 L 144.84,111.43 L 144.40,111.42 L 143.28,111.52 L 139.36,112.37 L 138.70,112.57 L 137.73,112.92 L 137.30,113.09 L 136.79,113.36 L 136.59,113.49 L 136.51,113.68 L 136.52,113.76 L 136.84,113.86 L 137.05,113.89 L 137.75,113.90 L 138.14,113.88 L 139.19,113.79 L 139.75,113.73 L 141.12,113.52 L 141.84,113.41 M 153.00,103.00 L 153.26,102.84 L 153.03,102.57 L 152.78,102.45 L 151.55,102.26 L 150.80,102.18 L 148.52,102.08 L 147.89,102.06 L 146.43,102.03 L 143.93,102.02 L 142.35,102.01 L 139.29,101.91 L 137.79,101.84 L 135.05,101.61 L 133.74,101.49 L 131.50,101.16 L 128.93,100.58 L 127.48,100.12 L 124.17,99.39 L 122.51,99.07 L 119.30,98.67 L 118.54,98.60 L 117.16,98.52 L 116.50,98.49 L 115.38,98.52 L 114.87,98.55 L 114.11,98.69 L 113.47,99.05 L 113.39,99.18 L 113.53,99.43 L 113.65,99.54 L 114.15,99.73 L 114.44,99.82 L 115.24,99.94 L 116.69,100.02 L 117.74,100.03 L 120.56,100.35 L 124.50,101.11 L 125.53,101.38 L 128.00,101.88 L 129.29,102.12 L 132.11,102.54 L 134.99,102.94 L 140.98,103.44 L 142.43,103.53 L 145.14,103.64 L 146.45,103.67 L 148.73,103.64 L 149.80,103.61 L 151.45,103.44 L 152.18,103.33 M 152.50,90.48 L 157.50,89.04 L 149.00,89.77 L 146.66,89.97 L 141.60,90.23 L 140.40,90.28 L 138.27,90.33 L 135.75,90.32 L 135.10,90.29 L 133.91,90.32 L 133.34,90.35 L 132.40,90.47 L 131.96,90.53 L 131.37,90.72 L 131.00,91.07 L 131.00,91.25 L 131.69,91.53 L 132.14,91.65 L 133.57,91.81 L 134.36,91.88 L 136.33,91.94 L 137.36,91.96 L 139.66,91.92 L 142.00,91.85 L 146.79,91.45 L 147.92,91.33 L 149.97,91.02 L 150.94,90.86 M 56.00,118.28 L 56.48,117.90 L 57.87,116.74 L 58.62,116.11 L 60.38,114.57 L 66.00,109.46 L 66.89,108.62 L 69.19,106.53 L 70.40,105.44 L 73.09,103.07 L 74.45,101.87 L 77.19,99.50 L 81.00,96.27 L 82.17,95.30 L 84.77,93.04 L 86.09,91.88 L 88.77,89.46 L 90.08,88.26 L 92.50,85.97 L 95.50,83.01 L 98.59,79.82 L 104.95,74.01 L 108.14,71.20 L 114.66,66.19 L 117.93,63.78 L 124.54,59.59 L 127.85,57.60 L 134.51,54.27 L 137.83,52.71 L 144.46,50.26 L 147.76,49.14 L 154.31,47.60 L 157.56,46.95 L 163.96,46.35 L 173.32,46.53 L 175.03,46.70 L 177.81,46.99 L 179.09,47.14 L 180.97,47.44 L 181.79,47.60 L 182.73,48.01 L 183.08,48.24 L 183.03,48.85 L 182.96,49.02 L 182.62,49.41 L 182.41,49.62 L 181.81,50.10 L 181.48,50.35 L 180.61,50.92 L 180.15,51.21 L 179.01,51.89 L 178.41,52.24 L 177.00,53.04 L 176.26,53.45 L 174.57,54.37 L 173.69,54.85 L 171.71,55.92 L 168.41,57.69 L 166.85,58.53 L 163.97,60.07 L 162.57,60.82 L 160.03,62.18 L 158.80,62.84 L 156.56,64.03 L 155.48,64.60 L 153.52,65.63 L 152.58,66.13 L 150.89,67.00 L 150.08,67.42 L 148.63,68.16 L 147.23,68.87 L 145.06,69.90 L 144.06,70.36 L 142.56,70.98 L 141.87,71.24 L 140.84,71.51 L 140.37,71.61 L 139.64,71.63 L 138.69,71.47 L 137.93,71.25 L 136.68,70.90 L 136.10,70.74 L 135.18,70.50 L 134.76,70.40 L 134.15,70.27 L 133.89,70.22 L 133.57,70.22 L 133.44,70.23 L 133.38,70.34 L 133.39,70.41 L 133.57,70.65 L 134.91,71.81 L 137.32,73.75 L 117.95,83.62 L 115.60,84.82 L 111.24,87.00 L 109.12,88.04 L 105.23,89.91 L 103.34,90.81 L 99.91,92.38 L 98.25,93.13 L 95.28,94.40 L 93.85,95.00 L 91.33,95.98 L 90.13,96.43 L 88.06,97.10 L 87.08,97.40 L 85.47,97.78 L 83.56,98.02 L 83.31,98.03 L 82.71,98.19 L 82.38,98.30 L 81.57,98.72 L 81.13,98.97 L 80.02,99.71 L 79.42,100.13 L 77.94,101.26 L 77.15,101.88 L 75.23,103.45 L 74.20,104.29 L 71.76,106.36 L 70.46,107.47 L 67.41,110.10 L 62.08,114.75 L 61.10,115.61 L 59.22,117.18 L 58.30,117.92 L 56.69,119.16 L 55.93,119.73 L 54.76,120.50 L 53.72,120.99 L 53.56,120.99 L 53.53,120.77 L 53.56,120.63 L 53.89,120.19 L 54.09,119.94 L 54.74,119.33 L 55.09,119.00 M 111.01,76.70 L 112.05,76.03 L 114.71,74.43 L 116.12,73.61 L 119.36,71.78 L 121.04,70.85 L 124.66,68.91 L 126.49,67.93 L 130.28,65.97 L 132.18,65.00 L 135.93,63.12 L 137.79,62.21 L 141.30,60.53 L 143.00,59.72 L 146.06,58.34 L 149.93,56.73 L 150.84,56.38 L 152.17,55.80 L 152.76,55.53 L 153.49,55.12 L 153.79,54.94 L 153.96,54.69 L 153.99,54.59 L 153.66,54.53 L 153.44,54.51 L 152.66,54.62 L 152.21,54.69 L 151.02,54.98 L 150.38,55.14 L 148.83,55.61 L 146.16,56.51 L 144.85,56.98 L 141.99,58.11 L 140.53,58.69 L 137.45,60.00 L 134.33,61.35 L 127.92,64.37 L 124.76,65.90 L 118.93,68.97 L 117.55,69.71 L 115.06,71.14 L 111.82,73.14 L 110.87,73.76 L 108.62,75.37 L 107.45,76.22 L 104.89,78.16 L 102.30,80.17 L 97.06,84.49 L 95.81,85.54 L 93.53,87.53 L 92.45,88.48 L 90.65,90.15 L 89.83,90.93 L 88.71,92.12 L 88.48,92.38 L 88.18,92.78 L 88.00,93.19 L 88.00,93.32 L 88.57,93.09 L 88.94,92.90 L 90.13,92.11 L 90.79,91.65 L 92.43,90.42 L 95.25,88.18 L 96.25,87.36 L 98.74,85.43 L 100.04,84.44 L 102.87,82.35 L 104.30,81.31 L 107.13,79.31 L 108.52,78.35 M 72.04,113.89 L 71.19,113.55 L 70.06,113.02 L 69.59,112.78 L 69.17,112.34 L 69.05,112.12 L 69.26,111.64 L 70.20,110.74 L 70.42,110.57 L 71.29,109.88 L 71.79,109.49 L 73.10,108.45 L 77.88,104.69 L 83.99,99.89 L 85.17,102.48 L 85.45,103.08 L 85.69,104.03 L 85.75,104.49 L 85.43,105.43 L 85.18,105.94 L 84.11,107.25 L 83.79,107.62 L 82.97,108.49 L 81.46,110.04 L 80.82,110.69 L 79.73,111.77 L 79.22,112.28 L 78.36,113.07 L 77.94,113.43 L 77.23,113.97 L 76.89,114.21 L 76.27,114.51 L 75.65,114.76 L 74.42,114.68 L 73.76,114.56 M 64.00,106.12 L 64.00,105.61 L 63.84,103.96 L 63.45,101.38 L 63.33,100.77 L 63.30,99.81 L 63.32,99.35 L 63.63,98.54 L 63.84,98.13 L 64.59,97.29 L 66.31,95.82 L 67.13,95.17 L 68.32,94.34 L 68.88,94.00 L 69.87,93.70 L 70.38,93.60 L 71.59,93.76 L 74.11,94.43 L 75.32,94.78 L 77.15,95.54 L 77.52,95.71 L 78.02,96.03 L 78.27,96.39 L 78.24,96.50 L 77.63,97.14 L 77.25,97.52 L 76.11,98.57 L 75.49,99.14 L 74.00,100.45 L 73.23,101.12 L 71.59,102.52 L 70.77,103.22 L 69.16,104.56 L 68.37,105.20 L 66.99,106.31 L 66.34,106.82 L 65.36,107.54 L 64.57,108.00 L 64.42,108.00 L 64.17,107.45 L 64.06,107.11 M 75.75,92.70 L 75.04,92.42 L 74.04,91.87 L 73.61,91.60 L 73.17,91.07 L 73.02,90.81 L 73.14,90.29 L 73.96,89.53 L 74.13,89.42 L 74.72,89.38 L 75.04,89.38 L 75.84,89.53 L 76.67,89.72 L 78.54,90.48 L 79.44,90.89 L 80.84,91.81 L 81.12,92.04 L 81.46,92.45 L 81.51,92.98 L 81.32,93.29 L 80.81,93.66 L 80.51,93.80 L 79.72,93.84 L 79.27,93.82 L 78.08,93.53 L 77.43,93.34 M 77.25,87.76 L 75.97,87.27 L 74.08,86.25 L 73.26,85.74 L 72.33,84.76 L 71.99,84.28 L 72.09,83.42 L 72.18,83.22 L 72.57,82.85 L 73.46,82.38 L 73.66,82.30 L 74.40,82.30 L 74.81,82.33 L 75.90,82.50 L 77.06,82.70 L 79.91,83.47 L 81.34,83.89 L 84.01,84.87 L 84.63,85.11 L 85.65,85.59 L 86.76,86.26 L 87.24,86.64 L 87.50,87.35 L 86.89,88.63 L 86.53,89.07 L 85.67,89.59 L 85.21,89.78 L 83.94,89.78 L 83.23,89.72 L 81.27,89.19 L 80.72,89.02 L 79.45,88.58 L 78.79,88.34 M 97.22,64.00 L 97.50,50.63 L 102.50,49.28 L 103.32,49.06 L 105.37,48.72 L 106.46,48.57 L 108.91,48.37 L 111.43,48.20 L 116.92,48.26 L 118.27,48.30 L 120.87,48.48 L 122.13,48.58 L 124.43,48.87 L 125.53,49.03 L 127.35,49.43 L 129.37,50.14 L 132.23,51.68 L 126.37,54.98 L 123.97,56.33 L 119.50,59.07 L 117.31,60.45 L 113.26,63.26 L 111.28,64.67 L 107.66,67.53 L 102.72,71.87 L 96.94,77.36 L 97.22,64.00 M 109.92,61.36 L 109.97,61.31 L 109.79,61.22 L 109.65,61.18 L 109.13,61.10 L 106.67,61.00 L 105.66,61.00 L 104.08,61.29 L 103.74,61.37 L 103.29,61.60 L 103.00,61.97 L 103.00,62.08 L 103.25,62.24 L 103.41,62.30 L 103.92,62.38 L 104.48,62.43 L 106.04,62.35 L 106.83,62.28 L 108.36,61.98 L 109.06,61.81 Z" fill="#af8666"/>
</g>
</svg>