<svg xmlns="http://www.w3.org/2000/svg" width="196" height="196" viewBox="0 0 196 196">
<g>
<path d="M 95.56,172.89 L 95.09,172.33 L 94.38,171.32 L 94.06,170.83 L 93.65,169.94 L 93.48,169.51 L 93.36,168.71 L 93.49,167.59 L 93.85,166.43 L 94.44,164.30 L 94.72,163.26 L 95.16,161.36 L 95.56,159.52 L 95.90,156.44 L 96.00,154.99 L 95.74,152.62 L 94.67,149.71 L 94.51,149.44 L 94.26,148.51 L 94.15,147.99 L 94.00,146.61 L 93.95,145.87 L 93.90,144.13 L 93.90,143.21 L 93.95,141.17 L 94.03,139.06 L 94.48,134.25 L 95.55,126.73 L 95.65,126.21 L 95.76,124.85 L 95.81,124.13 L 95.84,122.53 L 95.57,117.73 L 95.42,116.53 L 95.11,114.83 L 94.93,114.06 L 94.40,112.97 L 94.09,112.47 L 93.12,111.65 L 90.95,110.33 L 86.97,108.15 L 83.99,110.66 L 83.17,111.36 L 81.88,112.84 L 81.61,113.19 L 81.24,113.81 L 81.00,114.54 L 81.00,114.84 L 80.47,115.90 L 80.12,116.48 L 79.04,117.97 L 78.44,118.75 L 76.98,120.48 L 76.22,121.36 L 74.55,123.16 L 73.71,124.05 L 72.01,125.72 L 71.18,126.53 L 69.63,127.90 L 68.89,128.53 L 67.66,129.41 L 66.37,129.98 L 66.13,129.98 L 65.47,130.28 L 65.12,130.47 L 64.29,131.11 L 63.86,131.46 L 62.90,132.38 L 62.41,132.87 L 61.38,134.01 L 60.33,135.20 L 58.22,138.03 L 55.39,142.50 L 55.07,143.09 L 53.96,144.11 L 53.35,144.59 L 51.88,145.31 L 51.13,145.61 L 49.62,145.89 L 47.62,145.68 L 47.25,145.54 L 46.72,144.94 L 46.49,144.60 L 46.21,143.69 L 45.99,142.73 L 46.22,140.42 L 46.33,139.85 L 46.67,138.77 L 46.87,138.24 L 47.38,137.35 L 47.65,136.94 L 48.30,136.37 L 49.40,136.00 L 49.66,136.00 L 50.49,135.65 L 50.95,135.42 L 52.08,134.70 L 53.27,133.91 L 56.01,131.67 L 57.36,130.51 L 59.67,128.20 L 60.17,127.65 L 60.93,126.70 L 61.55,125.59 L 61.71,125.01 L 62.26,123.49 L 63.16,121.39 L 63.35,120.99 L 63.55,120.19 L 63.62,119.79 L 63.55,118.91 L 63.48,118.44 L 63.11,117.36 L 62.21,115.39 L 61.67,114.32 L 60.62,111.69 L 60.37,111.04 L 59.97,109.82 L 59.54,108.25 L 59.38,107.52 L 59.23,106.50 L 59.19,106.06 L 59.33,105.52 L 59.44,105.30 L 59.94,105.10 L 61.17,105.00 L 61.62,105.00 L 62.38,105.21 L 62.74,105.35 L 63.38,105.90 L 63.70,106.23 L 64.30,107.21 L 65.26,109.25 L 65.64,110.16 L 66.27,111.65 L 66.57,112.35 L 67.09,113.43 L 67.33,113.92 L 67.78,114.62 L 68.00,114.93 L 68.43,115.28 L 68.65,115.42 L 69.13,115.47 L 69.37,115.45 L 69.94,115.22 L 70.24,115.07 L 70.95,114.59 L 72.24,113.63 L 73.19,112.91 L 74.98,111.77 L 75.39,111.53 L 76.06,111.21 L 76.74,111.00 L 76.89,111.00 L 77.40,110.72 L 77.68,110.53 L 78.41,109.94 L 80.95,107.40 L 81.67,106.58 L 82.63,105.39 L 83.03,104.85 L 83.39,104.03 L 83.51,103.64 L 83.37,102.92 L 82.69,101.65 L 82.29,101.04 L 81.03,100.13 L 80.34,99.73 L 78.70,99.27 L 77.86,99.10 L 76.09,99.15 L 73.59,99.85 L 73.13,100.06 L 71.69,100.44 L 70.90,100.62 L 68.93,100.90 L 66.87,101.17 L 62.08,101.40 L 60.89,101.43 L 58.62,101.41 L 57.52,101.39 L 55.57,101.26 L 54.65,101.18 L 53.24,100.94 L 51.94,100.43 L 51.63,100.15 L 50.88,99.79 L 50.48,99.63 L 49.39,99.50 L 48.78,99.47 L 47.17,99.57 L 43.94,99.96 L 42.17,100.21 L 38.59,100.80 L 37.76,100.95 L 36.34,101.22 L 34.78,101.55 L 34.26,101.68 L 33.33,101.75 L 32.87,101.75 L 31.99,101.54 L 31.55,101.40 L 30.62,100.87 L 29.04,99.69 L 26.03,97.15 L 29.09,94.58 L 29.86,93.93 L 31.39,92.99 L 32.14,92.58 L 33.53,92.14 L 34.19,91.99 L 35.29,92.09 L 36.43,92.88 L 36.50,93.00 L 37.15,93.28 L 37.54,93.42 L 38.70,93.71 L 39.34,93.85 L 40.87,94.12 L 43.41,94.45 L 44.69,94.59 L 46.69,94.72 L 47.61,94.76 L 49.06,94.67 L 49.73,94.60 L 50.83,94.28 L 52.35,93.51 L 53.03,93.06 L 54.62,92.45 L 56.60,92.19 L 56.94,92.25 L 57.49,92.14 L 57.74,92.04 L 58.17,91.57 L 58.37,91.29 L 58.72,90.39 L 59.21,88.50 L 59.49,87.17 L 60.30,84.30 L 60.73,82.88 L 61.68,80.25 L 62.16,79.02 L 63.03,77.20 L 63.23,76.83 L 63.59,76.32 L 64.01,76.00 L 64.22,76.00 L 64.92,76.46 L 66.05,77.56 L 66.32,77.89 L 66.64,78.54 L 66.76,78.88 L 66.78,79.72 L 66.75,80.18 L 66.47,81.39 L 65.67,83.81 L 65.32,84.78 L 64.78,86.42 L 64.53,87.20 L 64.20,88.49 L 64.07,89.09 L 63.97,90.07 L 63.95,90.53 L 64.10,91.26 L 64.21,91.59 L 64.62,92.11 L 64.87,92.35 L 65.56,92.71 L 65.94,92.88 L 66.92,93.13 L 68.75,93.44 L 70.06,93.62 L 73.41,93.96 L 74.24,94.03 L 75.83,94.16 L 77.93,94.29 L 78.99,94.34 L 80.43,94.34 L 81.06,94.30 L 81.86,94.00 L 82.20,93.80 L 82.65,93.03 L 83.23,91.16 L 83.42,90.45 L 83.58,89.32 L 83.63,88.78 L 83.47,87.81 L 83.35,87.32 L 82.81,86.29 L 81.50,84.41 L 80.78,83.47 L 79.24,82.00 L 78.88,81.69 L 78.23,81.27 L 77.47,81.00 L 77.18,81.00 L 76.17,80.48 L 75.61,80.15 L 74.17,79.08 L 73.41,78.50 L 71.71,77.06 L 70.85,76.30 L 69.07,74.65 L 68.18,73.81 L 66.49,72.10 L 65.67,71.26 L 64.25,69.67 L 63.58,68.90 L 62.59,67.59 L 61.78,66.11 L 61.70,65.80 L 61.18,64.96 L 60.88,64.51 L 60.00,63.48 L 59.06,62.41 L 56.59,60.12 L 55.34,59.01 L 52.91,57.23 L 52.34,56.85 L 51.38,56.33 L 50.30,56.00 L 49.82,56.00 L 48.95,55.60 L 48.54,55.34 L 47.81,54.52 L 47.47,54.08 L 46.92,52.99 L 46.67,52.42 L 46.33,51.19 L 46.18,50.57 L 46.08,49.35 L 46.06,48.74 L 46.22,47.65 L 46.34,47.13 L 46.80,46.31 L 47.87,45.54 L 48.59,45.31 L 50.21,45.38 L 51.02,45.49 L 52.62,46.13 L 53.39,46.51 L 54.70,47.60 L 56.03,49.58 L 56.23,50.09 L 56.83,51.25 L 57.16,51.84 L 57.98,53.10 L 58.83,54.36 L 60.89,56.83 L 61.92,58.00 L 63.89,59.79 L 64.35,60.17 L 65.16,60.68 L 66.12,61.00 L 66.64,61.00 L 68.04,61.59 L 70.00,63.00 L 70.50,63.50 L 71.23,64.10 L 71.59,64.33 L 72.36,64.31 L 72.78,64.22 L 74.02,63.49 L 74.37,63.26 L 75.25,62.66 L 76.86,61.51 L 77.91,60.75 L 80.37,59.22 L 81.62,58.46 L 84.12,57.12 L 85.33,56.50 L 87.39,55.59 L 87.86,55.40 L 88.62,55.16 L 89.47,55.00 L 89.54,55.00 L 89.67,55.23 L 89.74,55.38 L 89.84,55.86 L 90.00,57.92 L 90.00,58.52 L 89.88,59.42 L 89.80,59.82 L 89.45,60.40 L 89.24,60.67 L 88.57,61.04 L 87.11,61.48 L 86.71,61.56 L 85.62,61.96 L 85.03,62.18 L 83.69,62.79 L 79.55,65.07 L 74.88,68.03 L 77.94,71.74 L 78.78,72.76 L 80.10,74.69 L 80.38,75.12 L 80.76,75.83 L 81.00,76.55 L 81.00,76.70 L 81.19,77.16 L 81.32,77.41 L 81.72,78.00 L 83.44,79.94 L 85.88,82.24 L 90.44,80.03 L 91.74,79.40 L 93.55,78.16 L 94.35,77.51 L 95.30,75.95 L 95.49,75.52 L 95.73,74.54 L 95.83,74.03 L 95.92,72.84 L 95.94,72.22 L 95.88,70.78 L 95.66,68.29 L 95.37,65.75 L 94.90,61.42 L 94.68,59.38 L 94.34,55.97 L 94.18,54.36 L 93.97,51.74 L 93.88,50.51 L 93.78,48.56 L 93.75,47.65 L 93.78,46.25 L 93.80,45.60 L 93.94,44.63 L 94.03,44.19 L 94.27,43.53 L 94.77,42.77 L 95.06,42.43 L 95.47,41.62 L 95.65,41.18 L 95.83,40.02 L 95.89,39.39 L 95.86,37.70 L 95.60,34.37 L 95.41,32.54 L 94.82,29.12 L 94.67,28.35 L 94.36,27.10 L 93.92,25.85 L 93.65,25.34 L 93.54,24.09 L 93.56,23.45 L 93.98,22.07 L 94.26,21.39 L 95.14,20.06 L 96.91,18.32 L 97.23,18.08 L 97.80,17.83 L 98.08,17.74 L 98.65,17.81 L 98.94,17.88 L 99.61,18.29 L 100.84,19.32 L 101.34,19.78 L 102.02,20.59 L 102.32,20.99 L 102.64,21.83 L 102.76,22.27 L 102.77,23.36 L 102.51,25.50 L 102.24,27.09 L 101.80,29.81 L 101.59,31.09 L 101.28,33.24 L 101.13,34.26 L 100.93,35.93 L 100.85,36.72 L 100.77,37.99 L 100.74,38.58 L 100.77,39.53 L 100.80,39.97 L 100.95,40.67 L 101.77,42.22 L 102.07,42.57 L 102.48,43.47 L 102.66,43.98 L 102.83,45.41 L 102.89,46.23 L 102.84,48.51 L 102.81,49.15 L 102.72,50.63 L 102.54,53.21 L 102.44,54.49 L 102.19,56.93 L 102.07,58.12 L 101.80,60.20 L 101.66,61.18 L 101.40,62.67 L 101.04,63.99 L 100.94,64.20 L 100.78,65.07 L 100.72,65.57 L 100.64,66.90 L 100.76,71.79 L 100.82,72.52 L 100.93,73.75 L 100.98,74.33 L 101.11,75.29 L 101.24,76.18 L 101.64,77.35 L 101.88,77.87 L 102.64,78.57 L 104.37,79.52 L 105.23,79.91 L 107.05,80.88 L 109.09,82.13 L 109.41,82.36 L 110.02,82.60 L 110.33,82.68 L 111.00,82.59 L 111.36,82.50 L 112.21,82.06 L 113.84,80.96 L 114.71,80.32 L 116.07,78.87 L 116.36,78.52 L 116.75,77.89 L 117.00,77.12 L 117.00,76.91 L 117.21,76.31 L 117.35,75.99 L 117.78,75.23 L 119.67,72.82 L 120.32,72.14 L 121.16,71.20 L 121.50,70.77 L 121.74,70.13 L 121.79,69.83 L 121.49,69.21 L 120.49,67.99 L 120.24,67.71 L 119.28,66.95 L 118.74,66.55 L 117.33,65.64 L 112.32,62.84 L 111.03,62.20 L 109.15,61.18 L 108.32,60.69 L 107.22,59.86 L 106.75,59.45 L 106.26,58.64 L 106.00,57.30 L 106.00,56.78 L 106.08,56.07 L 106.15,55.77 L 106.41,55.43 L 106.57,55.31 L 107.09,55.29 L 108.25,55.56 L 109.17,55.84 L 111.02,56.59 L 111.94,57.00 L 113.87,58.04 L 114.86,58.60 L 116.98,60.00 L 120.50,62.55 L 125.27,66.19 L 127.67,63.60 L 128.34,62.88 L 130.02,61.75 L 130.44,61.51 L 131.24,61.18 L 132.29,60.96 L 132.58,60.95 L 133.34,60.61 L 133.74,60.40 L 134.67,59.70 L 135.62,58.92 L 137.73,56.66 L 138.77,55.47 L 140.61,52.87 L 141.02,52.23 L 141.70,51.00 L 142.40,49.33 L 142.58,48.76 L 143.64,47.66 L 144.24,47.13 L 145.82,46.28 L 146.64,45.90 L 148.31,45.50 L 150.45,45.62 L 150.83,45.77 L 151.59,46.41 L 152.38,47.55 L 152.60,48.13 L 152.50,49.69 L 152.37,50.50 L 151.72,52.18 L 151.35,52.99 L 150.34,54.36 L 148.67,55.60 L 148.16,55.76 L 146.99,56.30 L 146.40,56.61 L 145.13,57.39 L 143.85,58.22 L 141.34,60.27 L 140.14,61.30 L 138.30,63.33 L 137.92,63.81 L 137.39,64.66 L 137.04,65.71 L 137.03,66.32 L 136.65,67.56 L 135.75,68.90 L 135.58,69.04 L 134.77,69.72 L 134.31,70.12 L 133.03,71.23 L 132.35,71.82 L 130.78,73.21 L 128.26,75.44 L 127.40,76.21 L 125.73,77.60 L 124.92,78.27 L 123.46,79.37 L 122.77,79.87 L 121.69,80.56 L 120.68,81.00 L 120.42,81.00 L 119.76,81.33 L 119.41,81.54 L 118.61,82.23 L 117.79,82.98 L 116.07,85.13 L 115.24,86.25 L 113.91,88.55 L 113.63,89.10 L 113.25,90.10 L 113.00,91.33 L 113.00,92.01 L 113.46,93.24 L 114.58,94.39 L 114.90,94.51 L 115.75,94.70 L 116.21,94.78 L 117.27,94.90 L 118.36,94.99 L 120.74,94.97 L 121.90,94.93 L 123.87,94.66 L 124.30,94.58 L 124.94,94.37 L 125.50,94.00 L 125.58,93.86 L 125.97,93.61 L 126.20,93.49 L 126.80,93.29 L 129.06,93.00 L 129.90,93.00 L 131.03,92.64 L 131.51,92.39 L 131.94,91.36 L 132.01,91.06 L 132.02,90.28 L 132.00,89.87 L 131.85,88.86 L 131.76,88.32 L 131.45,87.05 L 130.83,84.82 L 130.58,83.99 L 130.28,82.75 L 130.17,82.18 L 130.17,81.32 L 130.20,80.92 L 130.50,80.26 L 131.30,79.27 L 131.85,78.72 L 132.69,78.24 L 132.89,78.19 L 133.25,78.27 L 133.43,78.35 L 133.76,78.72 L 133.93,78.95 L 134.27,79.65 L 134.44,80.05 L 134.80,81.10 L 134.99,81.68 L 135.40,83.13 L 136.09,85.77 L 136.30,86.60 L 136.66,87.98 L 136.83,88.61 L 137.13,89.63 L 137.28,90.10 L 137.56,90.82 L 137.70,91.14 L 138.00,91.60 L 138.32,92.01 L 139.16,92.27 L 141.05,92.23 L 142.01,92.15 L 143.88,92.48 L 146.07,93.56 L 146.43,93.89 L 147.24,94.34 L 147.67,94.53 L 148.79,94.72 L 149.41,94.79 L 151.08,94.75 L 154.44,94.47 L 155.35,94.37 L 157.04,94.13 L 157.86,94.00 L 159.25,93.71 L 159.90,93.57 L 160.84,93.28 L 161.57,92.88 L 161.83,92.47 L 162.73,92.08 L 163.22,91.97 L 164.50,92.15 L 165.17,92.32 L 166.68,93.04 L 169.05,94.69 L 172.25,97.39 L 169.46,99.78 L 168.92,100.25 L 167.97,100.91 L 167.51,101.21 L 166.62,101.55 L 166.17,101.68 L 165.22,101.74 L 163.59,101.55 L 162.31,101.29 L 160.00,100.85 L 158.88,100.65 L 156.87,100.32 L 155.91,100.17 L 154.19,99.95 L 153.37,99.86 L 151.92,99.74 L 150.54,99.66 L 148.50,99.81 L 146.39,100.50 L 146.09,100.69 L 145.02,100.99 L 144.43,101.13 L 142.88,101.31 L 142.05,101.38 L 140.15,101.45 L 139.16,101.47 L 137.04,101.43 L 134.88,101.36 L 130.49,100.92 L 129.43,100.79 L 127.46,100.44 L 124.86,99.83 L 123.88,99.54 L 121.49,99.35 L 120.27,99.32 L 117.85,99.58 L 116.69,99.75 L 114.82,100.36 L 114.42,100.53 L 113.82,100.92 L 113.31,101.57 L 113.24,101.77 L 113.45,102.43 L 113.59,102.80 L 114.15,103.72 L 114.78,104.67 L 116.67,106.88 L 117.66,107.96 L 119.66,109.75 L 120.13,110.13 L 120.96,110.66 L 121.92,111.00 L 122.41,111.00 L 123.70,111.59 L 125.50,113.00 L 126.06,113.62 L 127.06,114.19 L 127.54,114.36 L 128.42,113.98 L 128.86,113.67 L 129.70,112.28 L 129.91,111.87 L 130.34,110.85 L 131.00,109.01 L 131.26,108.21 L 131.76,107.03 L 132.00,106.50 L 132.54,105.80 L 132.82,105.50 L 133.49,105.18 L 134.74,105.00 L 135.29,105.00 L 136.03,105.09 L 136.34,105.17 L 136.67,105.52 L 136.79,105.74 L 136.79,106.50 L 136.50,108.25 L 136.41,108.70 L 136.09,109.82 L 135.92,110.41 L 135.48,111.70 L 133.96,115.42 L 132.08,119.35 L 134.54,121.62 L 135.22,122.25 L 136.28,123.76 L 136.51,124.13 L 136.82,124.82 L 137.02,125.70 L 137.02,125.95 L 137.30,126.59 L 137.49,126.94 L 138.08,127.75 L 138.75,128.60 L 140.77,130.54 L 141.86,131.52 L 144.36,133.41 L 148.12,135.71 L 148.82,136.06 L 149.98,136.96 L 150.52,137.43 L 151.36,138.50 L 151.74,139.04 L 152.24,140.19 L 152.45,140.77 L 152.62,141.90 L 152.66,142.46 L 152.49,143.48 L 152.35,143.97 L 151.82,144.78 L 151.52,145.16 L 150.63,145.67 L 148.88,146.00 L 148.20,146.00 L 146.66,145.51 L 145.88,145.20 L 144.42,144.28 L 143.73,143.79 L 142.69,142.69 L 142.00,141.11 L 142.00,140.87 L 141.65,140.11 L 141.42,139.69 L 140.70,138.64 L 139.90,137.55 L 137.66,135.03 L 136.51,133.78 L 134.22,131.67 L 133.68,131.21 L 132.76,130.54 L 131.68,130.00 L 131.37,129.93 L 130.33,129.26 L 129.76,128.86 L 128.33,127.65 L 127.58,126.99 L 125.93,125.41 L 125.10,124.60 L 123.40,122.84 L 122.56,121.95 L 120.98,120.19 L 120.23,119.32 L 118.94,117.74 L 118.35,116.98 L 117.53,115.75 L 117.00,114.50 L 117.00,114.32 L 116.72,113.76 L 116.55,113.45 L 115.97,112.69 L 113.50,110.14 L 110.00,107.06 L 105.62,110.03 L 101.23,112.99 L 100.77,120.24 L 100.71,121.24 L 100.64,123.14 L 100.62,124.06 L 100.62,125.66 L 100.64,126.41 L 100.71,127.54 L 100.91,128.50 L 100.99,128.64 L 101.22,129.63 L 101.34,130.23 L 101.63,131.97 L 101.77,132.91 L 102.08,135.17 L 102.52,138.90 L 102.64,139.92 L 102.81,141.67 L 102.89,142.50 L 103.01,143.89 L 103.05,144.55 L 103.10,145.65 L 103.11,146.17 L 103.09,147.03 L 103.05,147.85 L 102.74,148.99 L 101.93,150.40 L 101.52,150.93 L 101.02,152.18 L 100.93,152.53 L 100.82,153.38 L 100.79,153.84 L 100.80,154.97 L 100.82,155.57 L 100.95,157.05 L 101.03,157.84 L 101.28,159.75 L 101.42,160.77 L 101.80,163.19 L 102.51,167.50 L 102.66,168.36 L 102.77,169.66 L 102.80,170.26 L 102.63,171.20 L 102.50,171.65 L 101.98,172.47 L 100.72,173.80 L 98.26,176.10 L 95.56,172.89 M 100.04,149.46 L 100.46,148.95 L 100.69,148.00 L 100.72,147.55 L 100.27,146.86 L 99.97,146.56 L 98.99,146.27 L 97.10,146.47 L 96.67,146.60 L 96.09,146.88 L 95.84,147.03 L 95.61,147.38 L 95.53,147.57 L 95.60,148.07 L 96.04,149.07 L 96.35,149.65 L 96.95,150.40 L 97.25,150.71 L 97.87,150.91 L 98.18,150.94 L 98.87,150.59 L 99.23,150.35 M 68.00,126.43 L 68.00,126.04 L 67.45,125.21 L 67.12,124.81 L 66.17,124.13 L 65.69,123.82 L 64.72,123.51 L 63.63,123.70 L 63.36,123.98 L 63.08,124.81 L 62.99,125.26 L 63.04,126.23 L 63.11,126.70 L 63.45,127.52 L 64.25,128.27 L 64.71,128.43 L 65.61,128.47 L 66.05,128.45 L 66.82,128.17 L 67.17,128.00 L 67.67,127.46 L 67.88,127.16 M 134.64,127.50 L 134.80,127.09 L 134.86,125.95 L 134.57,124.32 L 134.42,123.94 L 134.16,123.49 L 134.02,123.31 L 133.66,123.27 L 133.47,123.31 L 132.91,123.72 L 131.71,124.85 L 131.24,125.32 L 130.62,126.03 L 130.36,126.35 L 130.16,126.84 L 130.11,127.07 L 130.30,127.45 L 131.00,128.02 L 131.53,128.35 L 132.36,128.74 L 132.75,128.89 L 133.36,128.91 L 133.64,128.87 L 134.09,128.50 L 134.29,128.26 M 100.37,111.67 L 100.53,111.03 L 101.54,109.68 L 103.55,108.16 L 104.07,107.92 L 104.83,107.46 L 105.16,107.23 L 105.58,106.80 L 105.75,106.58 L 105.84,106.18 L 105.85,105.99 L 105.64,105.65 L 105.49,105.49 L 104.98,105.22 L 104.69,105.10 L 103.91,104.92 L 103.48,104.84 L 102.43,104.77 L 100.57,104.81 L 99.22,104.90 L 96.77,104.68 L 96.22,104.60 L 95.32,104.36 L 94.37,103.89 L 94.08,103.65 L 93.57,103.36 L 93.32,103.26 L 92.85,103.26 L 92.62,103.30 L 92.11,103.61 L 91.20,104.43 L 90.80,104.85 L 90.31,105.44 L 90.11,105.70 L 90.04,106.11 L 90.06,106.30 L 90.42,106.67 L 91.48,107.35 L 91.75,107.51 L 92.45,108.01 L 92.81,108.28 L 93.62,108.96 L 95.98,111.21 L 96.76,112.05 L 97.87,113.11 L 98.37,113.54 L 99.06,113.80 L 99.37,113.83 L 99.81,113.31 L 100.01,112.95 M 89.90,102.62 L 90.30,102.14 L 90.54,100.95 L 90.05,98.63 L 89.70,97.71 L 89.54,95.94 L 89.54,95.08 L 89.99,93.47 L 90.28,92.70 L 91.23,91.33 L 91.76,90.68 L 93.10,89.63 L 93.81,89.15 L 95.42,88.49 L 96.25,88.22 L 98.03,88.02 L 98.93,87.99 L 100.76,88.34 L 103.44,89.55 L 103.86,89.83 L 104.56,90.20 L 104.89,90.35 L 105.42,90.48 L 105.67,90.52 L 106.06,90.41 L 106.51,89.99 L 106.70,89.67 L 106.47,88.67 L 106.27,88.14 L 105.47,87.01 L 105.03,86.47 L 103.98,85.60 L 102.47,85.00 L 102.30,85.00 L 101.89,84.76 L 101.68,84.61 L 101.24,84.12 L 100.00,82.00 L 99.60,81.04 L 98.94,79.85 L 98.62,79.38 L 98.02,79.20 L 97.71,79.24 L 97.01,80.08 L 96.82,80.35 L 96.41,81.09 L 95.70,82.50 L 95.24,83.46 L 94.13,84.97 L 93.86,85.29 L 93.35,85.72 L 92.70,86.00 L 92.45,86.00 L 91.86,86.23 L 91.54,86.37 L 90.86,86.85 L 90.16,87.38 L 88.68,88.96 L 87.96,89.80 L 86.74,91.68 L 85.58,94.35 L 85.41,95.09 L 85.46,97.10 L 85.54,98.14 L 85.98,100.28 L 86.23,101.30 L 86.89,102.91 L 87.06,103.24 L 87.42,103.71 L 87.96,104.00 L 88.18,104.00 L 88.86,103.60 L 89.21,103.35 M 109.83,101.61 L 109.93,101.13 L 109.88,99.89 L 109.51,98.19 L 109.37,97.84 L 109.11,97.44 L 108.98,97.29 L 108.70,97.33 L 108.54,97.41 L 108.15,97.93 L 107.38,99.27 L 107.00,99.99 L 106.60,101.28 L 106.47,101.88 L 106.54,102.83 L 106.63,103.25 L 107.13,103.71 L 108.34,103.72 L 108.66,103.61 L 109.26,102.94 L 109.53,102.56 M 103.55,100.55 L 104.29,99.80 L 105.25,98.53 L 105.63,97.91 L 105.87,96.75 L 105.89,96.16 L 105.42,94.89 L 103.93,92.63 L 103.26,91.78 L 101.51,90.68 L 100.60,90.23 L 98.59,89.95 L 97.58,89.90 L 95.61,90.44 L 93.04,92.19 L 92.38,92.89 L 91.57,94.30 L 91.25,95.00 L 91.10,96.41 L 91.11,97.11 L 91.64,98.53 L 93.17,100.69 L 93.89,101.45 L 95.57,102.40 L 96.43,102.78 L 98.26,102.95 L 99.18,102.93 L 101.00,102.33 L 101.90,101.93 M 56.00,97.67 L 56.00,96.96 L 55.85,95.90 L 55.76,95.43 L 55.40,94.84 L 55.19,94.60 L 54.59,94.44 L 53.40,94.68 L 53.04,94.81 L 52.51,95.47 L 52.28,95.84 L 52.05,96.77 L 51.98,97.25 L 52.08,98.19 L 52.67,99.33 L 53.03,99.70 L 53.81,100.00 L 54.19,100.09 L 54.88,99.88 L 55.21,99.71 L 55.69,99.06 L 55.88,98.69 M 145.80,97.30 L 145.89,96.69 L 145.54,95.68 L 145.29,95.23 L 144.53,94.67 L 144.13,94.46 L 143.30,94.53 L 142.36,95.52 L 142.16,96.04 L 142.10,97.12 L 142.13,97.66 L 142.44,98.60 L 142.63,99.03 L 143.21,99.59 L 144.25,99.75 L 144.59,99.64 L 145.22,98.86 L 145.50,98.42 M 66.80,66.80 L 67.26,66.34 L 67.76,65.44 L 67.94,65.00 L 67.93,64.22 L 67.86,63.86 L 67.35,63.34 L 66.06,63.00 L 65.48,63.00 L 64.56,63.27 L 64.14,63.44 L 63.57,64.02 L 63.33,64.33 L 63.15,65.14 L 63.38,66.55 L 63.55,66.99 L 63.98,67.56 L 64.20,67.79 L 64.74,67.94 L 65.03,67.96 L 65.69,67.68 L 66.03,67.49 M 134.82,65.75 L 134.72,65.03 L 134.00,64.00 L 132.25,63.18 L 131.63,63.09 L 130.76,63.32 L 130.39,63.48 L 130.05,64.11 L 129.95,64.46 L 130.17,65.34 L 131.20,66.80 L 131.70,67.30 L 132.66,67.83 L 133.12,68.01 L 133.89,67.95 L 134.24,67.85 L 134.68,67.24 L 134.85,66.87 M 101.00,44.47 L 101.00,43.95 L 100.55,43.15 L 100.27,42.79 L 99.42,42.39 L 98.97,42.24 L 97.96,42.31 L 96.49,43.01 L 95.91,43.49 L 95.29,44.29 L 95.06,44.66 L 95.15,45.22 L 95.28,45.48 L 96.05,45.80 L 98.00,46.00 L 98.51,46.00 L 99.32,45.91 L 99.70,45.84 L 100.26,45.62 L 100.51,45.50 L 100.82,45.14 L 100.94,44.95 M 83.58,134.49 L 81.95,133.83 L 78.94,132.34 L 78.26,131.98 L 77.18,131.33 L 76.11,130.54 L 75.77,130.19 L 75.33,129.67 L 75.16,129.42 L 75.08,128.99 L 75.09,128.77 L 75.36,128.30 L 76.18,127.39 L 76.56,127.02 L 77.24,126.60 L 77.60,126.45 L 78.57,126.53 L 79.12,126.64 L 80.76,127.30 L 81.23,127.50 L 82.36,128.04 L 84.40,129.02 L 85.31,129.47 L 86.96,130.33 L 87.74,130.75 L 89.04,131.50 L 89.63,131.85 L 90.44,132.39 L 90.93,132.89 L 90.91,133.06 L 90.68,133.82 L 90.18,135.20 L 90.02,135.59 L 89.65,136.06 L 89.42,136.24 L 88.68,136.26 L 88.23,136.21 L 86.81,135.75 L 86.40,135.61 L 85.39,135.22 L 84.86,135.01 M 107.68,135.34 L 107.44,135.11 L 107.16,134.26 L 107.05,133.81 L 107.02,132.82 L 107.03,132.33 L 107.24,131.55 L 107.81,131.00 L 107.92,131.00 L 108.57,130.73 L 108.95,130.56 L 110.03,130.00 L 110.62,129.70 L 112.00,128.92 L 114.25,127.61 L 114.95,127.19 L 116.10,126.50 L 116.64,126.18 L 117.52,125.69 L 118.34,125.25 L 119.39,124.90 L 119.86,124.81 L 120.55,125.12 L 121.68,126.20 L 122.11,126.68 L 122.65,127.34 L 122.86,127.65 L 122.95,128.11 L 122.94,128.34 L 122.57,128.79 L 121.49,129.67 L 120.29,130.56 L 117.47,132.23 L 116.04,133.02 L 113.22,134.28 L 112.54,134.56 L 111.29,135.00 L 110.69,135.19 L 109.65,135.44 L 109.16,135.54 L 108.40,135.58 L 108.07,135.56 Z" fill="#af8666"/>
</g>
</svg>