<svg xmlns="http://www.w3.org/2000/svg" width="196" height="196" viewBox="0 0 196 196">
<g>
<path d="M 97.00,167.74 L 96.66,167.59 L 95.36,167.01 L 94.62,166.69 L 92.73,165.85 L 91.73,165.40 L 89.48,164.41 L 85.97,162.86 L 84.84,162.36 L 82.23,161.13 L 80.88,160.49 L 77.99,159.05 L 75.05,157.58 L 69.17,154.46 L 67.76,153.70 L 65.19,152.27 L 63.96,151.58 L 61.90,150.37 L 60.94,149.80 L 59.58,148.91 L 59.29,148.71 L 58.88,148.39 L 58.53,148.05 L 58.46,147.94 L 58.52,147.24 L 58.57,146.83 L 58.83,145.64 L 58.98,145.00 L 59.39,143.49 L 59.61,142.71 L 60.12,141.05 L 60.65,139.39 L 61.77,136.30 L 62.04,135.61 L 62.53,134.50 L 63.14,133.40 L 63.26,133.24 L 63.33,132.38 L 63.34,131.87 L 63.19,130.41 L 63.09,129.61 L 62.73,127.70 L 62.00,124.49 L 61.70,123.33 L 61.22,121.47 L 61.00,120.60 L 60.66,119.26 L 60.51,118.64 L 60.31,117.74 L 60.23,117.33 L 60.16,116.77 L 60.12,116.29 L 60.39,116.02 L 61.29,116.00 L 61.54,116.00 L 62.67,115.58 L 63.32,115.30 L 65.14,114.40 L 66.12,113.90 L 68.45,112.62 L 69.67,111.95 L 72.36,110.38 L 75.10,108.77 L 80.97,105.11 L 82.41,104.19 L 85.18,102.36 L 88.99,99.73 L 90.16,98.90 L 92.42,97.35 L 93.52,96.60 L 95.48,95.33 L 96.40,94.75 L 97.83,93.90 L 99.15,93.25 L 99.39,93.19 L 100.36,93.51 L 100.91,93.74 L 102.39,94.60 L 103.18,95.08 L 105.05,96.39 L 108.15,98.79 L 109.11,99.57 L 111.23,101.18 L 112.32,101.99 L 114.66,103.63 L 117.03,105.27 L 122.06,108.43 L 124.58,109.95 L 129.40,112.59 L 130.56,113.20 L 132.73,114.25 L 135.67,115.52 L 136.82,115.97 L 138.76,117.04 L 139.18,117.30 L 139.81,117.79 L 140.32,118.40 L 140.39,118.57 L 140.40,119.30 L 140.38,119.73 L 140.25,120.85 L 139.41,125.00 L 139.13,126.10 L 138.77,127.75 L 138.62,128.50 L 138.54,129.63 L 138.53,130.14 L 138.72,130.92 L 139.30,131.93 L 139.48,132.15 L 139.95,133.00 L 140.20,133.48 L 140.76,134.74 L 142.47,139.29 L 142.87,140.54 L 143.40,142.35 L 143.62,143.17 L 143.77,144.30 L 143.80,144.81 L 143.60,145.54 L 142.93,146.46 L 142.85,146.53 L 142.25,146.91 L 141.88,147.13 L 140.75,147.77 L 140.13,148.12 L 138.55,148.99 L 137.71,149.44 L 135.76,150.49 L 134.75,151.04 L 132.51,152.23 L 131.36,152.84 L 128.90,154.14 L 126.41,155.45 L 121.12,158.21 L 118.48,159.58 L 113.37,162.22 L 112.13,162.85 L 109.80,164.04 L 108.66,164.62 L 106.59,165.67 L 105.59,166.17 L 103.86,167.03 L 103.04,167.44 L 101.73,168.07 L 101.13,168.36 L 100.31,168.73 L 99.73,168.93 L 99.67,168.91 L 98.83,168.56 L 98.34,168.34 M 99.82,156.45 L 100.50,149.72 L 110.65,146.51 L 113.16,145.72 L 117.90,143.94 L 119.05,143.49 L 121.18,142.58 L 122.22,142.12 L 124.09,141.23 L 124.98,140.79 L 126.52,139.95 L 127.24,139.54 L 128.39,138.79 L 128.90,138.43 L 129.58,137.79 L 130.00,137.01 L 130.00,136.89 L 129.55,136.86 L 129.27,136.88 L 128.34,137.11 L 127.82,137.26 L 126.54,137.71 L 124.34,138.61 L 123.42,139.02 L 121.24,139.88 L 120.10,140.31 L 117.61,141.18 L 115.07,142.05 L 109.86,143.62 L 108.61,143.98 L 106.30,144.59 L 105.20,144.87 L 103.32,145.28 L 102.46,145.46 L 101.20,145.63 L 100.21,145.54 L 100.16,145.49 L 100.06,144.91 L 100.01,144.53 L 99.91,143.35 L 99.86,142.69 L 99.76,140.97 L 99.71,140.06 L 99.62,137.88 L 99.57,136.75 L 99.48,134.18 L 99.43,132.86 L 99.35,129.97 L 99.15,120.43 L 99.10,117.07 L 98.95,110.94 L 98.91,109.48 L 98.82,106.80 L 98.77,105.50 L 98.68,103.18 L 98.63,102.07 L 98.52,100.19 L 98.47,99.31 L 98.37,97.93 L 98.32,97.31 L 98.21,96.50 L 98.06,96.00 L 97.96,96.00 L 97.32,96.37 L 96.93,96.60 L 95.82,97.36 L 95.22,97.78 L 93.78,98.84 L 91.42,100.64 L 90.61,101.28 L 88.58,102.81 L 87.53,103.60 L 85.22,105.28 L 84.06,106.11 L 81.77,107.74 L 78.63,109.89 L 76.74,111.16 L 72.83,113.79 L 71.91,114.40 L 70.32,115.47 L 68.52,116.67 L 65.29,118.85 L 67.07,127.07 L 67.32,128.20 L 67.88,130.37 L 68.16,131.42 L 68.75,133.29 L 69.04,134.16 L 69.58,135.50 L 70.27,136.70 L 70.37,136.79 L 70.79,137.08 L 71.03,137.24 L 71.72,137.63 L 72.47,138.05 L 74.62,139.14 L 75.78,139.71 L 78.55,141.01 L 83.09,143.03 L 84.66,143.70 L 87.44,144.94 L 88.75,145.53 L 90.85,146.51 L 91.32,146.73 L 92.09,147.11 L 92.45,147.29 L 92.97,147.57 L 93.20,147.70 L 93.45,147.87 L 93.48,147.97 L 93.27,147.98 L 92.31,147.74 L 91.76,147.58 L 90.22,147.07 L 89.39,146.78 L 87.42,146.05 L 86.39,145.66 L 84.15,144.78 L 81.87,143.87 L 77.16,141.86 L 76.02,141.36 L 73.90,140.40 L 71.11,139.06 L 70.28,138.64 L 68.73,137.87 L 67.98,137.50 L 66.71,136.90 L 66.12,136.62 L 65.27,136.24 L 64.63,136.00 L 64.53,136.00 L 64.29,136.27 L 64.16,136.45 L 63.88,137.02 L 63.60,137.65 L 63.02,139.47 L 62.74,140.42 L 62.30,142.41 L 62.00,144.94 L 62.00,145.53 L 62.33,146.51 L 62.58,147.00 L 63.75,148.03 L 64.11,148.30 L 65.08,148.92 L 65.60,149.24 L 66.93,149.98 L 67.64,150.37 L 69.39,151.28 L 72.54,152.88 L 75.02,154.12 L 80.73,156.74 L 83.60,158.02 L 89.13,160.31 L 90.44,160.84 L 92.81,161.75 L 93.94,162.18 L 95.81,162.83 L 96.67,163.11 L 97.90,163.44 L 98.82,163.50 L 98.87,163.45 L 99.00,162.84 L 99.08,162.47 L 99.25,161.30 L 99.34,160.66 L 99.54,159.09 L 99.63,158.27 M 106.00,119.98 L 106.00,117.99 L 105.99,114.69 L 105.98,113.13 L 105.95,110.61 L 105.93,109.43 L 105.86,107.57 L 105.82,106.72 L 105.70,105.41 L 105.64,104.81 L 105.46,103.94 L 105.36,103.55 L 105.11,103.00 L 104.00,102.00 L 103.45,101.71 L 102.57,101.47 L 101.95,101.71 L 101.95,101.77 L 101.95,102.18 L 101.94,102.44 L 101.94,103.23 L 101.94,103.66 L 101.94,104.78 L 101.94,105.37 L 101.95,106.76 L 101.95,108.22 L 101.97,111.80 L 102.00,117.80 L 102.01,119.61 L 102.07,122.84 L 102.11,124.40 L 102.24,127.14 L 102.31,128.45 L 102.50,130.69 L 102.60,131.75 L 102.84,133.50 L 102.97,134.31 L 103.28,135.57 L 103.44,136.14 L 103.81,136.91 L 104.00,137.23 L 104.43,137.52 L 105.15,137.41 L 105.20,137.37 L 105.32,136.96 L 105.37,136.70 L 105.48,135.87 L 105.53,135.41 L 105.62,134.22 L 105.67,133.58 L 105.75,132.07 L 105.83,130.49 L 105.93,126.58 L 105.98,124.53 M 112.37,132.25 L 112.44,132.01 L 112.62,130.74 L 112.71,129.99 L 112.92,127.91 L 113.03,126.79 L 113.24,124.17 L 113.54,119.93 L 113.62,118.74 L 113.73,116.74 L 113.78,115.79 L 113.85,114.21 L 113.87,113.47 L 113.87,112.26 L 113.87,111.69 L 113.80,110.78 L 113.72,109.92 L 113.33,108.81 L 112.36,107.49 L 111.90,107.04 L 111.29,106.56 L 111.02,106.41 L 110.66,106.75 L 110.58,106.89 L 110.44,107.38 L 110.38,107.67 L 110.25,108.45 L 110.19,108.88 L 110.06,109.99 L 109.84,112.07 L 109.77,112.79 L 109.63,114.49 L 109.56,115.38 L 109.42,117.30 L 109.29,119.27 L 109.09,123.40 L 109.00,125.42 L 108.90,129.00 L 108.89,129.81 L 108.88,131.19 L 108.92,132.75 L 108.95,133.22 L 109.43,133.75 L 109.71,133.95 L 110.47,133.96 L 110.86,133.90 L 111.60,133.44 L 111.94,133.15 M 119.79,120.61 L 119.76,119.66 L 119.69,118.04 L 119.66,117.28 L 119.57,115.98 L 119.53,115.38 L 119.43,114.38 L 119.37,113.91 L 119.24,113.17 L 119.10,112.48 L 118.69,111.72 L 117.82,111.20 L 117.46,111.13 L 116.94,111.35 L 116.70,111.55 L 116.38,112.57 L 116.31,112.88 L 116.19,113.73 L 116.14,114.19 L 116.04,115.34 L 116.00,115.96 L 115.92,117.48 L 115.81,120.19 L 115.77,121.42 L 115.73,123.56 L 115.73,124.58 L 115.77,126.30 L 115.80,127.11 L 115.92,128.43 L 115.99,129.05 L 116.19,129.98 L 116.30,130.41 L 116.60,130.98 L 116.75,131.22 L 117.14,131.44 L 117.35,131.50 L 117.83,131.39 L 118.67,130.86 L 118.93,130.64 L 119.32,129.85 L 119.49,129.38 L 119.70,127.97 L 119.79,127.18 L 119.85,124.98 L 119.86,123.76 M 126.02,126.43 L 126.55,125.04 L 126.98,122.30 L 127.09,120.97 L 126.75,118.63 L 126.62,118.09 L 126.23,117.15 L 126.02,116.71 L 125.48,116.00 L 125.18,115.69 L 124.49,115.26 L 123.30,115.00 L 123.07,115.00 L 122.70,115.35 L 122.54,115.59 L 122.30,116.47 L 122.20,116.98 L 122.07,118.43 L 122.00,121.33 L 122.00,122.20 L 122.05,123.85 L 122.09,124.64 L 122.20,126.00 L 122.26,126.64 L 122.41,127.57 L 122.67,128.33 L 122.99,128.65 L 123.59,128.93 L 123.89,129.01 L 124.46,128.82 L 124.74,128.66 L 125.27,127.99 L 125.53,127.59 M 145.00,122.20 L 145.00,121.62 L 145.18,120.69 L 145.31,120.26 L 145.85,119.51 L 146.18,119.15 L 147.23,118.42 L 149.53,117.20 L 150.77,116.59 L 153.14,115.65 L 153.68,115.45 L 154.56,115.17 L 155.47,115.00 L 155.86,115.00 L 156.63,114.74 L 157.42,114.13 L 157.46,114.07 L 157.33,113.90 L 157.24,113.80 L 156.86,113.58 L 156.43,113.33 L 154.94,112.72 L 154.11,112.40 L 151.97,111.68 L 148.23,110.57 L 145.34,109.77 L 139.70,107.78 L 136.88,106.70 L 131.15,104.03 L 128.24,102.60 L 122.12,99.11 L 120.55,98.18 L 117.30,96.15 L 112.18,92.81 L 110.77,91.86 L 108.06,90.08 L 106.76,89.22 L 104.48,87.76 L 103.41,87.08 L 101.80,86.10 L 101.45,85.89 L 100.93,85.59 L 100.43,85.33 L 100.33,85.30 L 99.91,85.37 L 99.67,85.42 L 98.98,85.67 L 98.24,85.96 L 96.11,87.00 L 94.96,87.58 L 92.23,89.11 L 87.75,91.78 L 86.20,92.74 L 82.73,94.82 L 80.96,95.87 L 77.37,97.93 L 75.61,98.94 L 72.33,100.75 L 71.55,101.18 L 70.12,101.93 L 68.23,102.91 L 67.27,103.39 L 64.96,104.44 L 63.74,104.98 L 61.05,106.10 L 58.31,107.22 L 52.51,109.39 L 51.09,109.90 L 48.42,110.81 L 47.13,111.25 L 44.84,111.96 L 43.76,112.28 L 42.05,112.72 L 40.32,113.00 L 40.15,113.00 L 40.15,112.55 L 40.20,112.26 L 40.61,111.32 L 40.86,110.80 L 41.61,109.50 L 43.07,107.28 L 43.50,106.66 L 44.26,105.61 L 44.63,105.11 L 45.28,104.29 L 45.91,103.51 L 46.99,102.52 L 47.52,102.10 L 48.62,101.65 L 50.58,101.33 L 51.84,101.25 L 54.73,100.52 L 56.23,100.07 L 59.53,98.65 L 61.21,97.87 L 64.81,95.84 L 66.63,94.75 L 70.41,92.19 L 72.31,90.84 L 76.18,87.81 L 78.11,86.25 L 81.95,82.83 L 83.86,81.09 L 87.57,77.36 L 92.87,71.50 L 97.11,66.50 L 103.30,73.13 L 106.04,76.05 L 111.47,81.11 L 114.20,83.53 L 119.89,87.75 L 122.79,89.78 L 129.07,93.40 L 130.70,94.27 L 134.11,95.96 L 139.54,98.41 L 140.81,98.95 L 143.20,100.16 L 144.37,100.80 L 146.63,102.23 L 147.75,102.99 L 149.98,104.72 L 153.39,107.71 L 159.99,113.92 L 153.13,119.46 L 152.19,120.22 L 150.42,121.61 L 149.57,122.27 L 148.10,123.37 L 147.43,123.87 L 146.43,124.56 L 145.64,125.00 L 145.55,125.00 L 145.39,124.78 L 145.31,124.64 L 145.19,124.18 L 145.07,123.67 M 91.25,86.83 L 98.00,82.91 L 98.00,76.96 L 98.00,76.14 L 97.94,74.64 L 97.90,73.93 L 97.77,72.75 L 97.70,72.21 L 97.52,71.47 L 97.22,71.00 L 97.11,71.00 L 96.48,71.44 L 96.11,71.72 L 95.06,72.64 L 94.49,73.15 L 93.15,74.41 L 90.97,76.58 L 90.21,77.35 L 88.21,79.28 L 87.15,80.28 L 84.76,82.48 L 83.54,83.59 L 81.04,85.80 L 77.50,88.82 L 76.47,89.68 L 74.70,91.18 L 73.85,91.89 L 72.41,93.14 L 71.73,93.74 L 70.60,94.77 L 70.07,95.25 L 69.21,96.09 L 68.81,96.49 L 68.20,97.17 L 67.93,97.49 L 67.54,98.04 L 67.03,99.34 L 67.03,99.45 L 67.54,99.35 L 67.88,99.25 L 69.01,98.78 L 69.65,98.50 L 71.32,97.70 L 72.22,97.27 L 74.36,96.18 L 75.47,95.60 L 77.99,94.26 L 79.28,93.57 L 82.09,92.03 L 84.96,90.44 M 49.82,120.97 L 49.04,120.57 L 47.57,119.76 L 46.86,119.36 L 45.64,118.63 L 45.08,118.28 L 44.24,117.71 L 43.57,117.12 L 43.50,117.00 L 43.60,116.71 L 43.69,116.56 L 44.07,116.22 L 44.51,115.89 L 45.96,115.20 L 46.74,114.87 L 48.51,114.35 L 50.96,114.00 L 51.65,114.00 L 52.88,114.42 L 53.47,114.70 L 54.48,115.64 L 54.94,116.18 L 55.68,117.61 L 56.43,120.25 L 56.61,121.28 L 56.66,122.88 L 56.65,123.22 L 56.55,123.67 L 56.30,123.95 L 56.19,123.95 L 55.54,123.70 L 55.16,123.55 L 54.07,123.06 L 53.48,122.79 L 52.09,122.11 L 51.37,121.76 M 55.95,87.25 L 56.74,85.22 L 58.22,81.48 L 58.95,79.65 L 60.31,76.29 L 60.98,74.65 L 62.23,71.64 L 62.85,70.18 L 64.02,67.50 L 64.60,66.20 L 65.70,63.83 L 66.24,62.68 L 67.29,60.58 L 68.32,58.55 L 70.30,55.22 L 71.29,53.66 L 73.26,51.10 L 74.26,49.90 L 76.37,47.92 L 77.44,46.98 L 79.80,45.36 L 83.77,43.11 L 84.39,42.80 L 85.40,42.29 L 85.87,42.06 L 86.63,41.78 L 86.98,41.68 L 87.52,41.69 L 87.76,41.74 L 88.14,42.10 L 88.31,42.34 L 88.57,43.13 L 88.69,43.58 L 88.88,44.86 L 88.98,45.56 L 89.15,47.39 L 89.43,50.82 L 89.50,51.71 L 89.62,53.18 L 89.67,53.86 L 89.73,54.96 L 89.75,55.46 L 89.75,56.23 L 89.74,56.57 L 89.66,57.06 L 89.56,57.49 L 89.10,57.71 L 87.91,57.47 L 86.48,57.02 L 83.79,56.65 L 82.47,56.56 L 79.98,56.94 L 78.76,57.23 L 76.44,58.38 L 75.30,59.05 L 73.14,61.00 L 72.07,62.07 L 70.03,64.83 L 69.03,66.31 L 67.09,69.92 L 66.13,71.83 L 64.27,76.29 L 61.55,84.00 L 60.92,85.94 L 59.53,89.31 L 58.81,90.89 L 57.32,93.41 L 56.95,93.98 L 56.20,94.93 L 55.83,95.38 L 55.10,96.06 L 54.73,96.37 L 54.03,96.76 L 53.02,97.00 L 52.96,97.00 L 52.92,96.80 L 52.92,96.67 L 52.98,96.23 L 53.07,95.74 L 53.52,94.14 L 53.79,93.25 L 54.55,91.04 L 54.96,89.87 M 132.18,85.98 L 131.34,85.52 L 129.25,84.28 L 128.15,83.62 L 125.65,82.04 L 124.37,81.23 L 121.62,79.42 L 120.23,78.50 L 117.38,76.56 L 114.53,74.61 L 109.14,70.75 L 107.87,69.82 L 105.59,68.09 L 102.70,65.81 L 102.00,65.24 L 101.11,64.41 L 100.74,64.01 L 100.45,63.24 L 100.37,62.82 L 100.60,61.69 L 101.45,59.12 L 101.67,58.52 L 102.05,56.88 L 102.24,56.01 L 102.55,54.01 L 103.00,47.87 L 103.00,47.13 L 103.01,45.87 L 103.02,45.27 L 103.06,44.29 L 103.11,43.36 L 103.32,42.20 L 103.44,41.72 L 103.86,41.24 L 104.80,41.00 L 105.09,41.00 L 105.82,41.17 L 106.20,41.28 L 107.09,41.64 L 108.03,42.06 L 110.30,43.40 L 111.48,44.14 L 114.09,46.01 L 115.41,46.99 L 118.15,49.20 L 119.51,50.33 L 122.16,52.70 L 123.46,53.89 L 125.81,56.26 L 126.93,57.43 L 128.77,59.61 L 130.72,62.48 L 130.83,62.68 L 131.11,63.29 L 131.26,63.62 L 131.62,64.46 L 132.00,65.35 L 132.93,67.67 L 133.41,68.89 L 134.46,71.66 L 136.03,75.98 L 136.55,77.42 L 137.55,80.20 L 138.03,81.55 L 138.89,83.92 L 139.30,85.04 L 139.93,86.74 L 140.06,87.11 L 140.28,87.68 L 140.50,88.25 L 140.63,88.56 L 140.77,89.06 L 140.82,89.28 L 140.79,89.59 L 140.74,89.71 L 140.48,89.82 L 140.32,89.84 L 139.80,89.74 L 139.51,89.66 L 138.69,89.33 L 138.24,89.14 L 137.09,88.58 L 136.46,88.27 L 134.94,87.47 L 134.12,87.04 M 96.65,47.85 L 96.42,44.56 L 96.15,38.10 L 96.10,36.54 L 96.04,33.57 L 96.02,32.13 L 96.03,29.49 L 96.04,28.22 L 96.12,26.03 L 96.16,24.99 L 96.29,23.34 L 96.37,22.60 L 96.56,21.61 L 96.91,21.00 L 97.04,21.00 L 97.28,21.19 L 97.40,21.32 L 97.63,21.80 L 97.74,22.07 L 97.96,22.85 L 98.07,23.29 L 98.28,24.40 L 98.39,25.00 L 98.60,26.47 L 98.70,27.26 L 98.91,29.11 L 99.02,30.09 L 99.24,32.36 L 99.58,36.25 L 99.76,38.30 L 99.82,42.96 L 99.81,45.29 L 99.57,49.71 L 99.49,50.75 L 99.30,52.60 L 99.19,53.48 L 98.95,54.91 L 98.82,55.56 L 98.53,56.45 L 98.07,57.00 L 97.96,57.00 L 97.72,56.28 L 97.59,55.81 L 97.34,54.31 L 97.21,53.48 L 96.96,51.40 L 96.85,50.31 M 92.66,132.26 L 92.59,132.15 L 92.46,131.67 L 92.39,131.40 L 92.27,130.63 L 92.14,129.79 L 91.92,127.42 L 91.81,126.14 L 91.63,123.18 L 91.55,121.66 L 91.42,118.47 L 91.37,116.89 L 91.32,113.85 L 91.30,112.38 L 91.33,109.86 L 91.35,108.69 L 91.47,107.06 L 91.51,106.72 L 91.60,106.28 L 91.77,106.00 L 91.92,106.00 L 92.24,106.72 L 92.39,107.19 L 92.69,108.74 L 92.84,109.60 L 93.11,111.82 L 93.43,115.75 L 93.60,118.43 L 93.99,123.59 L 94.08,124.76 L 94.25,126.71 L 94.46,128.73 L 94.56,129.49 L 94.49,130.80 L 94.42,131.41 L 94.10,132.28 L 93.92,132.63 L 93.44,132.86 L 93.19,132.87 M 85.76,125.00 L 85.66,124.66 L 85.48,123.60 L 85.40,123.02 L 85.27,121.62 L 85.11,117.00 L 85.20,111.50 L 86.14,115.50 L 86.40,116.60 L 86.72,119.50 L 86.79,123.50 L 86.73,124.37 L 86.61,125.52 L 86.56,125.99 L 86.42,126.38 L 86.35,126.49 L 86.16,126.18 L 86.05,125.94 M 78.51,121.02 L 78.31,120.12 L 78.26,118.55 L 78.28,117.83 L 78.58,116.85 L 78.76,116.46 L 79.26,116.38 L 79.39,116.42 L 79.68,116.73 L 80.10,117.57 L 80.37,118.25 L 80.71,119.73 L 80.84,120.46 L 80.90,121.81 L 80.90,122.45 L 80.69,123.38 L 80.08,124.00 L 79.95,124.00 L 79.67,123.77 L 79.53,123.61 L 79.24,123.13 L 78.95,122.59 Z" fill="#af8666"/>
</g>
</svg>