<?xml version="1.0" encoding="UTF-8"?>
<!DOCTYPE svg PUBLIC "-//W3C//DTD SVG 1.1//EN" "http://www.w3.org/Graphics/SVG/1.1/DTD/svg11.dtd">
<svg xmlns="http://www.w3.org/2000/svg" version="1.1" width="167px" height="176px" style="shape-rendering:geometricPrecision; text-rendering:geometricPrecision; image-rendering:optimizeQuality; fill-rule:evenodd; clip-rule:evenodd" xmlns:xlink="http://www.w3.org/1999/xlink">
<g><path style="opacity:1" fill="#af8666" d="M 26.5,-0.5 C 64.1667,-0.5 101.833,-0.5 139.5,-0.5C 140.751,5.418 144.418,9.08466 150.5,10.5C 151.224,13.4512 151.057,16.4512 150,19.5C 148.957,17.2994 148.123,14.9661 147.5,12.5C 142.75,10.583 139.083,7.41637 136.5,3C 100.829,2.16675 65.162,2.33342 29.5,3.5C 27.3323,8.008 23.8323,11.008 19,12.5C 17.8732,15.3771 17.2065,18.3771 17,21.5C 15.8944,17.8779 15.5611,14.2113 16,10.5C 19.2904,9.35481 22.2904,7.68814 25,5.5C 26.128,3.65472 26.628,1.65472 26.5,-0.5 Z"/></g>
<g><path style="opacity:1" fill="#af8666" d="M 151.5,21.5 C 153.697,30.677 153.864,40.0103 152,49.5C 151.044,48.4214 150.211,47.2547 149.5,46C 150.617,42.9269 150.784,39.7603 150,36.5C 145.938,44.3164 147.604,50.6497 155,55.5C 153.716,72.2929 152.55,89.1262 151.5,106C 150.921,111.314 152.087,116.148 155,120.5C 155.667,124.167 155.667,127.833 155,131.5C 152.15,134.989 151.316,138.822 152.5,143C 153.833,144.333 155.167,145.667 156.5,147C 156.333,147.5 156.167,148 156,148.5C 155.311,147.643 154.478,146.977 153.5,146.5C 152.262,149.168 152.262,151.834 153.5,154.5C 145.855,155.331 138.188,155.831 130.5,156C 126.426,158.994 127.093,160.661 132.5,161C 130.045,162.631 127.545,162.797 125,161.5C 124.333,160.5 124.333,159.5 125,158.5C 131.232,153.301 137.732,148.468 144.5,144C 148.221,140.057 151.055,135.557 153,130.5C 153.854,126.375 153.52,122.375 152,118.5C 151.667,122.5 151.333,126.5 151,130.5C 150.71,132.044 150.044,133.377 149,134.5C 147.302,107.495 147.135,80.4948 148.5,53.5C 147.2,50.4337 146.2,47.2671 145.5,44C 148.014,36.6257 150.014,29.1257 151.5,21.5 Z M 150.5,55.5 C 152.722,55.5587 153.722,56.7253 153.5,59C 151.971,68.7876 150.805,78.6209 150,88.5C 149.381,77.4858 149.547,66.4858 150.5,55.5 Z M 147.5,142.5 C 149.048,142.821 149.715,143.821 149.5,145.5C 145.36,146.044 144.693,145.044 147.5,142.5 Z M 145.5,147.5 C 146.833,147.5 148.167,147.5 149.5,147.5C 149.5,149.167 149.5,150.833 149.5,152.5C 145.154,152.666 140.821,152.499 136.5,152C 139.592,150.454 142.592,148.954 145.5,147.5 Z"/></g>
<g><path style="opacity:1" fill="#af8666" d="M 14.5,21.5 C 16.8671,28.7951 18.8671,36.2951 20.5,44C 19.9822,47.5329 19.3155,51.0329 18.5,54.5C 19.7437,81.1664 19.577,107.833 18,134.5C 17.0853,133.672 16.4186,132.672 16,131.5C 15.6667,127.167 15.3333,122.833 15,118.5C 12.831,121.51 12.1643,124.844 13,128.5C 15.5706,135.739 19.7373,141.905 25.5,147C 30.9261,150.129 36.0928,153.629 41,157.5C 42.3681,158.993 42.5348,160.493 41.5,162C 38.7433,162.584 36.0766,162.25 33.5,161C 35.1341,160.506 36.8008,160.34 38.5,160.5C 38.7035,158.61 38.0368,157.11 36.5,156C 28.8406,155.5 21.1739,155.334 13.5,155.5C 13.75,152.786 13.9167,150.119 14,147.5C 12.8525,146.542 11.8525,146.875 11,148.5C 10.5,148 10,147.5 9.5,147C 10.6651,145.916 11.9984,145.083 13.5,144.5C 13.8333,143.167 14.1667,141.833 14.5,140.5C 12.8925,135.605 11.5592,130.605 10.5,125.5C 10.9441,121.378 12.4441,117.712 15,114.5C 15.0998,95.3651 13.5998,76.3651 10.5,57.5C 14.9186,53.9203 17.9186,49.4203 19.5,44C 18.6667,41.5 17.8333,39 17,36.5C 16.4627,40.8844 15.7961,45.2178 15,49.5C 14.1656,46.8276 13.3323,44.161 12.5,41.5C 13.4961,34.8842 14.1627,28.2175 14.5,21.5 Z M 14.5,55.5 C 15.1174,55.6107 15.6174,55.944 16,56.5C 17.2445,66.8103 17.5779,77.1437 17,87.5C 15.1579,76.8034 14.3245,66.1368 14.5,55.5 Z M 17.5,142.5 C 21.0595,144.283 21.0595,145.283 17.5,145.5C 17.5,144.5 17.5,143.5 17.5,142.5 Z M 29.5,151.5 C 25.7016,152.483 21.7016,152.817 17.5,152.5C 16.1449,150.247 16.8116,148.58 19.5,147.5C 22.9363,148.644 26.2696,149.977 29.5,151.5 Z"/></g>
<g><path style="opacity:1" fill="#af8666" d="M 130.5,147.5 C 128.983,147.489 127.816,146.823 127,145.5C 125.92,147.553 125.086,149.72 124.5,152C 127.943,152.221 128.276,153.221 125.5,155C 123.167,155.333 120.833,155.667 118.5,156C 116.5,158 114.5,160 112.5,162C 114.221,163.527 116.221,164.527 118.5,165C 122.152,165.499 125.818,165.665 129.5,165.5C 129.082,166.222 128.416,166.722 127.5,167C 121.811,167.373 116.145,167.873 110.5,168.5C 111.429,167.685 112.429,166.852 113.5,166C 109.516,164.885 106.182,165.885 103.5,169C 90.1598,172.274 76.8265,172.274 63.5,169C 60.7635,165.712 57.4301,164.878 53.5,166.5C 54.376,167.251 55.376,167.751 56.5,168C 57.6956,168.654 57.6956,169.154 56.5,169.5C 50.6266,167.931 44.6266,167.098 38.5,167C 37.5842,166.722 36.9175,166.222 36.5,165.5C 40.5138,165.666 44.5138,165.499 48.5,165C 50.779,164.527 52.779,163.527 54.5,162C 52.2807,160.237 50.2807,158.237 48.5,156C 44.8079,156.004 41.4746,155.004 38.5,153C 39.448,152.517 40.448,152.351 41.5,152.5C 41.821,149.423 40.821,147.09 38.5,145.5C 39.6557,143.176 40.6557,140.843 41.5,138.5C 40.8124,143.461 41.979,147.795 45,151.5C 43.0944,132.525 51.5944,121.025 70.5,117C 89.6331,112.381 105.8,117.215 119,131.5C 122.294,137.862 123.294,144.528 122,151.5C 124.027,149.091 125.194,146.258 125.5,143C 124.541,140.88 124.374,138.713 125,136.5C 125.787,140.741 127.621,144.408 130.5,147.5 Z M 77.5,118.5 C 92.0515,117.183 104.552,121.516 115,131.5C 121.274,140.936 120.441,149.77 112.5,158C 97.2575,168.78 80.9242,170.78 63.5,164C 44.7326,153.843 42.7326,141.176 57.5,126C 63.8853,122.377 70.552,119.877 77.5,118.5 Z"/></g>
<g><path style="opacity:1" fill="#af8666" d="M 42.5,133.5 C 43.8333,134.167 43.8333,134.167 42.5,133.5 Z"/></g>
<g><path style="opacity:1" fill="#af8666" d="M 123.5,134.5 C 124.833,135.167 124.833,135.167 123.5,134.5 Z"/></g>
<g><path style="opacity:1" fill="#af8666" d="M 41.5,138.5 C 41.3505,137.448 41.5172,136.448 42,135.5C 42.7401,136.749 42.5735,137.749 41.5,138.5 Z"/></g>
<g><path style="opacity:1" fill="#af8666" d="M 38.5,145.5 C 37.8333,146.167 37.8333,146.167 38.5,145.5 Z"/></g>
<g><path style="opacity:1" fill="#af8666" d="M 37.5,146.5 C 36.8333,147.167 36.8333,147.167 37.5,146.5 Z"/></g>
<g><path style="opacity:1" fill="#af8666" d="M 34.5,147.5 C 35.8333,148.167 35.8333,148.167 34.5,147.5 Z"/></g>
<g><path style="opacity:1" fill="#af8666" d="M 130.5,147.5 C 131.239,147.369 131.906,147.536 132.5,148C 131.563,148.692 130.897,148.525 130.5,147.5 Z"/></g>
<g><path style="opacity:1" fill="#af8666" d="M 29.5,151.5 C 30.0431,151.56 30.3764,151.893 30.5,152.5C 26.0162,153.811 21.6829,153.811 17.5,152.5C 21.7016,152.817 25.7016,152.483 29.5,151.5 Z"/></g>
<g><path style="opacity:1" fill="#af8666" d="M 30.5,158.5 C 31.8333,159.167 31.8333,159.167 30.5,158.5 Z"/></g>
<g><path style="opacity:1" fill="#af8666" d="M 36.5,165.5 C 35.8333,164.167 35.8333,164.167 36.5,165.5 Z"/></g>
<g><path style="opacity:1" fill="#af8666" d="M 129.5,165.5 C 129.897,164.475 130.563,164.308 131.5,165C 130.906,165.464 130.239,165.631 129.5,165.5 Z"/></g>
<g><path style="opacity:1" fill="#af8666" d="M 110.5,168.5 C 109.833,169.167 109.833,169.167 110.5,168.5 Z"/></g>
</svg>
